F0ntUni-AL1.ufo
<glyph name="exclam" format="1">
  <advance width="330"/>
  <unicode hex="0021"/>
  <outline>
    <contour>
      <point x="136" y="828" type="qcurve" smooth="yes"/>
      <point x="176" y="835" type="line" smooth="yes"/>
      <point x="179" y="836"/>
      <point x="187" y="836" type="qcurve" smooth="yes"/>
      <point x="220" y="836"/>
      <point x="220" y="812" type="qcurve" smooth="yes"/>
      <point x="220" y="811" type="line" smooth="yes"/>
      <point x="220" y="799"/>
      <point x="219" y="626"/>
      <point x="213" y="424"/>
      <point x="205" y="303" type="qcurve" smooth="yes"/>
      <point x="204" y="290"/>
      <point x="171" y="268"/>
      <point x="153" y="268" type="qcurve" smooth="yes"/>
      <point x="126" y="268"/>
      <point x="125" y="295" type="qcurve" smooth="yes"/>
      <point x="123" y="338"/>
      <point x="107" y="745"/>
      <point x="101" y="794" type="qcurve"/>
      <point x="101" y="796" type="line" smooth="yes"/>
      <point x="101" y="807"/>
      <point x="122" y="826"/>
    </contour>
    <contour>
      <point x="231" y="112" type="qcurve" smooth="yes"/>
      <point x="249" y="94"/>
      <point x="249" y="71" type="qcurve" smooth="yes"/>
      <point x="249" y="62"/>
      <point x="248" y="58" type="qcurve" smooth="yes"/>
      <point x="244" y="35"/>
      <point x="193" y="-5"/>
      <point x="155" y="-5" type="qcurve" smooth="yes"/>
      <point x="120" y="-5"/>
      <point x="81" y="31"/>
      <point x="81" y="56" type="qcurve" smooth="yes"/>
      <point x="81" y="80"/>
      <point x="127" y="132"/>
      <point x="175" y="132" type="qcurve" smooth="yes"/>
      <point x="183" y="132"/>
      <point x="191" y="130" type="qcurve" smooth="yes"/>
      <point x="207" y="126" type="line" smooth="yes"/>
      <point x="223" y="121"/>
    </contour>
  </outline>
</glyph>
<glyph name="quotedbl" format="1">
  <advance width="510"/>
  <unicode hex="0022"/>
  <outline>
    <contour>
      <point x="347" y="838" type="qcurve" smooth="yes"/>
      <point x="366" y="839" type="line"/>
      <point x="368" y="839" type="line" smooth="yes"/>
      <point x="383" y="839"/>
      <point x="403" y="824"/>
      <point x="403" y="814" type="qcurve" smooth="yes"/>
      <point x="401" y="643"/>
      <point x="391" y="586" type="qcurve" smooth="yes"/>
      <point x="389" y="575"/>
      <point x="356" y="553"/>
      <point x="340" y="553" type="qcurve" smooth="yes"/>
      <point x="316" y="553"/>
      <point x="313" y="579" type="qcurve" smooth="yes"/>
      <point x="311" y="600"/>
      <point x="306" y="762"/>
      <point x="304" y="804" type="qcurve" smooth="yes"/>
      <point x="304" y="806" type="line" smooth="yes"/>
      <point x="304" y="817"/>
      <point x="325" y="837"/>
    </contour>
    <contour>
      <point x="150" y="836" type="qcurve" smooth="yes"/>
      <point x="169" y="837" type="line"/>
      <point x="171" y="837" type="line" smooth="yes"/>
      <point x="186" y="837"/>
      <point x="206" y="822"/>
      <point x="206" y="812" type="qcurve" smooth="yes"/>
      <point x="204" y="615"/>
      <point x="198" y="581" type="qcurve" smooth="yes"/>
      <point x="196" y="570"/>
      <point x="163" y="548"/>
      <point x="147" y="548" type="qcurve" smooth="yes"/>
      <point x="123" y="548"/>
      <point x="120" y="574" type="qcurve" smooth="yes"/>
      <point x="118" y="592"/>
      <point x="114" y="664"/>
      <point x="109" y="771"/>
      <point x="107" y="802" type="qcurve" smooth="yes"/>
      <point x="107" y="804" type="line" smooth="yes"/>
      <point x="107" y="815"/>
      <point x="128" y="835"/>
    </contour>
  </outline>
</glyph>
<glyph name="numbersign" format="1">
  <advance width="720"/>
  <unicode hex="0023"/>
  <outline>
    <contour>
      <point x="305" y="829" type="qcurve" smooth="yes"/>
      <point x="320" y="829"/>
      <point x="339" y="815"/>
      <point x="339" y="804" type="qcurve" smooth="yes"/>
      <point x="339" y="801" type="line"/>
      <point x="329" y="739"/>
      <point x="301" y="574" type="qcurve"/>
      <point x="365" y="573"/>
      <point x="492" y="573" type="qcurve"/>
      <point x="499" y="611"/>
      <point x="531" y="809" type="qcurve" smooth="yes"/>
      <point x="532" y="821"/>
      <point x="559" y="839"/>
      <point x="575" y="839" type="qcurve" smooth="yes"/>
      <point x="590" y="839"/>
      <point x="609" y="825"/>
      <point x="609" y="814" type="qcurve" smooth="yes"/>
      <point x="609" y="811" type="line"/>
      <point x="579" y="624"/>
      <point x="570" y="574" type="qcurve"/>
      <point x="666" y="574" type="line" smooth="yes"/>
      <point x="680" y="574"/>
      <point x="699" y="560"/>
      <point x="699" y="549" type="qcurve" smooth="yes"/>
      <point x="699" y="545" type="line" smooth="yes"/>
      <point x="697" y="533"/>
      <point x="670" y="516"/>
      <point x="654" y="516" type="qcurve" smooth="yes"/>
      <point x="559" y="516" type="line"/>
      <point x="543" y="426"/>
      <point x="517" y="294" type="qcurve"/>
      <point x="626" y="294" type="line" smooth="yes"/>
      <point x="640" y="294"/>
      <point x="659" y="280"/>
      <point x="659" y="269" type="qcurve" smooth="yes"/>
      <point x="659" y="265" type="line" smooth="yes"/>
      <point x="657" y="253"/>
      <point x="630" y="236"/>
      <point x="614" y="236" type="qcurve" smooth="yes"/>
      <point x="506" y="236" type="line"/>
      <point x="498" y="195"/>
      <point x="463" y="29"/>
      <point x="459" y="10" type="qcurve" smooth="yes"/>
      <point x="457" y="-2"/>
      <point x="430" y="-19"/>
      <point x="414" y="-19" type="qcurve" smooth="yes"/>
      <point x="400" y="-19"/>
      <point x="381" y="-5"/>
      <point x="381" y="6" type="qcurve" smooth="yes"/>
      <point x="381" y="10" type="line"/>
      <point x="388" y="41"/>
      <point x="420" y="196"/>
      <point x="428" y="235" type="qcurve"/>
      <point x="303" y="235"/>
      <point x="238" y="236" type="qcurve"/>
      <point x="230" y="196"/>
      <point x="196" y="36"/>
      <point x="189" y="0" type="qcurve" smooth="yes"/>
      <point x="187" y="-12"/>
      <point x="160" y="-29"/>
      <point x="144" y="-29" type="qcurve" smooth="yes"/>
      <point x="130" y="-29"/>
      <point x="111" y="-15"/>
      <point x="111" y="-4" type="qcurve" smooth="yes"/>
      <point x="111" y="0" type="line"/>
      <point x="160" y="238" type="line"/>
      <point x="99" y="240"/>
      <point x="52" y="241" type="qcurve" smooth="yes"/>
      <point x="38" y="242"/>
      <point x="20" y="256"/>
      <point x="20" y="266" type="qcurve" smooth="yes"/>
      <point x="20" y="267"/>
      <point x="21" y="270"/>
      <point x="21" y="271" type="qcurve" smooth="yes"/>
      <point x="24" y="282"/>
      <point x="51" y="299"/>
      <point x="66" y="299" type="qcurve" smooth="yes"/>
      <point x="68" y="299" type="line" smooth="yes"/>
      <point x="114" y="298"/>
      <point x="172" y="296" type="qcurve"/>
      <point x="198" y="428"/>
      <point x="214" y="518" type="qcurve"/>
      <point x="151" y="520"/>
      <point x="92" y="521" type="qcurve" smooth="yes"/>
      <point x="78" y="522"/>
      <point x="60" y="536"/>
      <point x="60" y="546" type="qcurve" smooth="yes"/>
      <point x="60" y="547"/>
      <point x="61" y="550"/>
      <point x="61" y="551" type="qcurve" smooth="yes"/>
      <point x="64" y="562"/>
      <point x="91" y="579"/>
      <point x="106" y="579" type="qcurve" smooth="yes"/>
      <point x="108" y="579" type="line" smooth="yes"/>
      <point x="164" y="578"/>
      <point x="224" y="576" type="qcurve"/>
      <point x="240" y="666"/>
      <point x="261" y="799" type="qcurve" smooth="yes"/>
      <point x="262" y="811"/>
      <point x="289" y="829"/>
    </contour>
    <contour>
      <point x="291" y="516" type="qcurve"/>
      <point x="270" y="396"/>
      <point x="250" y="295" type="qcurve"/>
      <point x="380" y="293"/>
      <point x="439" y="293" type="qcurve"/>
      <point x="473" y="463"/>
      <point x="482" y="515" type="qcurve"/>
      <point x="355" y="515"/>
    </contour>
  </outline>
</glyph>
<glyph name="dollar" format="1">
  <advance width="720"/>
  <unicode hex="0024"/>
  <outline>
    <contour>
      <point x="360" y="926" type="qcurve" smooth="yes"/>
      <point x="365" y="926" type="line" smooth="yes"/>
      <point x="379" y="926"/>
      <point x="397" y="914"/>
      <point x="397" y="904" type="qcurve" smooth="yes"/>
      <point x="397" y="890"/>
      <point x="396" y="835"/>
      <point x="396" y="822" type="qcurve"/>
      <point x="400" y="822" type="line" smooth="yes"/>
      <point x="499" y="822"/>
      <point x="614" y="719"/>
      <point x="614" y="648" type="qcurve" smooth="yes"/>
      <point x="614" y="641"/>
      <point x="610" y="609"/>
      <point x="574" y="585"/>
      <point x="552" y="584" type="qcurve" smooth="yes"/>
      <point x="550" y="584" type="line" smooth="yes"/>
      <point x="530" y="584"/>
      <point x="504" y="603"/>
      <point x="504" y="617" type="qcurve" smooth="yes"/>
      <point x="504" y="621" type="line" smooth="yes"/>
      <point x="505" y="626"/>
      <point x="505" y="636" type="qcurve" smooth="yes"/>
      <point x="505" y="678"/>
      <point x="442" y="740"/>
      <point x="395" y="744" type="qcurve"/>
      <point x="395" y="721"/>
      <point x="392" y="503"/>
      <point x="392" y="448" type="qcurve"/>
      <point x="413" y="441"/>
      <point x="459" y="425"/>
      <point x="501" y="410"/>
      <point x="506" y="408" type="qcurve" smooth="yes"/>
      <point x="589" y="381"/>
      <point x="674" y="278"/>
      <point x="674" y="216" type="qcurve" smooth="yes"/>
      <point x="674" y="152"/>
      <point x="630" y="94" type="qcurve" smooth="yes"/>
      <point x="549" y="-9"/>
      <point x="400" y="-21" type="qcurve"/>
      <point x="401" y="-33"/>
      <point x="402" y="-83"/>
      <point x="402" y="-95" type="qcurve" smooth="yes"/>
      <point x="402" y="-96" type="line" smooth="yes"/>
      <point x="402" y="-106"/>
      <point x="381" y="-124"/>
      <point x="366" y="-126" type="qcurve" smooth="yes"/>
      <point x="365" y="-126"/>
      <point x="360" y="-127"/>
      <point x="359" y="-127" type="qcurve" smooth="yes"/>
      <point x="346" y="-127"/>
      <point x="329" y="-114"/>
      <point x="328" y="-105" type="qcurve" smooth="yes"/>
      <point x="326" y="-47"/>
      <point x="325" y="-20" type="qcurve"/>
      <point x="233" y="-11"/>
      <point x="108" y="79"/>
      <point x="80" y="147" type="qcurve" smooth="yes"/>
      <point x="78" y="153"/>
      <point x="78" y="157" type="qcurve" smooth="yes"/>
      <point x="78" y="170"/>
      <point x="100" y="194"/>
      <point x="118" y="199" type="qcurve" smooth="yes"/>
      <point x="130" y="202"/>
      <point x="141" y="202" type="qcurve" smooth="yes"/>
      <point x="175" y="202"/>
      <point x="184" y="179" type="qcurve" smooth="yes"/>
      <point x="221" y="86"/>
      <point x="323" y="63" type="qcurve"/>
      <point x="318" y="251"/>
      <point x="318" y="375" type="qcurve"/>
      <point x="299" y="382"/>
      <point x="242" y="402"/>
      <point x="236" y="404" type="qcurve" smooth="yes"/>
      <point x="154" y="431"/>
      <point x="70" y="531"/>
      <point x="70" y="590" type="qcurve" smooth="yes"/>
      <point x="70" y="606"/>
      <point x="73" y="622" type="qcurve" smooth="yes"/>
      <point x="87" y="690"/>
      <point x="222" y="799"/>
      <point x="322" y="816" type="qcurve"/>
      <point x="322" y="829"/>
      <point x="323" y="882"/>
      <point x="323" y="896" type="qcurve" smooth="yes"/>
      <point x="323" y="907"/>
      <point x="345" y="925"/>
    </contour>
    <contour>
      <point x="319" y="474" type="qcurve"/>
      <point x="319" y="548"/>
      <point x="321" y="738" type="qcurve"/>
      <point x="262" y="726"/>
      <point x="190" y="663"/>
      <point x="181" y="622" type="qcurve" smooth="yes"/>
      <point x="179" y="608"/>
      <point x="179" y="602" type="qcurve" smooth="yes"/>
      <point x="179" y="565"/>
      <point x="236" y="501"/>
      <point x="294" y="482" type="qcurve" smooth="yes"/>
      <point x="297" y="481"/>
      <point x="314" y="475"/>
    </contour>
    <contour>
      <point x="393" y="350" type="qcurve"/>
      <point x="393" y="199"/>
      <point x="397" y="56" type="qcurve"/>
      <point x="490" y="60"/>
      <point x="537" y="124" type="qcurve" smooth="yes"/>
      <point x="565" y="161"/>
      <point x="565" y="203" type="qcurve" smooth="yes"/>
      <point x="565" y="244"/>
      <point x="508" y="312"/>
      <point x="450" y="330" type="qcurve" smooth="yes"/>
      <point x="430" y="337"/>
    </contour>
  </outline>
</glyph>
<glyph name="percent" format="1">
  <advance width="720"/>
  <unicode hex="0025"/>
  <outline>
    <contour>
      <point x="648" y="790" type="qcurve" smooth="yes"/>
      <point x="669" y="785"/>
      <point x="669" y="770" type="qcurve" smooth="yes"/>
      <point x="669" y="763"/>
      <point x="665" y="758" type="qcurve" smooth="yes"/>
      <point x="337" y="292"/>
      <point x="124" y="27" type="qcurve" smooth="yes"/>
      <point x="108" y="9"/>
      <point x="82" y="9" type="qcurve" smooth="yes"/>
      <point x="78" y="9"/>
      <point x="70" y="11" type="qcurve" smooth="yes"/>
      <point x="51" y="15"/>
      <point x="51" y="30" type="qcurve" smooth="yes"/>
      <point x="51" y="38"/>
      <point x="56" y="43" type="qcurve" smooth="yes"/>
      <point x="268" y="307"/>
      <point x="595" y="772" type="qcurve" smooth="yes"/>
      <point x="608" y="791"/>
      <point x="638" y="791" type="qcurve" smooth="yes"/>
      <point x="645" y="791"/>
    </contour>
    <contour>
      <point x="566" y="285" type="qcurve" smooth="yes"/>
      <point x="550" y="301"/>
      <point x="537" y="301" type="qcurve" smooth="yes"/>
      <point x="534" y="301"/>
      <point x="525" y="298"/>
      <point x="503" y="269"/>
      <point x="496" y="245" type="qcurve" smooth="yes"/>
      <point x="487" y="211"/>
      <point x="487" y="175" type="qcurve" smooth="yes"/>
      <point x="487" y="148"/>
      <point x="499" y="102"/>
      <point x="516" y="74"/>
      <point x="536" y="54"/>
      <point x="551" y="46"/>
      <point x="555" y="46" type="qcurve" smooth="yes"/>
      <point x="557" y="46"/>
      <point x="565" y="49"/>
      <point x="584" y="76"/>
      <point x="591" y="100" type="qcurve" smooth="yes"/>
      <point x="601" y="132"/>
      <point x="601" y="173" type="qcurve" smooth="yes"/>
      <point x="601" y="201"/>
      <point x="584" y="253"/>
      <point x="571" y="264" type="qcurve" smooth="yes"/>
      <point x="565" y="268"/>
      <point x="565" y="278" type="qcurve" smooth="yes"/>
      <point x="565" y="283"/>
    </contour>
    <contour>
      <point x="646" y="291" type="qcurve"/>
      <point x="679" y="253"/>
      <point x="679" y="183" type="qcurve" smooth="yes"/>
      <point x="679" y="134"/>
      <point x="669" y="100" type="qcurve" smooth="yes"/>
      <point x="656" y="55"/>
      <point x="589" y="-6"/>
      <point x="539" y="-6" type="qcurve" smooth="yes"/>
      <point x="477" y="-6"/>
      <point x="409" y="90"/>
      <point x="409" y="165" type="qcurve" smooth="yes"/>
      <point x="409" y="212"/>
      <point x="419" y="245" type="qcurve" smooth="yes"/>
      <point x="433" y="292"/>
      <point x="502" y="353"/>
      <point x="553" y="353" type="qcurve" smooth="yes"/>
      <point x="609" y="353"/>
      <point x="644" y="309" type="qcurve" smooth="yes"/>
      <point x="648" y="303"/>
      <point x="648" y="298" type="qcurve" smooth="yes"/>
      <point x="648" y="295"/>
    </contour>
    <contour>
      <point x="198" y="748" type="qcurve" smooth="yes"/>
      <point x="182" y="764"/>
      <point x="169" y="764" type="qcurve" smooth="yes"/>
      <point x="166" y="764"/>
      <point x="157" y="761"/>
      <point x="135" y="732"/>
      <point x="128" y="708" type="qcurve" smooth="yes"/>
      <point x="119" y="674"/>
      <point x="119" y="638" type="qcurve" smooth="yes"/>
      <point x="119" y="611"/>
      <point x="131" y="565"/>
      <point x="148" y="537"/>
      <point x="168" y="517"/>
      <point x="183" y="509"/>
      <point x="187" y="509" type="qcurve" smooth="yes"/>
      <point x="189" y="509"/>
      <point x="197" y="512"/>
      <point x="216" y="539"/>
      <point x="223" y="563" type="qcurve" smooth="yes"/>
      <point x="233" y="595"/>
      <point x="233" y="636" type="qcurve" smooth="yes"/>
      <point x="233" y="664"/>
      <point x="216" y="716"/>
      <point x="203" y="727" type="qcurve" smooth="yes"/>
      <point x="197" y="732"/>
      <point x="197" y="741" type="qcurve" smooth="yes"/>
      <point x="197" y="746"/>
    </contour>
    <contour>
      <point x="278" y="754" type="qcurve"/>
      <point x="311" y="716"/>
      <point x="311" y="646" type="qcurve" smooth="yes"/>
      <point x="311" y="597"/>
      <point x="301" y="563" type="qcurve" smooth="yes"/>
      <point x="288" y="518"/>
      <point x="221" y="457"/>
      <point x="171" y="457" type="qcurve" smooth="yes"/>
      <point x="109" y="457"/>
      <point x="41" y="553"/>
      <point x="41" y="628" type="qcurve" smooth="yes"/>
      <point x="41" y="675"/>
      <point x="51" y="708" type="qcurve" smooth="yes"/>
      <point x="65" y="755"/>
      <point x="134" y="816"/>
      <point x="185" y="816" type="qcurve" smooth="yes"/>
      <point x="241" y="816"/>
      <point x="276" y="772" type="qcurve" smooth="yes"/>
      <point x="280" y="766"/>
      <point x="280" y="761" type="qcurve" smooth="yes"/>
      <point x="280" y="758"/>
    </contour>
  </outline>
</glyph>
<glyph name="ampersand" format="1">
  <advance width="800"/>
  <unicode hex="0026"/>
  <outline>
    <contour>
      <point x="352" y="475" type="qcurve"/>
      <point x="429" y="542"/>
      <point x="446" y="624" type="qcurve" smooth="yes"/>
      <point x="450" y="648"/>
      <point x="450" y="657" type="qcurve" smooth="yes"/>
      <point x="450" y="695"/>
      <point x="409" y="734"/>
      <point x="373" y="734" type="qcurve" smooth="yes"/>
      <point x="358" y="734"/>
      <point x="346" y="730" type="qcurve" smooth="yes"/>
      <point x="329" y="723"/>
      <point x="306" y="667"/>
      <point x="306" y="629" type="qcurve" smooth="yes"/>
      <point x="306" y="550"/>
    </contour>
    <contour>
      <point x="659" y="399" type="qcurve" smooth="yes"/>
      <point x="678" y="399"/>
      <point x="705" y="380"/>
      <point x="705" y="366" type="qcurve" smooth="yes"/>
      <point x="705" y="365"/>
      <point x="704" y="361"/>
      <point x="704" y="360" type="qcurve" smooth="yes"/>
      <point x="678" y="243"/>
      <point x="627" y="161" type="qcurve"/>
      <point x="704" y="78"/>
      <point x="751" y="34" type="qcurve" smooth="yes"/>
      <point x="759" y="27"/>
      <point x="759" y="16" type="qcurve" smooth="yes"/>
      <point x="759" y="-4"/>
      <point x="738" y="-16" type="qcurve" smooth="yes"/>
      <point x="723" y="-25"/>
      <point x="703" y="-25" type="qcurve" smooth="yes"/>
      <point x="682" y="-25"/>
      <point x="669" y="-14" type="qcurve" smooth="yes"/>
      <point x="605" y="48"/>
      <point x="570" y="85" type="qcurve"/>
      <point x="463" y="-29"/>
      <point x="302" y="-29" type="qcurve" smooth="yes"/>
      <point x="193" y="-29"/>
      <point x="66" y="74"/>
      <point x="66" y="154" type="qcurve" smooth="yes"/>
      <point x="66" y="191"/>
      <point x="99" y="263"/>
      <point x="167" y="332"/>
      <point x="226" y="382"/>
      <point x="274" y="417" type="qcurve"/>
      <point x="202" y="518"/>
      <point x="202" y="626" type="qcurve" smooth="yes"/>
      <point x="202" y="738"/>
      <point x="294" y="785" type="qcurve" smooth="yes"/>
      <point x="335" y="806"/>
      <point x="387" y="806" type="qcurve" smooth="yes"/>
      <point x="468" y="806"/>
      <point x="548" y="724"/>
      <point x="548" y="664" type="qcurve" smooth="yes"/>
      <point x="548" y="641"/>
      <point x="544" y="624" type="qcurve" smooth="yes"/>
      <point x="520" y="506"/>
      <point x="404" y="418" type="qcurve" smooth="yes"/>
      <point x="403" y="418"/>
      <point x="400" y="414"/>
      <point x="399" y="414" type="qcurve"/>
      <point x="506" y="293"/>
      <point x="556" y="237" type="qcurve"/>
      <point x="583" y="297"/>
      <point x="596" y="360" type="qcurve" smooth="yes"/>
      <point x="600" y="376"/>
      <point x="637" y="399"/>
    </contour>
    <contour>
      <point x="507" y="153" type="qcurve"/>
      <point x="387" y="284"/>
      <point x="323" y="358" type="qcurve"/>
      <point x="247" y="298"/>
      <point x="174" y="209"/>
      <point x="174" y="166" type="qcurve" smooth="yes"/>
      <point x="174" y="111"/>
      <point x="251" y="49"/>
      <point x="318" y="49" type="qcurve" smooth="yes"/>
      <point x="428" y="49"/>
    </contour>
  </outline>
</glyph>
<glyph name="quotesingle" format="1">
  <advance width="330"/>
  <unicode hex="0027"/>
  <outline>
    <contour>
      <point x="158" y="841" type="qcurve" smooth="yes"/>
      <point x="179" y="842" type="line"/>
      <point x="181" y="842" type="line" smooth="yes"/>
      <point x="198" y="842"/>
      <point x="219" y="825"/>
      <point x="219" y="814" type="qcurve" smooth="yes"/>
      <point x="217" y="627"/>
      <point x="209" y="581" type="qcurve" smooth="yes"/>
      <point x="207" y="568"/>
      <point x="169" y="544"/>
      <point x="151" y="544" type="qcurve" smooth="yes"/>
      <point x="124" y="544"/>
      <point x="121" y="573" type="qcurve" smooth="yes"/>
      <point x="119" y="595"/>
      <point x="112" y="765"/>
      <point x="110" y="803" type="qcurve" smooth="yes"/>
      <point x="110" y="805" type="line" smooth="yes"/>
      <point x="110" y="817"/>
      <point x="133" y="840"/>
    </contour>
  </outline>
</glyph>
<glyph name="parenleft" format="1">
  <advance width="360"/>
  <unicode hex="0028"/>
  <outline>
    <contour>
      <point x="262" y="-105" type="qcurve" smooth="yes"/>
      <point x="249" y="-112"/>
      <point x="235" y="-112" type="qcurve" smooth="yes"/>
      <point x="218" y="-112"/>
      <point x="207" y="-100" type="qcurve" smooth="yes"/>
      <point x="151" y="-38"/>
      <point x="55" y="236"/>
      <point x="55" y="415" type="qcurve" smooth="yes"/>
      <point x="55" y="700"/>
      <point x="209" y="874" type="qcurve" smooth="yes"/>
      <point x="225" y="892"/>
      <point x="249" y="892" type="qcurve" smooth="yes"/>
      <point x="257" y="892"/>
      <point x="266" y="889" type="qcurve" smooth="yes"/>
      <point x="281" y="884"/>
      <point x="281" y="869" type="qcurve" smooth="yes"/>
      <point x="281" y="857"/>
      <point x="271" y="846" type="qcurve" smooth="yes"/>
      <point x="145" y="704"/>
      <point x="145" y="425" type="qcurve" smooth="yes"/>
      <point x="145" y="253"/>
      <point x="229" y="-11"/>
      <point x="273" y="-60" type="qcurve" smooth="yes"/>
      <point x="280" y="-68"/>
      <point x="280" y="-79" type="qcurve" smooth="yes"/>
      <point x="280" y="-95"/>
    </contour>
  </outline>
</glyph>
<glyph name="parenright" format="1">
  <advance width="360"/>
  <unicode hex="0029"/>
  <outline>
    <contour>
      <point x="98" y="885" type="qcurve" smooth="yes"/>
      <point x="111" y="892"/>
      <point x="125" y="892" type="qcurve" smooth="yes"/>
      <point x="142" y="892"/>
      <point x="153" y="880" type="qcurve" smooth="yes"/>
      <point x="209" y="818"/>
      <point x="305" y="544"/>
      <point x="305" y="365" type="qcurve" smooth="yes"/>
      <point x="305" y="80"/>
      <point x="151" y="-94" type="qcurve" smooth="yes"/>
      <point x="135" y="-112"/>
      <point x="111" y="-112" type="qcurve" smooth="yes"/>
      <point x="103" y="-112"/>
      <point x="94" y="-109" type="qcurve" smooth="yes"/>
      <point x="79" y="-104"/>
      <point x="79" y="-89" type="qcurve" smooth="yes"/>
      <point x="79" y="-77"/>
      <point x="89" y="-66" type="qcurve" smooth="yes"/>
      <point x="215" y="76"/>
      <point x="215" y="355" type="qcurve" smooth="yes"/>
      <point x="215" y="527"/>
      <point x="131" y="791"/>
      <point x="87" y="840" type="qcurve" smooth="yes"/>
      <point x="80" y="848"/>
      <point x="80" y="859" type="qcurve" smooth="yes"/>
      <point x="80" y="875"/>
    </contour>
  </outline>
</glyph>
<glyph name="asterisk" format="1">
  <advance width="600"/>
  <unicode hex="002A"/>
  <outline>
    <contour>
      <point x="293" y="848" type="qcurve" smooth="yes"/>
      <point x="295" y="848"/>
      <point x="300" y="849"/>
      <point x="301" y="849" type="qcurve" smooth="yes"/>
      <point x="314" y="849"/>
      <point x="333" y="836"/>
      <point x="334" y="826" type="qcurve" smooth="yes"/>
      <point x="336" y="792"/>
      <point x="336" y="775" type="qcurve" smooth="yes"/>
      <point x="336" y="759"/>
      <point x="335" y="722"/>
      <point x="333" y="677"/>
      <point x="333" y="664" type="qcurve"/>
      <point x="356" y="679"/>
      <point x="438" y="737"/>
      <point x="446" y="743" type="qcurve" smooth="yes"/>
      <point x="460" y="752"/>
      <point x="477" y="752" type="qcurve" smooth="yes"/>
      <point x="492" y="752"/>
      <point x="502" y="745" type="qcurve" smooth="yes"/>
      <point x="511" y="739"/>
      <point x="511" y="729" type="qcurve" smooth="yes"/>
      <point x="511" y="716"/>
      <point x="496" y="705" type="qcurve" smooth="yes"/>
      <point x="462" y="681"/>
      <point x="358" y="623" type="qcurve"/>
      <point x="493" y="553"/>
      <point x="503" y="547" type="qcurve" smooth="yes"/>
      <point x="516" y="539"/>
      <point x="516" y="527" type="qcurve" smooth="yes"/>
      <point x="516" y="516"/>
      <point x="505" y="507" type="qcurve" smooth="yes"/>
      <point x="492" y="495"/>
      <point x="472" y="495" type="qcurve" smooth="yes"/>
      <point x="460" y="495"/>
      <point x="449" y="501" type="qcurve" smooth="yes"/>
      <point x="445" y="503"/>
      <point x="335" y="571" type="qcurve"/>
      <point x="345" y="443"/>
      <point x="345" y="424" type="qcurve" smooth="yes"/>
      <point x="345" y="413"/>
      <point x="321" y="393"/>
      <point x="305" y="392" type="qcurve" smooth="yes"/>
      <point x="300" y="392" type="line" smooth="yes"/>
      <point x="285" y="392"/>
      <point x="265" y="406"/>
      <point x="265" y="416" type="qcurve" smooth="yes"/>
      <point x="265" y="445"/>
      <point x="271" y="556"/>
      <point x="272" y="572" type="qcurve"/>
      <point x="163" y="502"/>
      <point x="151" y="495" type="qcurve" smooth="yes"/>
      <point x="138" y="488"/>
      <point x="123" y="488" type="qcurve" smooth="yes"/>
      <point x="105" y="488"/>
      <point x="96" y="497" type="qcurve" smooth="yes"/>
      <point x="89" y="504"/>
      <point x="89" y="512" type="qcurve" smooth="yes"/>
      <point x="89" y="527"/>
      <point x="107" y="537" type="qcurve" smooth="yes"/>
      <point x="133" y="552"/>
      <point x="238" y="606"/>
      <point x="257" y="617" type="qcurve"/>
      <point x="227" y="633"/>
      <point x="117" y="682"/>
      <point x="99" y="691" type="qcurve" smooth="yes"/>
      <point x="84" y="698"/>
      <point x="84" y="712" type="qcurve" smooth="yes"/>
      <point x="84" y="722"/>
      <point x="93" y="731" type="qcurve" smooth="yes"/>
      <point x="107" y="745"/>
      <point x="130" y="745" type="qcurve" smooth="yes"/>
      <point x="141" y="745"/>
      <point x="149" y="741" type="qcurve" smooth="yes"/>
      <point x="189" y="723"/>
      <point x="270" y="673" type="qcurve"/>
      <point x="268" y="700"/>
      <point x="263" y="748" type="qcurve" smooth="yes"/>
      <point x="256" y="814" type="line"/>
      <point x="256" y="815" type="line" smooth="yes"/>
      <point x="256" y="826"/>
      <point x="277" y="846"/>
    </contour>
  </outline>
</glyph>
<glyph name="plus" format="1">
  <advance width="600"/>
  <unicode hex="002B"/>
  <outline>
    <contour>
      <point x="81" y="349" type="qcurve" smooth="yes"/>
      <point x="85" y="362"/>
      <point x="113" y="380"/>
      <point x="130" y="380" type="qcurve" smooth="yes"/>
      <point x="135" y="380" type="line"/>
      <point x="203" y="374"/>
      <point x="257" y="373" type="qcurve"/>
      <point x="256" y="421"/>
      <point x="250" y="494" type="qcurve"/>
      <point x="250" y="497" type="line" smooth="yes"/>
      <point x="250" y="510"/>
      <point x="275" y="533"/>
      <point x="292" y="535" type="qcurve" smooth="yes"/>
      <point x="299" y="535" type="line" smooth="yes"/>
      <point x="315" y="535"/>
      <point x="339" y="519"/>
      <point x="340" y="506" type="qcurve" smooth="yes"/>
      <point x="345" y="451"/>
      <point x="347" y="372" type="qcurve"/>
      <point x="409" y="372"/>
      <point x="478" y="375" type="qcurve" smooth="yes"/>
      <point x="480" y="375" type="line" smooth="yes"/>
      <point x="497" y="375"/>
      <point x="520" y="356"/>
      <point x="520" y="343" type="qcurve" smooth="yes"/>
      <point x="520" y="342" type="line" smooth="yes"/>
      <point x="519" y="328"/>
      <point x="490" y="306"/>
      <point x="472" y="305" type="qcurve" smooth="yes"/>
      <point x="408" y="302"/>
      <point x="349" y="302" type="qcurve"/>
      <point x="350" y="264"/>
      <point x="350" y="184" type="qcurve" smooth="yes"/>
      <point x="350" y="170"/>
      <point x="323" y="147"/>
      <point x="305" y="145" type="qcurve" smooth="yes"/>
      <point x="300" y="145" type="line" smooth="yes"/>
      <point x="283" y="145"/>
      <point x="260" y="163"/>
      <point x="260" y="176" type="qcurve" smooth="yes"/>
      <point x="260" y="263"/>
      <point x="259" y="303" type="qcurve"/>
      <point x="171" y="305"/>
      <point x="115" y="310" type="qcurve" smooth="yes"/>
      <point x="100" y="311"/>
      <point x="80" y="330"/>
      <point x="80" y="342" type="qcurve" smooth="yes"/>
      <point x="80" y="347"/>
    </contour>
  </outline>
</glyph>
<glyph name="hyphen" format="1">
  <advance width="600"/>
  <unicode hex="002D"/>
  <outline>
    <contour>
      <point x="77" y="349" type="qcurve" smooth="yes"/>
      <point x="82" y="363"/>
      <point x="114" y="381"/>
      <point x="133" y="381" type="qcurve" smooth="yes"/>
      <point x="138" y="381" type="line"/>
      <point x="223" y="373"/>
      <point x="337" y="373" type="qcurve" smooth="yes"/>
      <point x="405" y="373"/>
      <point x="480" y="376" type="qcurve" smooth="yes"/>
      <point x="482" y="376" type="line" smooth="yes"/>
      <point x="500" y="376"/>
      <point x="524" y="359"/>
      <point x="524" y="346" type="qcurve" smooth="yes"/>
      <point x="524" y="342" type="line" smooth="yes"/>
      <point x="522" y="328"/>
      <point x="490" y="305"/>
      <point x="470" y="304" type="qcurve" smooth="yes"/>
      <point x="392" y="301"/>
      <point x="322" y="301" type="qcurve" smooth="yes"/>
      <point x="205" y="301"/>
      <point x="112" y="309" type="qcurve" smooth="yes"/>
      <point x="96" y="310"/>
      <point x="75" y="328"/>
      <point x="75" y="340" type="qcurve" smooth="yes"/>
      <point x="75" y="343"/>
    </contour>
  </outline>
</glyph>
<glyph name="period" format="1">
  <advance width="330"/>
  <unicode hex="002E"/>
  <outline>
    <contour>
      <point x="231" y="112" type="qcurve" smooth="yes"/>
      <point x="249" y="94"/>
      <point x="249" y="71" type="qcurve" smooth="yes"/>
      <point x="249" y="62"/>
      <point x="248" y="58" type="qcurve" smooth="yes"/>
      <point x="244" y="35"/>
      <point x="193" y="-5"/>
      <point x="155" y="-5" type="qcurve" smooth="yes"/>
      <point x="120" y="-5"/>
      <point x="81" y="31"/>
      <point x="81" y="56" type="qcurve" smooth="yes"/>
      <point x="81" y="80"/>
      <point x="127" y="132"/>
      <point x="175" y="132" type="qcurve" smooth="yes"/>
      <point x="183" y="132"/>
      <point x="191" y="130" type="qcurve" smooth="yes"/>
      <point x="207" y="126" type="line" smooth="yes"/>
      <point x="223" y="121"/>
    </contour>
  </outline>
</glyph>
<glyph name="slash" format="1">
  <advance width="480"/>
  <unicode hex="002F"/>
  <outline>
    <contour>
      <point x="409" y="828" type="line" smooth="yes"/>
      <point x="439" y="826"/>
      <point x="439" y="804" type="qcurve" smooth="yes"/>
      <point x="439" y="799"/>
      <point x="438" y="797" type="qcurve" smooth="yes"/>
      <point x="299" y="373"/>
      <point x="117" y="-6" type="qcurve" smooth="yes"/>
      <point x="106" y="-29"/>
      <point x="74" y="-29" type="qcurve" smooth="yes"/>
      <point x="73" y="-29"/>
      <point x="68" y="-28"/>
      <point x="67" y="-28" type="qcurve" smooth="yes"/>
      <point x="55" y="-27"/>
      <point x="41" y="-12"/>
      <point x="41" y="-3" type="qcurve" smooth="yes"/>
      <point x="41" y="0"/>
      <point x="43" y="6" type="qcurve" smooth="yes"/>
      <point x="225" y="389"/>
      <point x="362" y="803" type="qcurve" smooth="yes"/>
      <point x="370" y="828"/>
      <point x="406" y="828" type="qcurve" smooth="yes"/>
    </contour>
  </outline>
</glyph>
<glyph name="zero" format="1">
  <advance width="720"/>
  <unicode hex="0030"/>
  <outline>
    <contour>
      <point x="567" y="685" type="qcurve"/>
      <point x="654" y="594"/>
      <point x="654" y="416" type="qcurve" smooth="yes"/>
      <point x="654" y="224"/>
      <point x="513" y="-9"/>
      <point x="386" y="-22" type="qcurve" smooth="yes"/>
      <point x="366" y="-24"/>
      <point x="357" y="-24" type="qcurve" smooth="yes"/>
      <point x="228" y="-24"/>
      <point x="66" y="204"/>
      <point x="66" y="384" type="qcurve" smooth="yes"/>
      <point x="66" y="703"/>
      <point x="257" y="795" type="qcurve" smooth="yes"/>
      <point x="310" y="821"/>
      <point x="368" y="821" type="qcurve" smooth="yes"/>
      <point x="427" y="821"/>
      <point x="532" y="768"/>
      <point x="568" y="723" type="qcurve" smooth="yes"/>
      <point x="574" y="716"/>
      <point x="574" y="705" type="qcurve" smooth="yes"/>
      <point x="574" y="693"/>
    </contour>
    <contour>
      <point x="464" y="686" type="qcurve"/>
      <point x="415" y="742"/>
      <point x="355" y="742" type="qcurve" smooth="yes"/>
      <point x="326" y="742"/>
      <point x="304" y="730" type="qcurve" smooth="yes"/>
      <point x="253" y="704"/>
      <point x="174" y="535"/>
      <point x="174" y="396" type="qcurve" smooth="yes"/>
      <point x="174" y="310"/>
      <point x="217" y="172"/>
      <point x="283" y="96"/>
      <point x="350" y="56"/>
      <point x="379" y="56" type="qcurve" smooth="yes"/>
      <point x="386" y="56" type="line" smooth="yes"/>
      <point x="403" y="58"/>
      <point x="442" y="80"/>
      <point x="487" y="133"/>
      <point x="522" y="208"/>
      <point x="546" y="330"/>
      <point x="546" y="478"/>
      <point x="502" y="612"/>
      <point x="466" y="642" type="qcurve" smooth="yes"/>
      <point x="456" y="651"/>
      <point x="456" y="677"/>
    </contour>
  </outline>
</glyph>
<glyph name="one" format="1">
  <advance width="720"/>
  <unicode hex="0031"/>
  <outline>
    <contour>
      <point x="130" y="610" type="qcurve" smooth="yes"/>
      <point x="126" y="615"/>
      <point x="126" y="624" type="qcurve" smooth="yes"/>
      <point x="126" y="651"/>
      <point x="159" y="664" type="qcurve" smooth="yes"/>
      <point x="313" y="726"/>
      <point x="384" y="791" type="qcurve"/>
      <point x="420" y="812"/>
      <point x="448" y="812" type="qcurve" smooth="yes"/>
      <point x="479" y="812"/>
      <point x="479" y="778" type="qcurve" smooth="yes"/>
      <point x="479" y="775" type="line"/>
      <point x="472" y="579"/>
      <point x="472" y="440" type="qcurve" smooth="yes"/>
      <point x="472" y="333"/>
      <point x="479" y="97" type="qcurve" smooth="yes"/>
      <point x="479" y="87"/>
      <point x="515" y="80"/>
      <point x="611" y="74"/>
      <point x="649" y="68" type="qcurve" smooth="yes"/>
      <point x="656" y="67"/>
      <point x="687" y="34"/>
      <point x="687" y="19" type="qcurve" smooth="yes"/>
      <point x="687" y="-9"/>
      <point x="623" y="-9" type="qcurve" smooth="yes"/>
      <point x="621" y="-9" type="line"/>
      <point x="549" y="-9" type="line" smooth="yes"/>
      <point x="420" y="-9"/>
      <point x="175" y="-19" type="qcurve"/>
      <point x="172" y="-19" type="line" smooth="yes"/>
      <point x="152" y="-19"/>
      <point x="126" y="0"/>
      <point x="126" y="14" type="qcurve" smooth="yes"/>
      <point x="126" y="18" type="line" smooth="yes"/>
      <point x="128" y="34"/>
      <point x="163" y="58"/>
      <point x="185" y="59" type="qcurve" smooth="yes"/>
      <point x="367" y="67"/>
      <point x="373" y="67" type="qcurve"/>
      <point x="371" y="75"/>
      <point x="371" y="83" type="qcurve" smooth="yes"/>
      <point x="364" y="321"/>
      <point x="364" y="429" type="qcurve" smooth="yes"/>
      <point x="364" y="547"/>
      <point x="368" y="676" type="qcurve"/>
      <point x="306" y="638"/>
      <point x="201" y="596" type="qcurve" smooth="yes"/>
      <point x="190" y="591"/>
      <point x="174" y="591" type="qcurve" smooth="yes"/>
      <point x="141" y="591"/>
    </contour>
  </outline>
</glyph>
<glyph name="two" format="1">
  <advance width="720"/>
  <unicode hex="0032"/>
  <outline>
    <contour>
      <point x="111" y="622" type="qcurve" smooth="yes"/>
      <point x="81" y="628"/>
      <point x="81" y="654" type="qcurve" smooth="yes"/>
      <point x="81" y="664"/>
      <point x="86" y="672" type="qcurve" smooth="yes"/>
      <point x="123" y="732"/>
      <point x="258" y="809"/>
      <point x="335" y="817" type="qcurve" smooth="yes"/>
      <point x="361" y="819"/>
      <point x="373" y="819" type="qcurve" smooth="yes"/>
      <point x="474" y="819"/>
      <point x="609" y="706"/>
      <point x="609" y="606" type="qcurve" smooth="yes"/>
      <point x="609" y="537"/>
      <point x="523" y="411"/>
      <point x="399" y="316"/>
      <point x="275" y="229"/>
      <point x="184" y="130"/>
      <point x="180" y="81" type="qcurve"/>
      <point x="217" y="71"/>
      <point x="328" y="71" type="qcurve" smooth="yes"/>
      <point x="483" y="71"/>
      <point x="595" y="84" type="qcurve"/>
      <point x="603" y="84" type="line" smooth="yes"/>
      <point x="623" y="84"/>
      <point x="649" y="65"/>
      <point x="649" y="51" type="qcurve" smooth="yes"/>
      <point x="649" y="35"/>
      <point x="617" y="8"/>
      <point x="595" y="6" type="qcurve" smooth="yes"/>
      <point x="402" y="-13"/>
      <point x="303" y="-13" type="qcurve" smooth="yes"/>
      <point x="131" y="-13"/>
      <point x="86" y="28" type="qcurve" smooth="yes"/>
      <point x="71" y="43"/>
      <point x="71" y="59" type="qcurve" smooth="yes"/>
      <point x="71" y="106"/>
      <point x="108" y="193"/>
      <point x="168" y="260"/>
      <point x="246" y="327"/>
      <point x="326" y="381"/>
      <point x="404" y="441"/>
      <point x="464" y="495"/>
      <point x="501" y="561"/>
      <point x="501" y="594" type="qcurve" smooth="yes"/>
      <point x="501" y="669"/>
      <point x="416" y="740"/>
      <point x="356" y="740" type="qcurve" smooth="yes"/>
      <point x="342" y="740"/>
      <point x="335" y="739" type="qcurve" smooth="yes"/>
      <point x="235" y="728"/>
      <point x="184" y="648" type="qcurve" smooth="yes"/>
      <point x="165" y="620"/>
      <point x="126" y="620" type="qcurve" smooth="yes"/>
      <point x="121" y="620"/>
    </contour>
  </outline>
</glyph>
<glyph name="three" format="1">
  <advance width="720"/>
  <unicode hex="0033"/>
  <outline>
    <contour>
      <point x="103" y="633" type="qcurve" smooth="yes"/>
      <point x="76" y="641"/>
      <point x="76" y="664" type="qcurve" smooth="yes"/>
      <point x="76" y="674"/>
      <point x="83" y="684" type="qcurve" smooth="yes"/>
      <point x="123" y="740"/>
      <point x="256" y="810"/>
      <point x="329" y="818" type="qcurve" smooth="yes"/>
      <point x="355" y="820"/>
      <point x="366" y="820" type="qcurve" smooth="yes"/>
      <point x="466" y="820"/>
      <point x="599" y="712"/>
      <point x="599" y="616" type="qcurve" smooth="yes"/>
      <point x="599" y="506"/>
      <point x="488" y="436" type="qcurve"/>
      <point x="559" y="421"/>
      <point x="654" y="318"/>
      <point x="654" y="154"/>
      <point x="575" y="34"/>
      <point x="504" y="3" type="qcurve" smooth="yes"/>
      <point x="437" y="-27"/>
      <point x="355" y="-27" type="qcurve" smooth="yes"/>
      <point x="267" y="-27"/>
      <point x="111" y="42"/>
      <point x="71" y="98" type="qcurve" smooth="yes"/>
      <point x="66" y="104"/>
      <point x="66" y="114" type="qcurve" smooth="yes"/>
      <point x="66" y="139"/>
      <point x="97" y="153" type="qcurve" smooth="yes"/>
      <point x="115" y="160"/>
      <point x="128" y="160" type="qcurve" smooth="yes"/>
      <point x="156" y="160"/>
      <point x="169" y="142" type="qcurve" smooth="yes"/>
      <point x="198" y="100"/>
      <point x="313" y="54"/>
      <point x="374" y="54" type="qcurve" smooth="yes"/>
      <point x="422" y="54"/>
      <point x="458" y="69" type="qcurve" smooth="yes"/>
      <point x="546" y="107"/>
      <point x="546" y="224" type="qcurve" smooth="yes"/>
      <point x="546" y="372"/>
      <point x="376" y="372" type="qcurve" smooth="yes"/>
      <point x="342" y="372"/>
      <point x="290" y="366" type="qcurve" smooth="yes"/>
      <point x="235" y="361"/>
      <point x="232" y="361" type="qcurve" smooth="yes"/>
      <point x="203" y="361"/>
      <point x="203" y="382" type="qcurve" smooth="yes"/>
      <point x="203" y="392"/>
      <point x="216" y="420"/>
      <point x="222" y="428" type="qcurve" smooth="yes"/>
      <point x="229" y="437" type="line"/>
      <point x="243" y="441"/>
      <point x="306" y="450"/>
      <point x="357" y="458"/>
      <point x="419" y="480"/>
      <point x="462" y="510"/>
      <point x="491" y="566"/>
      <point x="491" y="604" type="qcurve" smooth="yes"/>
      <point x="491" y="674"/>
      <point x="410" y="741"/>
      <point x="351" y="741" type="qcurve" smooth="yes"/>
      <point x="336" y="741"/>
      <point x="329" y="740" type="qcurve" smooth="yes"/>
      <point x="230" y="729"/>
      <point x="177" y="656" type="qcurve" smooth="yes"/>
      <point x="158" y="630"/>
      <point x="121" y="630" type="qcurve" smooth="yes"/>
      <point x="112" y="630"/>
    </contour>
  </outline>
</glyph>
<glyph name="four" format="1">
  <advance width="720"/>
  <unicode hex="0034"/>
  <outline>
    <contour>
      <point x="330" y="829" type="qcurve" smooth="yes"/>
      <point x="338" y="829" type="line" smooth="yes"/>
      <point x="358" y="829"/>
      <point x="384" y="810"/>
      <point x="384" y="796" type="qcurve" smooth="yes"/>
      <point x="384" y="744"/>
      <point x="365" y="641"/>
      <point x="328" y="545"/>
      <point x="293" y="468"/>
      <point x="238" y="382"/>
      <point x="208" y="337"/>
      <point x="155" y="267"/>
      <point x="152" y="262" type="qcurve"/>
      <point x="209" y="253"/>
      <point x="307" y="253" type="qcurve" smooth="yes"/>
      <point x="387" y="253"/>
      <point x="456" y="257" type="qcurve"/>
      <point x="456" y="283"/>
      <point x="455" y="393"/>
      <point x="455" y="420" type="qcurve" smooth="yes"/>
      <point x="455" y="448"/>
      <point x="456" y="552"/>
      <point x="456" y="575" type="qcurve" smooth="yes"/>
      <point x="456" y="591"/>
      <point x="488" y="617"/>
      <point x="510" y="619" type="qcurve" smooth="yes"/>
      <point x="517" y="619" type="line" smooth="yes"/>
      <point x="537" y="619"/>
      <point x="564" y="599"/>
      <point x="564" y="585" type="qcurve" smooth="yes"/>
      <point x="564" y="562"/>
      <point x="563" y="456"/>
      <point x="563" y="400"/>
      <point x="564" y="290"/>
      <point x="564" y="263" type="qcurve"/>
      <point x="589" y="265"/>
      <point x="637" y="269" type="qcurve"/>
      <point x="642" y="269" type="line" smooth="yes"/>
      <point x="662" y="269"/>
      <point x="689" y="249"/>
      <point x="689" y="235" type="qcurve" smooth="yes"/>
      <point x="689" y="234" type="line" smooth="yes"/>
      <point x="688" y="218"/>
      <point x="655" y="192"/>
      <point x="633" y="191" type="qcurve" smooth="yes"/>
      <point x="621" y="190"/>
      <point x="574" y="187"/>
      <point x="564" y="186" type="qcurve"/>
      <point x="565" y="83"/>
      <point x="569" y="17" type="qcurve"/>
      <point x="569" y="16" type="line" smooth="yes"/>
      <point x="569" y="0"/>
      <point x="539" y="-26"/>
      <point x="517" y="-29" type="qcurve" smooth="yes"/>
      <point x="516" y="-29"/>
      <point x="508" y="-30"/>
      <point x="507" y="-30" type="qcurve" smooth="yes"/>
      <point x="488" y="-30"/>
      <point x="462" y="-11"/>
      <point x="461" y="3" type="qcurve" smooth="yes"/>
      <point x="457" y="72"/>
      <point x="456" y="179" type="qcurve"/>
      <point x="363" y="174"/>
      <point x="286" y="174" type="qcurve" smooth="yes"/>
      <point x="31" y="174"/>
      <point x="31" y="234" type="qcurve" smooth="yes"/>
      <point x="31" y="255"/>
      <point x="81" y="332"/>
      <point x="153" y="431"/>
      <point x="225" y="549"/>
      <point x="276" y="705"/>
      <point x="276" y="784" type="qcurve" smooth="yes"/>
      <point x="276" y="800"/>
      <point x="308" y="827"/>
    </contour>
  </outline>
</glyph>
<glyph name="five" format="1">
  <advance width="720"/>
  <unicode hex="0035"/>
  <outline>
    <contour>
      <point x="109" y="154" type="qcurve" smooth="yes"/>
      <point x="122" y="160"/>
      <point x="137" y="160" type="qcurve" smooth="yes"/>
      <point x="167" y="160"/>
      <point x="180" y="141" type="qcurve" smooth="yes"/>
      <point x="205" y="102"/>
      <point x="313" y="53"/>
      <point x="369" y="53" type="qcurve" smooth="yes"/>
      <point x="384" y="53"/>
      <point x="391" y="54" type="qcurve" smooth="yes"/>
      <point x="454" y="60"/>
      <point x="541" y="147"/>
      <point x="541" y="244" type="qcurve" smooth="yes"/>
      <point x="541" y="327"/>
      <point x="500" y="370" type="qcurve" smooth="yes"/>
      <point x="462" y="409"/>
      <point x="389" y="409" type="qcurve" smooth="yes"/>
      <point x="295" y="409"/>
      <point x="189" y="350" type="qcurve" smooth="yes"/>
      <point x="160" y="334"/>
      <point x="136" y="334" type="qcurve" smooth="yes"/>
      <point x="106" y="334"/>
      <point x="106" y="368" type="qcurve" smooth="yes"/>
      <point x="106" y="377" type="line"/>
      <point x="128" y="608"/>
      <point x="128" y="696" type="qcurve" smooth="yes"/>
      <point x="128" y="719"/>
      <point x="126" y="757" type="qcurve" smooth="yes"/>
      <point x="125" y="760"/>
      <point x="125" y="764" type="qcurve" smooth="yes"/>
      <point x="125" y="773"/>
      <point x="131" y="789"/>
      <point x="157" y="805"/>
      <point x="178" y="805" type="qcurve" smooth="yes"/>
      <point x="190" y="805"/>
      <point x="197" y="804" type="qcurve" smooth="yes"/>
      <point x="281" y="794"/>
      <point x="383" y="794" type="qcurve" smooth="yes"/>
      <point x="499" y="794"/>
      <point x="567" y="804" type="qcurve" smooth="yes"/>
      <point x="568" y="804"/>
      <point x="576" y="805"/>
      <point x="577" y="805" type="qcurve" smooth="yes"/>
      <point x="596" y="805"/>
      <point x="623" y="787"/>
      <point x="624" y="773" type="qcurve" smooth="yes"/>
      <point x="624" y="770" type="line" smooth="yes"/>
      <point x="624" y="755"/>
      <point x="595" y="729"/>
      <point x="573" y="726" type="qcurve" smooth="yes"/>
      <point x="507" y="716"/>
      <point x="367" y="716" type="qcurve" smooth="yes"/>
      <point x="293" y="716"/>
      <point x="236" y="719" type="qcurve"/>
      <point x="236" y="704" type="line" smooth="yes"/>
      <point x="236" y="597"/>
      <point x="221" y="451" type="qcurve"/>
      <point x="315" y="487"/>
      <point x="407" y="487" type="qcurve" smooth="yes"/>
      <point x="562" y="487"/>
      <point x="620" y="383" type="qcurve" smooth="yes"/>
      <point x="649" y="331"/>
      <point x="649" y="256" type="qcurve" smooth="yes"/>
      <point x="649" y="136"/>
      <point x="504" y="-12"/>
      <point x="391" y="-24" type="qcurve" smooth="yes"/>
      <point x="363" y="-26"/>
      <point x="351" y="-26" type="qcurve" smooth="yes"/>
      <point x="265" y="-26"/>
      <point x="116" y="42"/>
      <point x="80" y="99" type="qcurve" smooth="yes"/>
      <point x="76" y="104"/>
      <point x="76" y="113" type="qcurve" smooth="yes"/>
      <point x="76" y="125"/>
      <point x="94" y="148"/>
    </contour>
  </outline>
</glyph>
<glyph name="six" format="1">
  <advance width="720"/>
  <unicode hex="0036"/>
  <outline>
    <contour>
      <point x="45" y="262" type="qcurve" smooth="yes"/>
      <point x="32" y="269"/>
      <point x="32" y="282" type="qcurve" smooth="yes"/>
      <point x="32" y="297"/>
      <point x="52" y="314" type="qcurve" smooth="yes"/>
      <point x="72" y="330"/>
      <point x="82" y="337" type="qcurve" smooth="yes"/>
      <point x="84" y="338"/>
      <point x="93" y="344"/>
      <point x="95" y="346" type="qcurve" smooth="yes"/>
      <point x="96" y="350"/>
      <point x="98" y="364"/>
      <point x="99" y="368" type="qcurve" smooth="yes"/>
      <point x="121" y="484"/>
      <point x="263" y="715"/>
      <point x="381" y="813" type="qcurve" smooth="yes"/>
      <point x="402" y="829"/>
      <point x="429" y="829" type="qcurve" smooth="yes"/>
      <point x="447" y="829"/>
      <point x="458" y="822" type="qcurve" smooth="yes"/>
      <point x="474" y="812"/>
      <point x="474" y="795" type="qcurve" smooth="yes"/>
      <point x="474" y="779"/>
      <point x="459" y="767" type="qcurve" smooth="yes"/>
      <point x="278" y="617"/>
      <point x="219" y="423" type="qcurve"/>
      <point x="328" y="476"/>
      <point x="423" y="476" type="qcurve" smooth="yes"/>
      <point x="543" y="476"/>
      <point x="668" y="335"/>
      <point x="668" y="240" type="qcurve" smooth="yes"/>
      <point x="668" y="216"/>
      <point x="663" y="188" type="qcurve" smooth="yes"/>
      <point x="645" y="101"/>
      <point x="492" y="-29"/>
      <point x="367" y="-29" type="qcurve" smooth="yes"/>
      <point x="237" y="-29"/>
      <point x="96" y="131"/>
      <point x="90" y="251" type="qcurve"/>
      <point x="86" y="251" type="line" smooth="yes"/>
      <point x="63" y="251"/>
    </contour>
    <contour>
      <point x="199" y="318" type="qcurve"/>
      <point x="199" y="306" type="line" smooth="yes"/>
      <point x="199" y="302"/>
      <point x="198" y="288"/>
      <point x="198" y="285" type="qcurve" smooth="yes"/>
      <point x="198" y="176"/>
      <point x="302" y="49"/>
      <point x="383" y="49" type="qcurve" smooth="yes"/>
      <point x="455" y="49"/>
      <point x="543" y="122"/>
      <point x="556" y="187" type="qcurve" smooth="yes"/>
      <point x="560" y="206"/>
      <point x="560" y="228" type="qcurve" smooth="yes"/>
      <point x="560" y="298"/>
      <point x="473" y="397"/>
      <point x="407" y="397" type="qcurve" smooth="yes"/>
      <point x="328" y="397"/>
      <point x="221" y="332" type="qcurve" smooth="yes"/>
      <point x="209" y="325"/>
    </contour>
  </outline>
</glyph>
<glyph name="seven" format="1">
  <advance width="720"/>
  <unicode hex="0037"/>
  <outline>
    <contour>
      <point x="368" y="794" type="qcurve" smooth="yes"/>
      <point x="440" y="794"/>
      <point x="603" y="804" type="qcurve" smooth="yes"/>
      <point x="608" y="805"/>
      <point x="615" y="805" type="qcurve" smooth="yes"/>
      <point x="658" y="805"/>
      <point x="658" y="779" type="qcurve" smooth="yes"/>
      <point x="658" y="770"/>
      <point x="651" y="756" type="qcurve" smooth="yes"/>
      <point x="551" y="567"/>
      <point x="433" y="244"/>
      <point x="383" y="19" type="qcurve" smooth="yes"/>
      <point x="379" y="3"/>
      <point x="342" y="-19"/>
      <point x="320" y="-19" type="qcurve" smooth="yes"/>
      <point x="301" y="-19"/>
      <point x="274" y="1"/>
      <point x="274" y="15" type="qcurve" smooth="yes"/>
      <point x="274" y="16"/>
      <point x="275" y="20"/>
      <point x="275" y="21" type="qcurve" smooth="yes"/>
      <point x="322" y="233"/>
      <point x="434" y="547"/>
      <point x="522" y="721" type="qcurve"/>
      <point x="444" y="716"/>
      <point x="352" y="716" type="qcurve" smooth="yes"/>
      <point x="332" y="716"/>
      <point x="182" y="725" type="qcurve"/>
      <point x="202" y="644"/>
      <point x="209" y="599" type="qcurve"/>
      <point x="209" y="595" type="line" smooth="yes"/>
      <point x="209" y="582"/>
      <point x="184" y="559"/>
      <point x="165" y="555" type="qcurve" smooth="yes"/>
      <point x="161" y="554"/>
      <point x="153" y="554" type="qcurve" smooth="yes"/>
      <point x="116" y="554"/>
      <point x="111" y="581" type="qcurve" smooth="yes"/>
      <point x="107" y="609"/>
      <point x="71" y="754" type="qcurve" smooth="yes"/>
      <point x="69" y="759"/>
      <point x="69" y="766" type="qcurve" smooth="yes"/>
      <point x="69" y="801"/>
      <point x="123" y="801" type="qcurve" smooth="yes"/>
      <point x="130" y="801" type="line"/>
      <point x="298" y="794"/>
    </contour>
  </outline>
</glyph>
<glyph name="eight" format="1">
  <advance width="720"/>
  <unicode hex="0038"/>
  <outline>
    <contour>
      <point x="242" y="428" type="qcurve"/>
      <point x="165" y="463"/>
      <point x="87" y="560"/>
      <point x="87" y="613" type="qcurve" smooth="yes"/>
      <point x="87" y="628"/>
      <point x="90" y="643" type="qcurve" smooth="yes"/>
      <point x="104" y="714"/>
      <point x="251" y="819"/>
      <point x="348" y="819" type="qcurve" smooth="yes"/>
      <point x="505" y="819"/>
      <point x="588" y="713" type="qcurve" smooth="yes"/>
      <point x="594" y="706"/>
      <point x="594" y="696" type="qcurve" smooth="yes"/>
      <point x="594" y="672"/>
      <point x="565" y="658" type="qcurve" smooth="yes"/>
      <point x="551" y="651"/>
      <point x="533" y="651" type="qcurve" smooth="yes"/>
      <point x="506" y="651"/>
      <point x="492" y="667" type="qcurve" smooth="yes"/>
      <point x="431" y="741"/>
      <point x="332" y="741" type="qcurve" smooth="yes"/>
      <point x="284" y="741"/>
      <point x="206" y="685"/>
      <point x="197" y="643" type="qcurve" smooth="yes"/>
      <point x="195" y="631"/>
      <point x="195" y="625" type="qcurve" smooth="yes"/>
      <point x="195" y="538"/>
      <point x="333" y="486" type="qcurve" smooth="yes"/>
      <point x="337" y="488"/>
      <point x="352" y="499"/>
      <point x="356" y="502" type="qcurve" smooth="yes"/>
      <point x="516" y="607" type="line" smooth="yes"/>
      <point x="536" y="620"/>
      <point x="558" y="620" type="qcurve" smooth="yes"/>
      <point x="579" y="620"/>
      <point x="593" y="609" type="qcurve" smooth="yes"/>
      <point x="604" y="601"/>
      <point x="604" y="587" type="qcurve" smooth="yes"/>
      <point x="604" y="568"/>
      <point x="585" y="554" type="qcurve" smooth="yes"/>
      <point x="577" y="546"/>
      <point x="436" y="455" type="qcurve"/>
      <point x="544" y="419"/>
      <point x="659" y="286"/>
      <point x="659" y="211" type="qcurve" smooth="yes"/>
      <point x="659" y="143"/>
      <point x="614" y="86" type="qcurve" smooth="yes"/>
      <point x="575" y="36"/>
      <point x="437" y="-24"/>
      <point x="352" y="-24" type="qcurve" smooth="yes"/>
      <point x="225" y="-24"/>
      <point x="76" y="105"/>
      <point x="76" y="188" type="qcurve" smooth="yes"/>
      <point x="76" y="261"/>
      <point x="165" y="376"/>
    </contour>
    <contour>
      <point x="340" y="394" type="qcurve" smooth="yes"/>
      <point x="256" y="339"/>
      <point x="184" y="258"/>
      <point x="184" y="200" type="qcurve" smooth="yes"/>
      <point x="184" y="143"/>
      <point x="287" y="54"/>
      <point x="368" y="54" type="qcurve" smooth="yes"/>
      <point x="480" y="54"/>
      <point x="528" y="127" type="qcurve" smooth="yes"/>
      <point x="549" y="158"/>
      <point x="549" y="200" type="qcurve" smooth="yes"/>
      <point x="549" y="261"/>
      <point x="448" y="368"/>
      <point x="346" y="393" type="qcurve" smooth="yes"/>
      <point x="345" y="393"/>
      <point x="341" y="394"/>
    </contour>
  </outline>
</glyph>
<glyph name="nine" format="1">
  <advance width="720"/>
  <unicode hex="0039"/>
  <outline>
    <contour>
      <point x="675" y="538" type="qcurve" smooth="yes"/>
      <point x="688" y="531"/>
      <point x="688" y="518" type="qcurve" smooth="yes"/>
      <point x="688" y="503"/>
      <point x="668" y="486" type="qcurve" smooth="yes"/>
      <point x="648" y="470"/>
      <point x="638" y="463" type="qcurve" smooth="yes"/>
      <point x="636" y="462"/>
      <point x="627" y="456"/>
      <point x="625" y="454" type="qcurve" smooth="yes"/>
      <point x="624" y="450"/>
      <point x="622" y="436"/>
      <point x="621" y="432" type="qcurve" smooth="yes"/>
      <point x="599" y="316"/>
      <point x="457" y="85"/>
      <point x="339" y="-13" type="qcurve" smooth="yes"/>
      <point x="318" y="-29"/>
      <point x="291" y="-29" type="qcurve" smooth="yes"/>
      <point x="273" y="-29"/>
      <point x="262" y="-22" type="qcurve" smooth="yes"/>
      <point x="246" y="-12"/>
      <point x="246" y="5" type="qcurve" smooth="yes"/>
      <point x="246" y="21"/>
      <point x="261" y="33" type="qcurve" smooth="yes"/>
      <point x="442" y="183"/>
      <point x="501" y="377" type="qcurve"/>
      <point x="392" y="324"/>
      <point x="297" y="324" type="qcurve" smooth="yes"/>
      <point x="177" y="324"/>
      <point x="52" y="465"/>
      <point x="52" y="560" type="qcurve" smooth="yes"/>
      <point x="52" y="584"/>
      <point x="57" y="612" type="qcurve" smooth="yes"/>
      <point x="75" y="699"/>
      <point x="228" y="829"/>
      <point x="353" y="829" type="qcurve" smooth="yes"/>
      <point x="483" y="829"/>
      <point x="624" y="669"/>
      <point x="630" y="549" type="qcurve"/>
      <point x="634" y="549" type="line" smooth="yes"/>
      <point x="657" y="549"/>
    </contour>
    <contour>
      <point x="521" y="482" type="qcurve"/>
      <point x="521" y="494" type="line" smooth="yes"/>
      <point x="521" y="498"/>
      <point x="522" y="512"/>
      <point x="522" y="515" type="qcurve" smooth="yes"/>
      <point x="522" y="624"/>
      <point x="418" y="751"/>
      <point x="337" y="751" type="qcurve" smooth="yes"/>
      <point x="265" y="751"/>
      <point x="177" y="678"/>
      <point x="164" y="613" type="qcurve" smooth="yes"/>
      <point x="160" y="594"/>
      <point x="160" y="572" type="qcurve" smooth="yes"/>
      <point x="160" y="502"/>
      <point x="247" y="403"/>
      <point x="313" y="403" type="qcurve" smooth="yes"/>
      <point x="392" y="403"/>
      <point x="499" y="468" type="qcurve" smooth="yes"/>
      <point x="511" y="475"/>
    </contour>
  </outline>
</glyph>
<glyph name="colon" format="1">
  <advance width="330"/>
  <unicode hex="003A"/>
  <outline>
    <contour>
      <point x="231" y="592" type="qcurve" smooth="yes"/>
      <point x="249" y="574"/>
      <point x="249" y="551" type="qcurve" smooth="yes"/>
      <point x="249" y="542"/>
      <point x="248" y="538" type="qcurve" smooth="yes"/>
      <point x="244" y="515"/>
      <point x="193" y="475"/>
      <point x="155" y="475" type="qcurve" smooth="yes"/>
      <point x="120" y="475"/>
      <point x="81" y="511"/>
      <point x="81" y="536" type="qcurve" smooth="yes"/>
      <point x="81" y="560"/>
      <point x="127" y="612"/>
      <point x="175" y="612" type="qcurve" smooth="yes"/>
      <point x="183" y="612"/>
      <point x="191" y="610" type="qcurve" smooth="yes"/>
      <point x="207" y="606" type="line" smooth="yes"/>
      <point x="223" y="601"/>
    </contour>
    <contour>
      <point x="231" y="112" type="qcurve" smooth="yes"/>
      <point x="249" y="94"/>
      <point x="249" y="71" type="qcurve" smooth="yes"/>
      <point x="249" y="62"/>
      <point x="248" y="58" type="qcurve" smooth="yes"/>
      <point x="244" y="35"/>
      <point x="193" y="-5"/>
      <point x="155" y="-5" type="qcurve" smooth="yes"/>
      <point x="120" y="-5"/>
      <point x="81" y="31"/>
      <point x="81" y="56" type="qcurve" smooth="yes"/>
      <point x="81" y="80"/>
      <point x="127" y="132"/>
      <point x="175" y="132" type="qcurve" smooth="yes"/>
      <point x="183" y="132"/>
      <point x="191" y="130" type="qcurve" smooth="yes"/>
      <point x="207" y="126" type="line" smooth="yes"/>
      <point x="223" y="121"/>
    </contour>
  </outline>
</glyph>
<glyph name="less" format="1">
  <advance width="600"/>
  <unicode hex="003C"/>
  <outline>
    <contour>
      <point x="521" y="80" type="qcurve" smooth="yes"/>
      <point x="504" y="65"/>
      <point x="478" y="65" type="qcurve" smooth="yes"/>
      <point x="463" y="65"/>
      <point x="451" y="71" type="qcurve" smooth="yes"/>
      <point x="386" y="108"/>
      <point x="163" y="252"/>
      <point x="78" y="313" type="qcurve" smooth="yes"/>
      <point x="63" y="323"/>
      <point x="63" y="337" type="qcurve" smooth="yes"/>
      <point x="63" y="353"/>
      <point x="89" y="367" type="qcurve" smooth="yes"/>
      <point x="207" y="432"/>
      <point x="443" y="603" type="qcurve" smooth="yes"/>
      <point x="461" y="616"/>
      <point x="482" y="616" type="qcurve" smooth="yes"/>
      <point x="500" y="616"/>
      <point x="524" y="598"/>
      <point x="524" y="586" type="qcurve" smooth="yes"/>
      <point x="524" y="569"/>
      <point x="507" y="557" type="qcurve" smooth="yes"/>
      <point x="300" y="406"/>
      <point x="190" y="341" type="qcurve"/>
      <point x="386" y="205"/>
      <point x="519" y="129" type="qcurve" smooth="yes"/>
      <point x="534" y="120"/>
      <point x="534" y="92"/>
    </contour>
  </outline>
</glyph>
<glyph name="equal" format="1">
  <advance width="600"/>
  <unicode hex="003D"/>
  <outline>
    <contour>
      <point x="77" y="249" type="qcurve" smooth="yes"/>
      <point x="82" y="263"/>
      <point x="114" y="281"/>
      <point x="133" y="281" type="qcurve" smooth="yes"/>
      <point x="138" y="281" type="line"/>
      <point x="223" y="273"/>
      <point x="337" y="273" type="qcurve" smooth="yes"/>
      <point x="405" y="273"/>
      <point x="480" y="276" type="qcurve" smooth="yes"/>
      <point x="482" y="276" type="line" smooth="yes"/>
      <point x="500" y="276"/>
      <point x="524" y="259"/>
      <point x="524" y="246" type="qcurve" smooth="yes"/>
      <point x="524" y="242" type="line" smooth="yes"/>
      <point x="522" y="228"/>
      <point x="490" y="205"/>
      <point x="470" y="204" type="qcurve" smooth="yes"/>
      <point x="392" y="201"/>
      <point x="322" y="201" type="qcurve" smooth="yes"/>
      <point x="205" y="201"/>
      <point x="112" y="209" type="qcurve" smooth="yes"/>
      <point x="96" y="210"/>
      <point x="75" y="228"/>
      <point x="75" y="240" type="qcurve" smooth="yes"/>
      <point x="75" y="243"/>
    </contour>
    <contour>
      <point x="77" y="449" type="qcurve" smooth="yes"/>
      <point x="82" y="463"/>
      <point x="114" y="481"/>
      <point x="133" y="481" type="qcurve" smooth="yes"/>
      <point x="138" y="481" type="line"/>
      <point x="223" y="473"/>
      <point x="337" y="473" type="qcurve" smooth="yes"/>
      <point x="405" y="473"/>
      <point x="480" y="476" type="qcurve" smooth="yes"/>
      <point x="482" y="476" type="line" smooth="yes"/>
      <point x="500" y="476"/>
      <point x="524" y="459"/>
      <point x="524" y="446" type="qcurve" smooth="yes"/>
      <point x="524" y="442" type="line" smooth="yes"/>
      <point x="522" y="428"/>
      <point x="490" y="405"/>
      <point x="470" y="404" type="qcurve" smooth="yes"/>
      <point x="392" y="401"/>
      <point x="322" y="401" type="qcurve" smooth="yes"/>
      <point x="205" y="401"/>
      <point x="112" y="409" type="qcurve" smooth="yes"/>
      <point x="96" y="410"/>
      <point x="75" y="428"/>
      <point x="75" y="440" type="qcurve" smooth="yes"/>
      <point x="75" y="443"/>
    </contour>
  </outline>
</glyph>
<glyph name="greater" format="1">
  <advance width="600"/>
  <unicode hex="003E"/>
  <outline>
    <contour>
      <point x="79" y="601" type="qcurve" smooth="yes"/>
      <point x="95" y="616"/>
      <point x="122" y="616" type="qcurve" smooth="yes"/>
      <point x="137" y="616"/>
      <point x="149" y="610" type="qcurve" smooth="yes"/>
      <point x="214" y="573"/>
      <point x="437" y="429"/>
      <point x="522" y="368" type="qcurve" smooth="yes"/>
      <point x="537" y="358"/>
      <point x="537" y="344" type="qcurve" smooth="yes"/>
      <point x="537" y="328"/>
      <point x="511" y="314" type="qcurve" smooth="yes"/>
      <point x="393" y="249"/>
      <point x="157" y="78" type="qcurve" smooth="yes"/>
      <point x="139" y="65"/>
      <point x="118" y="65" type="qcurve" smooth="yes"/>
      <point x="100" y="65"/>
      <point x="76" y="83"/>
      <point x="76" y="95" type="qcurve" smooth="yes"/>
      <point x="76" y="112"/>
      <point x="93" y="124" type="qcurve" smooth="yes"/>
      <point x="300" y="275"/>
      <point x="410" y="340" type="qcurve"/>
      <point x="214" y="476"/>
      <point x="81" y="552" type="qcurve" smooth="yes"/>
      <point x="66" y="561"/>
      <point x="66" y="589"/>
    </contour>
  </outline>
</glyph>
<glyph name="question" format="1">
  <advance width="480"/>
  <unicode hex="003F"/>
  <outline>
    <contour>
      <point x="229" y="258" type="qcurve" smooth="yes"/>
      <point x="219" y="255"/>
      <point x="209" y="255" type="qcurve" smooth="yes"/>
      <point x="187" y="255"/>
      <point x="178" y="275" type="qcurve" smooth="yes"/>
      <point x="161" y="315"/>
      <point x="161" y="351" type="qcurve" smooth="yes"/>
      <point x="161" y="390"/>
      <point x="200" y="464"/>
      <point x="256" y="521"/>
      <point x="312" y="576"/>
      <point x="351" y="636"/>
      <point x="351" y="665" type="qcurve" smooth="yes"/>
      <point x="351" y="703"/>
      <point x="334" y="732" type="qcurve" smooth="yes"/>
      <point x="303" y="784"/>
      <point x="230" y="784" type="qcurve" smooth="yes"/>
      <point x="198" y="784"/>
      <point x="168" y="773" type="qcurve" smooth="yes"/>
      <point x="108" y="748"/>
      <point x="108" y="702" type="qcurve" smooth="yes"/>
      <point x="108" y="680"/>
      <point x="126" y="648" type="qcurve" smooth="yes"/>
      <point x="130" y="640"/>
      <point x="130" y="635" type="qcurve" smooth="yes"/>
      <point x="130" y="612"/>
      <point x="99" y="599" type="qcurve" smooth="yes"/>
      <point x="86" y="594"/>
      <point x="74" y="594" type="qcurve" smooth="yes"/>
      <point x="45" y="594"/>
      <point x="34" y="612" type="qcurve" smooth="yes"/>
      <point x="11" y="649"/>
      <point x="11" y="689" type="qcurve" smooth="yes"/>
      <point x="11" y="736"/>
      <point x="76" y="814"/>
      <point x="131" y="835" type="qcurve" smooth="yes"/>
      <point x="183" y="856"/>
      <point x="243" y="856" type="qcurve" smooth="yes"/>
      <point x="302" y="856"/>
      <point x="400" y="811"/>
      <point x="426" y="768" type="qcurve" smooth="yes"/>
      <point x="449" y="728"/>
      <point x="449" y="675" type="qcurve" smooth="yes"/>
      <point x="449" y="627"/>
      <point x="408" y="547"/>
      <point x="350" y="492"/>
      <point x="292" y="442"/>
      <point x="251" y="384"/>
      <point x="251" y="354" type="qcurve" smooth="yes"/>
      <point x="251" y="330"/>
      <point x="262" y="305" type="qcurve" smooth="yes"/>
      <point x="264" y="299"/>
      <point x="264" y="295" type="qcurve" smooth="yes"/>
      <point x="264" y="270"/>
    </contour>
    <contour>
      <point x="301" y="112" type="qcurve" smooth="yes"/>
      <point x="319" y="94"/>
      <point x="319" y="71" type="qcurve" smooth="yes"/>
      <point x="319" y="62"/>
      <point x="318" y="58" type="qcurve" smooth="yes"/>
      <point x="314" y="35"/>
      <point x="263" y="-5"/>
      <point x="225" y="-5" type="qcurve" smooth="yes"/>
      <point x="190" y="-5"/>
      <point x="151" y="31"/>
      <point x="151" y="56" type="qcurve" smooth="yes"/>
      <point x="151" y="80"/>
      <point x="197" y="132"/>
      <point x="245" y="132" type="qcurve" smooth="yes"/>
      <point x="253" y="132"/>
      <point x="261" y="130" type="qcurve" smooth="yes"/>
      <point x="277" y="126" type="line" smooth="yes"/>
      <point x="293" y="121"/>
    </contour>
  </outline>
</glyph>
<glyph name="at" format="1">
  <advance width="1020"/>
  <unicode hex="0040"/>
  <outline>
    <contour>
      <point x="690" y="345" type="line"/>
      <point x="680" y="257"/>
      <point x="680" y="220" type="qcurve" smooth="yes"/>
      <point x="680" y="114"/>
      <point x="705" y="99" type="qcurve"/>
      <point x="719" y="106" type="line"/>
      <point x="788" y="149"/>
      <point x="865" y="305"/>
      <point x="865" y="393" type="qcurve" smooth="yes"/>
      <point x="865" y="547"/>
      <point x="762" y="638" type="qcurve" smooth="yes"/>
      <point x="679" y="711"/>
      <point x="552" y="711" type="qcurve" smooth="yes"/>
      <point x="407" y="711"/>
      <point x="196" y="503"/>
      <point x="164" y="346" type="qcurve" smooth="yes"/>
      <point x="153" y="291"/>
      <point x="153" y="242" type="qcurve" smooth="yes"/>
      <point x="153" y="87"/>
      <point x="337" y="-121"/>
      <point x="508" y="-121" type="qcurve" smooth="yes"/>
      <point x="550" y="-121"/>
      <point x="649" y="-89"/>
      <point x="674" y="-74" type="qcurve" smooth="yes"/>
      <point x="688" y="-66"/>
      <point x="702" y="-66" type="qcurve" smooth="yes"/>
      <point x="720" y="-66"/>
      <point x="729" y="-75" type="qcurve" smooth="yes"/>
      <point x="736" y="-82"/>
      <point x="736" y="-90" type="qcurve" smooth="yes"/>
      <point x="736" y="-105"/>
      <point x="718" y="-116" type="qcurve" smooth="yes"/>
      <point x="681" y="-138"/>
      <point x="559" y="-179"/>
      <point x="496" y="-179" type="qcurve" smooth="yes"/>
      <point x="388" y="-179"/>
      <point x="221" y="-110"/>
      <point x="123" y="9"/>
      <point x="74" y="153"/>
      <point x="74" y="235" type="qcurve" smooth="yes"/>
      <point x="74" y="289"/>
      <point x="85" y="346" type="qcurve" smooth="yes"/>
      <point x="101" y="426"/>
      <point x="179" y="574"/>
      <point x="296" y="696"/>
      <point x="466" y="769"/>
      <point x="564" y="769" type="qcurve" smooth="yes"/>
      <point x="725" y="769"/>
      <point x="826" y="678" type="qcurve" smooth="yes"/>
      <point x="884" y="626"/>
      <point x="945" y="479"/>
      <point x="945" y="398" type="qcurve" smooth="yes"/>
      <point x="945" y="298"/>
      <point x="853" y="118"/>
      <point x="765" y="64" type="qcurve" smooth="yes"/>
      <point x="733" y="44"/>
      <point x="698" y="41" type="qcurve" smooth="yes"/>
      <point x="692" y="41" type="line" smooth="yes"/>
      <point x="624" y="41"/>
      <point x="615" y="159" type="qcurve"/>
      <point x="564" y="38"/>
      <point x="465" y="38" type="qcurve" smooth="yes"/>
      <point x="375" y="38"/>
      <point x="293" y="143"/>
      <point x="293" y="222" type="qcurve" smooth="yes"/>
      <point x="293" y="259"/>
      <point x="300" y="290" type="qcurve" smooth="yes"/>
      <point x="310" y="336"/>
      <point x="353" y="425"/>
      <point x="421" y="505"/>
      <point x="524" y="554"/>
      <point x="585" y="554" type="qcurve" smooth="yes"/>
      <point x="625" y="554"/>
      <point x="681" y="524"/>
      <point x="704" y="479"/>
      <point x="712" y="448"/>
      <point x="712" y="436" type="qcurve" smooth="yes"/>
      <point x="712" y="423"/>
      <point x="685" y="401"/>
      <point x="667" y="399" type="qcurve" smooth="yes"/>
      <point x="660" y="399" type="line" smooth="yes"/>
      <point x="644" y="399"/>
      <point x="622" y="415"/>
      <point x="622" y="426" type="qcurve" smooth="yes"/>
      <point x="622" y="444"/>
      <point x="591" y="490"/>
      <point x="571" y="490" type="qcurve" smooth="yes"/>
      <point x="511" y="490"/>
      <point x="405" y="375"/>
      <point x="388" y="290" type="qcurve" smooth="yes"/>
      <point x="382" y="260"/>
      <point x="382" y="234" type="qcurve" smooth="yes"/>
      <point x="382" y="174"/>
      <point x="436" y="102"/>
      <point x="479" y="102" type="qcurve" smooth="yes"/>
      <point x="512" y="102"/>
      <point x="577" y="226"/>
      <point x="603" y="331" type="qcurve" smooth="yes"/>
      <point x="610" y="362"/>
      <point x="643" y="362" type="qcurve" smooth="yes"/>
      <point x="651" y="362"/>
      <point x="674" y="354"/>
      <point x="682" y="350" type="qcurve" smooth="yes"/>
    </contour>
  </outline>
</glyph>
<glyph name="A" format="1">
  <advance width="810"/>
  <unicode hex="0041"/>
  <outline>
    <contour>
      <point x="232" y="196" type="qcurve"/>
      <point x="178" y="77"/>
      <point x="137" y="11" type="qcurve" smooth="yes"/>
      <point x="122" y="-16"/>
      <point x="81" y="-16" type="qcurve" smooth="yes"/>
      <point x="73" y="-16"/>
      <point x="69" y="-15" type="qcurve" smooth="yes"/>
      <point x="39" y="-9"/>
      <point x="39" y="14" type="qcurve" smooth="yes"/>
      <point x="39" y="22"/>
      <point x="43" y="29" type="qcurve" smooth="yes"/>
      <point x="76" y="84"/>
      <point x="124" y="185" type="qcurve"/>
      <point x="119" y="184"/>
      <point x="94" y="181"/>
      <point x="88" y="180" type="qcurve" smooth="yes"/>
      <point x="84" y="179"/>
      <point x="76" y="179" type="qcurve" smooth="yes"/>
      <point x="59" y="179"/>
      <point x="35" y="195"/>
      <point x="33" y="207" type="qcurve" smooth="yes"/>
      <point x="33" y="209" type="line" smooth="yes"/>
      <point x="33" y="222"/>
      <point x="62" y="246"/>
      <point x="82" y="250" type="qcurve" smooth="yes"/>
      <point x="136" y="258"/>
      <point x="158" y="260" type="qcurve"/>
      <point x="268" y="510"/>
      <point x="360" y="774" type="qcurve" smooth="yes"/>
      <point x="364" y="784"/>
      <point x="365" y="788" type="qcurve" smooth="yes"/>
      <point x="376" y="820"/>
      <point x="408" y="820" type="qcurve" smooth="yes"/>
      <point x="420" y="820"/>
      <point x="448" y="811"/>
      <point x="456" y="806" type="qcurve" smooth="yes"/>
      <point x="464" y="802" type="line"/>
      <point x="560" y="624"/>
      <point x="727" y="196"/>
      <point x="767" y="64" type="qcurve" smooth="yes"/>
      <point x="768" y="62"/>
      <point x="770" y="55"/>
      <point x="771" y="53" type="qcurve" smooth="yes"/>
      <point x="773" y="45"/>
      <point x="773" y="41" type="qcurve" smooth="yes"/>
      <point x="773" y="23"/>
      <point x="739" y="3"/>
      <point x="717" y="3" type="qcurve" smooth="yes"/>
      <point x="680" y="3"/>
      <point x="670" y="24" type="qcurve" smooth="yes"/>
      <point x="660" y="44"/>
      <point x="635" y="113"/>
      <point x="617" y="149"/>
      <point x="582" y="191"/>
      <point x="524" y="209"/>
      <point x="481" y="209" type="qcurve" smooth="yes"/>
      <point x="382" y="209"/>
    </contour>
    <contour>
      <point x="265" y="269" type="qcurve"/>
      <point x="416" y="281"/>
      <point x="499" y="281" type="qcurve" smooth="yes"/>
      <point x="542" y="281"/>
      <point x="585" y="272" type="qcurve"/>
      <point x="508" y="476"/>
      <point x="421" y="659" type="qcurve"/>
      <point x="332" y="420"/>
    </contour>
  </outline>
</glyph>
<glyph name="B" format="1">
  <advance width="800"/>
  <unicode hex="0042"/>
  <outline>
    <contour>
      <point x="233" y="353" type="line" smooth="yes"/>
      <point x="232" y="295"/>
      <point x="229" y="99"/>
      <point x="229" y="72" type="qcurve"/>
      <point x="255" y="59"/>
      <point x="322" y="59" type="qcurve" smooth="yes"/>
      <point x="392" y="59"/>
      <point x="534" y="98"/>
      <point x="577" y="139" type="qcurve" smooth="yes"/>
      <point x="629" y="190"/>
      <point x="636" y="266" type="qcurve" smooth="yes"/>
      <point x="636" y="268"/>
      <point x="637" y="278"/>
      <point x="637" y="281" type="qcurve" smooth="yes"/>
      <point x="637" y="395"/>
      <point x="482" y="395" type="qcurve" smooth="yes"/>
      <point x="460" y="395"/>
      <point x="449" y="394" type="qcurve" smooth="yes"/>
      <point x="428" y="393"/>
      <point x="391" y="387" type="qcurve"/>
      <point x="323" y="363"/>
      <point x="266" y="352" type="qcurve"/>
      <point x="246" y="366"/>
      <point x="233" y="383" type="qcurve"/>
    </contour>
    <contour>
      <point x="233" y="421" type="line"/>
      <point x="239" y="424" type="line" smooth="yes"/>
      <point x="246" y="428"/>
      <point x="258" y="431" type="qcurve" smooth="yes"/>
      <point x="304" y="448"/>
      <point x="366" y="461" type="qcurve"/>
      <point x="411" y="478"/>
      <point x="441" y="492" type="qcurve" smooth="yes"/>
      <point x="486" y="512"/>
      <point x="537" y="583"/>
      <point x="537" y="622" type="qcurve" smooth="yes"/>
      <point x="537" y="656"/>
      <point x="516" y="685" type="qcurve" smooth="yes"/>
      <point x="476" y="742"/>
      <point x="374" y="742" type="qcurve" smooth="yes"/>
      <point x="264" y="742"/>
      <point x="104" y="668" type="qcurve" smooth="yes"/>
      <point x="89" y="661"/>
      <point x="70" y="661" type="qcurve" smooth="yes"/>
      <point x="43" y="661"/>
      <point x="31" y="677" type="qcurve" smooth="yes"/>
      <point x="26" y="683"/>
      <point x="26" y="694" type="qcurve" smooth="yes"/>
      <point x="26" y="718"/>
      <point x="56" y="732" type="qcurve" smooth="yes"/>
      <point x="246" y="819"/>
      <point x="392" y="819" type="qcurve" smooth="yes"/>
      <point x="495" y="819"/>
      <point x="562" y="777" type="qcurve" smooth="yes"/>
      <point x="646" y="724"/>
      <point x="646" y="634" type="qcurve" smooth="yes"/>
      <point x="646" y="541"/>
      <point x="558" y="470" type="qcurve"/>
      <point x="641" y="459"/>
      <point x="745" y="369"/>
      <point x="745" y="292" type="qcurve" smooth="yes"/>
      <point x="745" y="280"/>
      <point x="744" y="274" type="qcurve" smooth="yes"/>
      <point x="739" y="206"/>
      <point x="668" y="96"/>
      <point x="560" y="29"/>
      <point x="443" y="-10"/>
      <point x="380" y="-17" type="qcurve" smooth="yes"/>
      <point x="335" y="-22"/>
      <point x="300" y="-22" type="qcurve" smooth="yes"/>
      <point x="168" y="-22"/>
      <point x="130" y="27" type="qcurve" smooth="yes"/>
      <point x="121" y="38"/>
      <point x="121" y="54" type="qcurve" smooth="yes"/>
      <point x="121" y="73"/>
      <point x="125" y="302"/>
      <point x="125" y="376" type="qcurve" smooth="yes"/>
      <point x="125" y="533"/>
      <point x="116" y="596" type="qcurve"/>
      <point x="116" y="600" type="line" smooth="yes"/>
      <point x="116" y="615"/>
      <point x="144" y="639"/>
      <point x="165" y="643" type="qcurve" smooth="yes"/>
      <point x="169" y="644"/>
      <point x="177" y="644" type="qcurve" smooth="yes"/>
      <point x="195" y="644"/>
      <point x="222" y="627"/>
      <point x="224" y="614" type="qcurve" smooth="yes"/>
      <point x="231" y="558"/>
      <point x="233" y="422" type="qcurve" smooth="yes"/>
    </contour>
  </outline>
</glyph>
<glyph name="C" format="1">
  <advance width="750"/>
  <unicode hex="0043"/>
  <outline>
    <contour>
      <point x="684" y="178" type="qcurve" smooth="yes"/>
      <point x="699" y="175"/>
      <point x="717" y="157"/>
      <point x="717" y="145" type="qcurve" smooth="yes"/>
      <point x="717" y="138"/>
      <point x="712" y="128" type="qcurve" smooth="yes"/>
      <point x="676" y="70"/>
      <point x="538" y="-9"/>
      <point x="457" y="-18" type="qcurve" smooth="yes"/>
      <point x="442" y="-20"/>
      <point x="413" y="-20" type="qcurve" smooth="yes"/>
      <point x="265" y="-20"/>
      <point x="68" y="189"/>
      <point x="68" y="387" type="qcurve" smooth="yes"/>
      <point x="68" y="576"/>
      <point x="262" y="803"/>
      <point x="407" y="819" type="qcurve" smooth="yes"/>
      <point x="433" y="821"/>
      <point x="445" y="821" type="qcurve" smooth="yes"/>
      <point x="546" y="821"/>
      <point x="683" y="716"/>
      <point x="683" y="632" type="qcurve" smooth="yes"/>
      <point x="683" y="615"/>
      <point x="649" y="588"/>
      <point x="626" y="586" type="qcurve" smooth="yes"/>
      <point x="618" y="586" type="line" smooth="yes"/>
      <point x="597" y="586"/>
      <point x="569" y="605"/>
      <point x="569" y="620" type="qcurve" smooth="yes"/>
      <point x="569" y="676"/>
      <point x="487" y="739"/>
      <point x="429" y="739" type="qcurve" smooth="yes"/>
      <point x="414" y="739"/>
      <point x="407" y="738" type="qcurve" smooth="yes"/>
      <point x="371" y="734"/>
      <point x="298" y="696"/>
      <point x="227" y="622"/>
      <point x="182" y="487"/>
      <point x="182" y="399" type="qcurve" smooth="yes"/>
      <point x="182" y="306"/>
      <point x="229" y="168"/>
      <point x="306" y="95"/>
      <point x="388" y="62"/>
      <point x="432" y="62" type="qcurve" smooth="yes"/>
      <point x="449" y="62"/>
      <point x="457" y="63" type="qcurve" smooth="yes"/>
      <point x="562" y="75"/>
      <point x="608" y="150" type="qcurve" smooth="yes"/>
      <point x="626" y="179"/>
      <point x="670" y="179" type="qcurve" smooth="yes"/>
      <point x="679" y="179"/>
    </contour>
  </outline>
</glyph>
<glyph name="D" format="1">
  <advance width="810"/>
  <unicode hex="0044"/>
  <outline>
    <contour>
      <point x="34" y="675" type="qcurve" smooth="yes"/>
      <point x="26" y="683"/>
      <point x="26" y="694" type="qcurve" smooth="yes"/>
      <point x="26" y="716"/>
      <point x="51" y="730" type="qcurve" smooth="yes"/>
      <point x="166" y="794"/>
      <point x="287" y="813" type="qcurve" smooth="yes"/>
      <point x="329" y="820"/>
      <point x="375" y="820" type="qcurve" smooth="yes"/>
      <point x="522" y="820"/>
      <point x="717" y="655"/>
      <point x="734" y="494" type="qcurve" smooth="yes"/>
      <point x="739" y="446"/>
      <point x="739" y="412" type="qcurve" smooth="yes"/>
      <point x="739" y="308"/>
      <point x="676" y="145"/>
      <point x="567" y="45"/>
      <point x="441" y="-10"/>
      <point x="370" y="-18" type="qcurve" smooth="yes"/>
      <point x="342" y="-21"/>
      <point x="313" y="-21" type="qcurve" smooth="yes"/>
      <point x="246" y="-21"/>
      <point x="144" y="11"/>
      <point x="127" y="42" type="qcurve" smooth="yes"/>
      <point x="121" y="51"/>
      <point x="121" y="64" type="qcurve" smooth="yes"/>
      <point x="121" y="82"/>
      <point x="125" y="299"/>
      <point x="125" y="369" type="qcurve" smooth="yes"/>
      <point x="125" y="529"/>
      <point x="116" y="596" type="qcurve"/>
      <point x="116" y="600" type="line" smooth="yes"/>
      <point x="116" y="615"/>
      <point x="144" y="639"/>
      <point x="165" y="643" type="qcurve" smooth="yes"/>
      <point x="169" y="644"/>
      <point x="177" y="644" type="qcurve" smooth="yes"/>
      <point x="195" y="644"/>
      <point x="222" y="627"/>
      <point x="224" y="614" type="qcurve" smooth="yes"/>
      <point x="233" y="545"/>
      <point x="233" y="388" type="qcurve" smooth="yes"/>
      <point x="233" y="318"/>
      <point x="229" y="100"/>
      <point x="229" y="80" type="qcurve"/>
      <point x="254" y="59"/>
      <point x="333" y="59" type="qcurve" smooth="yes"/>
      <point x="433" y="59"/>
      <point x="502" y="106" type="qcurve" smooth="yes"/>
      <point x="630" y="191"/>
      <point x="630" y="400" type="qcurve" smooth="yes"/>
      <point x="630" y="440"/>
      <point x="626" y="476" type="qcurve" smooth="yes"/>
      <point x="611" y="615"/>
      <point x="467" y="742"/>
      <point x="361" y="742" type="qcurve" smooth="yes"/>
      <point x="328" y="742"/>
      <point x="295" y="736" type="qcurve" smooth="yes"/>
      <point x="199" y="720"/>
      <point x="109" y="670" type="qcurve" smooth="yes"/>
      <point x="93" y="661"/>
      <point x="74" y="661" type="qcurve" smooth="yes"/>
      <point x="48" y="661"/>
    </contour>
  </outline>
</glyph>
<glyph name="E" format="1">
  <advance width="740"/>
  <unicode hex="0045"/>
  <outline>
    <contour>
      <point x="714" y="32" type="line" smooth="yes"/>
      <point x="712" y="16"/>
      <point x="677" y="-8"/>
      <point x="655" y="-9" type="qcurve" smooth="yes"/>
      <point x="621" y="-10"/>
      <point x="405" y="-24"/>
      <point x="353" y="-24" type="qcurve" smooth="yes"/>
      <point x="249" y="-24"/>
      <point x="136" y="24"/>
      <point x="136" y="86" type="qcurve" smooth="yes"/>
      <point x="136" y="96" type="line"/>
      <point x="145" y="240"/>
      <point x="149" y="360" type="qcurve"/>
      <point x="147" y="360"/>
      <point x="140" y="361"/>
      <point x="138" y="361" type="qcurve" smooth="yes"/>
      <point x="120" y="362"/>
      <point x="96" y="381"/>
      <point x="96" y="395" type="qcurve" smooth="yes"/>
      <point x="96" y="400"/>
      <point x="97" y="403" type="qcurve" smooth="yes"/>
      <point x="101" y="417"/>
      <point x="132" y="437"/>
      <point x="151" y="439" type="qcurve"/>
      <point x="151" y="454"/>
      <point x="152" y="518"/>
      <point x="152" y="550"/>
      <point x="151" y="617"/>
      <point x="151" y="634" type="qcurve" smooth="yes"/>
      <point x="150" y="683"/>
      <point x="135" y="721"/>
      <point x="116" y="729" type="qcurve" smooth="yes"/>
      <point x="105" y="732"/>
      <point x="103" y="733" type="qcurve" smooth="yes"/>
      <point x="102" y="742"/>
      <point x="102" y="754" type="qcurve" smooth="yes"/>
      <point x="102" y="809"/>
      <point x="139" y="809" type="qcurve" smooth="yes"/>
      <point x="141" y="809" type="line"/>
      <point x="247" y="804"/>
      <point x="365" y="804" type="qcurve" smooth="yes"/>
      <point x="522" y="804"/>
      <point x="630" y="814" type="qcurve"/>
      <point x="638" y="814" type="line" smooth="yes"/>
      <point x="658" y="814"/>
      <point x="684" y="795"/>
      <point x="684" y="781" type="qcurve" smooth="yes"/>
      <point x="684" y="765"/>
      <point x="652" y="738"/>
      <point x="630" y="736" type="qcurve" smooth="yes"/>
      <point x="532" y="726"/>
      <point x="360" y="726" type="qcurve" smooth="yes"/>
      <point x="289" y="726"/>
      <point x="249" y="727" type="qcurve"/>
      <point x="259" y="696"/>
      <point x="259" y="646" type="qcurve" smooth="yes"/>
      <point x="259" y="627"/>
      <point x="260" y="554"/>
      <point x="260" y="537" type="qcurve" smooth="yes"/>
      <point x="260" y="519"/>
      <point x="259" y="451"/>
      <point x="259" y="435" type="qcurve"/>
      <point x="331" y="433"/>
      <point x="359" y="433" type="qcurve" smooth="yes"/>
      <point x="432" y="433"/>
      <point x="554" y="439" type="qcurve"/>
      <point x="557" y="439" type="line" smooth="yes"/>
      <point x="577" y="439"/>
      <point x="604" y="420"/>
      <point x="604" y="406" type="qcurve" smooth="yes"/>
      <point x="604" y="403" type="line" smooth="yes"/>
      <point x="602" y="387"/>
      <point x="568" y="362"/>
      <point x="546" y="361" type="qcurve" smooth="yes"/>
      <point x="422" y="355"/>
      <point x="341" y="355" type="qcurve" smooth="yes"/>
      <point x="286" y="355"/>
      <point x="257" y="356" type="qcurve"/>
      <point x="254" y="247"/>
      <point x="244" y="104" type="qcurve"/>
      <point x="244" y="101" type="line" smooth="yes"/>
      <point x="244" y="76"/>
      <point x="297" y="56"/>
      <point x="361" y="56" type="qcurve" smooth="yes"/>
      <point x="364" y="56"/>
      <point x="665" y="69" type="qcurve"/>
      <point x="668" y="69" type="line" smooth="yes"/>
      <point x="688" y="69"/>
      <point x="714" y="50"/>
      <point x="714" y="36" type="qcurve" smooth="yes"/>
    </contour>
  </outline>
</glyph>
<glyph name="F" format="1">
  <advance width="710"/>
  <unicode hex="0046"/>
  <outline>
    <contour>
      <point x="684" y="781" type="qcurve" smooth="yes"/>
      <point x="684" y="765"/>
      <point x="652" y="738"/>
      <point x="630" y="736" type="qcurve" smooth="yes"/>
      <point x="532" y="726"/>
      <point x="359" y="726" type="qcurve" smooth="yes"/>
      <point x="289" y="726"/>
      <point x="249" y="727" type="qcurve"/>
      <point x="259" y="697"/>
      <point x="259" y="646" type="qcurve" smooth="yes"/>
      <point x="261" y="504"/>
      <point x="261" y="435" type="qcurve"/>
      <point x="333" y="433"/>
      <point x="360" y="433" type="qcurve" smooth="yes"/>
      <point x="434" y="433"/>
      <point x="554" y="439" type="qcurve"/>
      <point x="557" y="439" type="line" smooth="yes"/>
      <point x="577" y="439"/>
      <point x="604" y="420"/>
      <point x="604" y="406" type="qcurve" smooth="yes"/>
      <point x="604" y="403" type="line" smooth="yes"/>
      <point x="602" y="387"/>
      <point x="568" y="362"/>
      <point x="546" y="361" type="qcurve" smooth="yes"/>
      <point x="423" y="355"/>
      <point x="343" y="355" type="qcurve" smooth="yes"/>
      <point x="290" y="355"/>
      <point x="262" y="356" type="qcurve"/>
      <point x="262" y="165"/>
      <point x="254" y="29" type="qcurve" smooth="yes"/>
      <point x="253" y="13"/>
      <point x="220" y="-13"/>
      <point x="198" y="-14" type="qcurve" smooth="yes"/>
      <point x="193" y="-14" type="line" smooth="yes"/>
      <point x="173" y="-14"/>
      <point x="146" y="6"/>
      <point x="146" y="20" type="qcurve" smooth="yes"/>
      <point x="146" y="21" type="line"/>
      <point x="154" y="160"/>
      <point x="154" y="360" type="qcurve"/>
      <point x="152" y="360"/>
      <point x="140" y="361"/>
      <point x="138" y="361" type="qcurve" smooth="yes"/>
      <point x="120" y="362"/>
      <point x="96" y="381"/>
      <point x="96" y="395" type="qcurve" smooth="yes"/>
      <point x="96" y="400"/>
      <point x="97" y="403" type="qcurve" smooth="yes"/>
      <point x="101" y="417"/>
      <point x="133" y="437"/>
      <point x="153" y="439" type="qcurve"/>
      <point x="152" y="471"/>
      <point x="151" y="601"/>
      <point x="151" y="634" type="qcurve" smooth="yes"/>
      <point x="150" y="683"/>
      <point x="135" y="721"/>
      <point x="116" y="729" type="qcurve" smooth="yes"/>
      <point x="105" y="732"/>
      <point x="103" y="733" type="qcurve" smooth="yes"/>
      <point x="89" y="737"/>
      <point x="89" y="748" type="qcurve" smooth="yes"/>
      <point x="89" y="758"/>
      <point x="115" y="789"/>
      <point x="128" y="799" type="qcurve" smooth="yes"/>
      <point x="141" y="809" type="line"/>
      <point x="247" y="804"/>
      <point x="365" y="804" type="qcurve" smooth="yes"/>
      <point x="522" y="804"/>
      <point x="630" y="814" type="qcurve"/>
      <point x="638" y="814" type="line" smooth="yes"/>
      <point x="658" y="814"/>
      <point x="684" y="795"/>
    </contour>
  </outline>
</glyph>
<glyph name="G" format="1">
  <advance width="790"/>
  <unicode hex="0047"/>
  <outline>
    <contour>
      <point x="387" y="316" type="qcurve" smooth="yes"/>
      <point x="386" y="319"/>
      <point x="386" y="325" type="qcurve" smooth="yes"/>
      <point x="386" y="338"/>
      <point x="409" y="362"/>
      <point x="428" y="367" type="qcurve" smooth="yes"/>
      <point x="519" y="393"/>
      <point x="596" y="399" type="qcurve" smooth="yes"/>
      <point x="598" y="399"/>
      <point x="605" y="400"/>
      <point x="606" y="400" type="qcurve" smooth="yes"/>
      <point x="620" y="400"/>
      <point x="632" y="397" type="qcurve" smooth="yes"/>
      <point x="725" y="379"/>
      <point x="725" y="264" type="qcurve" smooth="yes"/>
      <point x="725" y="234"/>
      <point x="719" y="206" type="qcurve" smooth="yes"/>
      <point x="711" y="166"/>
      <point x="668" y="90"/>
      <point x="596" y="19"/>
      <point x="482" y="-24"/>
      <point x="412" y="-24" type="qcurve" smooth="yes"/>
      <point x="258" y="-24"/>
      <point x="71" y="196"/>
      <point x="71" y="387" type="qcurve" smooth="yes"/>
      <point x="71" y="576"/>
      <point x="265" y="803"/>
      <point x="408" y="818" type="qcurve" smooth="yes"/>
      <point x="434" y="820"/>
      <point x="446" y="820" type="qcurve" smooth="yes"/>
      <point x="546" y="820"/>
      <point x="680" y="716"/>
      <point x="680" y="632" type="qcurve" smooth="yes"/>
      <point x="680" y="616"/>
      <point x="648" y="589"/>
      <point x="626" y="587" type="qcurve" smooth="yes"/>
      <point x="618" y="587" type="line" smooth="yes"/>
      <point x="598" y="587"/>
      <point x="572" y="606"/>
      <point x="572" y="620" type="qcurve" smooth="yes"/>
      <point x="572" y="677"/>
      <point x="489" y="741"/>
      <point x="430" y="741" type="qcurve" smooth="yes"/>
      <point x="415" y="741"/>
      <point x="408" y="740" type="qcurve" smooth="yes"/>
      <point x="379" y="737"/>
      <point x="320" y="713"/>
      <point x="257" y="661"/>
      <point x="210" y="587"/>
      <point x="179" y="470"/>
      <point x="179" y="399" type="qcurve" smooth="yes"/>
      <point x="179" y="310"/>
      <point x="224" y="173"/>
      <point x="297" y="94"/>
      <point x="382" y="54"/>
      <point x="428" y="54" type="qcurve" smooth="yes"/>
      <point x="505" y="54"/>
      <point x="597" y="138"/>
      <point x="611" y="206" type="qcurve" smooth="yes"/>
      <point x="615" y="223"/>
      <point x="615" y="242" type="qcurve" smooth="yes"/>
      <point x="615" y="271"/>
      <point x="598" y="316"/>
      <point x="590" y="321" type="qcurve"/>
      <point x="534" y="315"/>
      <point x="452" y="293" type="qcurve" smooth="yes"/>
      <point x="443" y="290"/>
      <point x="433" y="290" type="qcurve" smooth="yes"/>
      <point x="395" y="290"/>
    </contour>
  </outline>
</glyph>
<glyph name="H" format="1">
  <advance width="820"/>
  <unicode hex="0048"/>
  <outline>
    <contour>
      <point x="666" y="-9" type="qcurve" smooth="yes"/>
      <point x="664" y="-9"/>
      <point x="658" y="-10"/>
      <point x="657" y="-10" type="qcurve" smooth="yes"/>
      <point x="638" y="-10"/>
      <point x="612" y="10"/>
      <point x="611" y="24" type="qcurve" smooth="yes"/>
      <point x="607" y="172"/>
      <point x="606" y="358" type="qcurve"/>
      <point x="501" y="355"/>
      <point x="383" y="355" type="qcurve" smooth="yes"/>
      <point x="325" y="355"/>
      <point x="221" y="357" type="qcurve"/>
      <point x="221" y="237"/>
      <point x="219" y="31" type="qcurve" smooth="yes"/>
      <point x="219" y="15"/>
      <point x="187" y="-12"/>
      <point x="165" y="-14" type="qcurve" smooth="yes"/>
      <point x="157" y="-14" type="line" smooth="yes"/>
      <point x="137" y="-14"/>
      <point x="111" y="5"/>
      <point x="111" y="19" type="qcurve" smooth="yes"/>
      <point x="113" y="233"/>
      <point x="113" y="361" type="qcurve"/>
      <point x="108" y="361" type="line" smooth="yes"/>
      <point x="90" y="362"/>
      <point x="66" y="381"/>
      <point x="66" y="395" type="qcurve" smooth="yes"/>
      <point x="66" y="400"/>
      <point x="67" y="403" type="qcurve" smooth="yes"/>
      <point x="75" y="431"/>
      <point x="113" y="438" type="qcurve"/>
      <point x="111" y="654"/>
      <point x="101" y="762" type="qcurve"/>
      <point x="101" y="765" type="line" smooth="yes"/>
      <point x="101" y="780"/>
      <point x="129" y="804"/>
      <point x="151" y="808" type="qcurve" smooth="yes"/>
      <point x="155" y="809"/>
      <point x="163" y="809" type="qcurve" smooth="yes"/>
      <point x="182" y="809"/>
      <point x="207" y="792"/>
      <point x="209" y="778" type="qcurve" smooth="yes"/>
      <point x="219" y="663"/>
      <point x="221" y="436" type="qcurve"/>
      <point x="326" y="433"/>
      <point x="445" y="433" type="qcurve" smooth="yes"/>
      <point x="504" y="433"/>
      <point x="606" y="435" type="qcurve"/>
      <point x="606" y="462"/>
      <point x="605" y="572"/>
      <point x="605" y="628"/>
      <point x="606" y="735"/>
      <point x="606" y="759" type="qcurve" smooth="yes"/>
      <point x="606" y="775"/>
      <point x="638" y="802"/>
      <point x="660" y="804" type="qcurve" smooth="yes"/>
      <point x="668" y="804" type="line" smooth="yes"/>
      <point x="688" y="804"/>
      <point x="714" y="785"/>
      <point x="714" y="771" type="qcurve" smooth="yes"/>
      <point x="714" y="746"/>
      <point x="713" y="636"/>
      <point x="713" y="580"/>
      <point x="714" y="467"/>
      <point x="714" y="439" type="qcurve"/>
      <point x="732" y="437"/>
      <point x="754" y="419"/>
      <point x="754" y="406" type="qcurve" smooth="yes"/>
      <point x="754" y="403" type="line" smooth="yes"/>
      <point x="752" y="390"/>
      <point x="730" y="368"/>
      <point x="714" y="364" type="qcurve"/>
      <point x="715" y="183"/>
      <point x="719" y="36" type="qcurve"/>
      <point x="719" y="35" type="line" smooth="yes"/>
      <point x="719" y="19"/>
      <point x="688" y="-6"/>
    </contour>
  </outline>
</glyph>
<glyph name="I" format="1">
  <advance width="480"/>
  <unicode hex="0049"/>
  <outline>
    <contour>
      <point x="55" y="38" type="qcurve" smooth="yes"/>
      <point x="61" y="51"/>
      <point x="97" y="69"/>
      <point x="116" y="69" type="qcurve" smooth="yes"/>
      <point x="119" y="69" type="line" smooth="yes"/>
      <point x="133" y="68"/>
      <point x="183" y="65"/>
      <point x="192" y="65" type="qcurve"/>
      <point x="188" y="78"/>
      <point x="188" y="93" type="qcurve" smooth="yes"/>
      <point x="188" y="184"/>
      <point x="194" y="492"/>
      <point x="194" y="574" type="qcurve" smooth="yes"/>
      <point x="194" y="590"/>
      <point x="193" y="655"/>
      <point x="193" y="673" type="qcurve" smooth="yes"/>
      <point x="193" y="690"/>
      <point x="188" y="707"/>
      <point x="170" y="718"/>
      <point x="153" y="721"/>
      <point x="108" y="728"/>
      <point x="89" y="732" type="qcurve" smooth="yes"/>
      <point x="87" y="732"/>
      <point x="79" y="734"/>
      <point x="77" y="734" type="qcurve" smooth="yes"/>
      <point x="77" y="739" type="line" smooth="yes"/>
      <point x="77" y="798"/>
      <point x="117" y="798" type="qcurve" smooth="yes"/>
      <point x="119" y="798" type="line" smooth="yes"/>
      <point x="199" y="795"/>
      <point x="268" y="795" type="qcurve" smooth="yes"/>
      <point x="330" y="795"/>
      <point x="381" y="798" type="qcurve" smooth="yes"/>
      <point x="386" y="798" type="line" smooth="yes"/>
      <point x="403" y="798"/>
      <point x="426" y="783"/>
      <point x="426" y="772" type="qcurve" smooth="yes"/>
      <point x="426" y="768" type="line" smooth="yes"/>
      <point x="424" y="755"/>
      <point x="390" y="734"/>
      <point x="369" y="732" type="qcurve" smooth="yes"/>
      <point x="362" y="731"/>
      <point x="288" y="729" type="qcurve"/>
      <point x="297" y="711"/>
      <point x="297" y="687" type="qcurve" smooth="yes"/>
      <point x="297" y="669"/>
      <point x="298" y="603"/>
      <point x="298" y="587" type="qcurve" smooth="yes"/>
      <point x="298" y="504"/>
      <point x="292" y="198"/>
      <point x="292" y="107" type="qcurve" smooth="yes"/>
      <point x="292" y="105" type="line" smooth="yes"/>
      <point x="292" y="85"/>
      <point x="302" y="77"/>
      <point x="329" y="77" type="qcurve" smooth="yes"/>
      <point x="337" y="77" type="line" smooth="yes"/>
      <point x="346" y="77"/>
      <point x="400" y="75" type="qcurve" smooth="yes"/>
      <point x="424" y="74"/>
      <point x="424" y="60" type="qcurve" smooth="yes"/>
      <point x="424" y="52"/>
      <point x="407" y="27"/>
      <point x="398" y="19" type="qcurve" smooth="yes"/>
      <point x="390" y="11" type="line"/>
      <point x="314" y="-3"/>
      <point x="241" y="-3" type="qcurve" smooth="yes"/>
      <point x="213" y="-3"/>
      <point x="102" y="3"/>
      <point x="91" y="3" type="qcurve" smooth="yes"/>
      <point x="75" y="4"/>
      <point x="53" y="18"/>
      <point x="53" y="29" type="qcurve" smooth="yes"/>
      <point x="53" y="32"/>
    </contour>
  </outline>
</glyph>
<glyph name="J" format="1">
  <advance width="540"/>
  <unicode hex="004A"/>
  <outline>
    <contour>
      <point x="422" y="229" type="qcurve" smooth="yes"/>
      <point x="422" y="194"/>
      <point x="418" y="143"/>
      <point x="399" y="74"/>
      <point x="364" y="29"/>
      <point x="297" y="-8"/>
      <point x="251" y="-13" type="qcurve" smooth="yes"/>
      <point x="241" y="-14"/>
      <point x="220" y="-14" type="qcurve" smooth="yes"/>
      <point x="156" y="-14"/>
      <point x="50" y="40"/>
      <point x="21" y="78" type="qcurve" smooth="yes"/>
      <point x="16" y="84"/>
      <point x="16" y="94" type="qcurve" smooth="yes"/>
      <point x="16" y="118"/>
      <point x="46" y="132" type="qcurve" smooth="yes"/>
      <point x="60" y="139"/>
      <point x="78" y="139" type="qcurve" smooth="yes"/>
      <point x="107" y="139"/>
      <point x="119" y="122" type="qcurve" smooth="yes"/>
      <point x="136" y="99"/>
      <point x="206" y="64"/>
      <point x="236" y="64" type="qcurve" smooth="yes"/>
      <point x="239" y="64"/>
      <point x="249" y="65"/>
      <point x="251" y="65" type="qcurve" smooth="yes"/>
      <point x="284" y="68"/>
      <point x="318" y="135"/>
      <point x="318" y="216" type="qcurve" smooth="yes"/>
      <point x="318" y="494"/>
      <point x="298" y="671" type="qcurve" smooth="yes"/>
      <point x="296" y="688"/>
      <point x="283" y="706"/>
      <point x="256" y="716"/>
      <point x="228" y="720"/>
      <point x="175" y="728"/>
      <point x="152" y="734" type="qcurve"/>
      <point x="152" y="739" type="line" smooth="yes"/>
      <point x="152" y="798"/>
      <point x="192" y="798" type="qcurve" smooth="yes"/>
      <point x="194" y="798" type="line" smooth="yes"/>
      <point x="273" y="795"/>
      <point x="343" y="795" type="qcurve" smooth="yes"/>
      <point x="405" y="795"/>
      <point x="456" y="798" type="qcurve" smooth="yes"/>
      <point x="461" y="798" type="line" smooth="yes"/>
      <point x="479" y="798"/>
      <point x="502" y="782"/>
      <point x="502" y="771" type="qcurve" smooth="yes"/>
      <point x="502" y="768" type="line" smooth="yes"/>
      <point x="500" y="755"/>
      <point x="465" y="734"/>
      <point x="444" y="732" type="qcurve" smooth="yes"/>
      <point x="435" y="731"/>
      <point x="398" y="730"/>
      <point x="388" y="730" type="qcurve"/>
      <point x="399" y="713"/>
      <point x="402" y="689" type="qcurve" smooth="yes"/>
      <point x="422" y="506"/>
    </contour>
  </outline>
</glyph>
<glyph name="K" format="1">
  <advance width="780"/>
  <unicode hex="004B"/>
  <outline>
    <contour>
      <point x="129" y="807" type="qcurve" smooth="yes"/>
      <point x="135" y="809"/>
      <point x="148" y="809" type="qcurve" smooth="yes"/>
      <point x="185" y="809"/>
      <point x="193" y="784" type="qcurve" smooth="yes"/>
      <point x="213" y="717"/>
      <point x="221" y="544" type="qcurve"/>
      <point x="335" y="608"/>
      <point x="543" y="747"/>
      <point x="595" y="792" type="qcurve" smooth="yes"/>
      <point x="614" y="809"/>
      <point x="642" y="809" type="qcurve" smooth="yes"/>
      <point x="661" y="809"/>
      <point x="672" y="802" type="qcurve" smooth="yes"/>
      <point x="689" y="794"/>
      <point x="689" y="776" type="qcurve" smooth="yes"/>
      <point x="689" y="761"/>
      <point x="675" y="748" type="qcurve" smooth="yes"/>
      <point x="610" y="691"/>
      <point x="367" y="534"/>
      <point x="232" y="463" type="qcurve"/>
      <point x="316" y="425"/>
      <point x="495" y="297"/>
      <point x="636" y="164"/>
      <point x="715" y="82"/>
      <point x="738" y="54" type="qcurve" smooth="yes"/>
      <point x="744" y="47"/>
      <point x="744" y="37" type="qcurve" smooth="yes"/>
      <point x="744" y="13"/>
      <point x="716" y="-1" type="qcurve" smooth="yes"/>
      <point x="698" y="-9"/>
      <point x="681" y="-9" type="qcurve" smooth="yes"/>
      <point x="654" y="-9"/>
      <point x="642" y="6" type="qcurve" smooth="yes"/>
      <point x="616" y="37"/>
      <point x="514" y="144"/>
      <point x="314" y="316"/>
      <point x="226" y="367" type="qcurve"/>
      <point x="229" y="222"/>
      <point x="229" y="31" type="qcurve" smooth="yes"/>
      <point x="229" y="15"/>
      <point x="197" y="-12"/>
      <point x="175" y="-14" type="qcurve" smooth="yes"/>
      <point x="167" y="-14" type="line" smooth="yes"/>
      <point x="147" y="-14"/>
      <point x="121" y="5"/>
      <point x="121" y="19" type="qcurve" smooth="yes"/>
      <point x="121" y="234"/>
      <point x="116" y="419" type="qcurve" smooth="yes"/>
      <point x="113" y="420"/>
      <point x="103" y="423" type="qcurve" smooth="yes"/>
      <point x="64" y="429"/>
      <point x="64" y="446" type="qcurve" smooth="yes"/>
      <point x="64" y="461"/>
      <point x="104" y="481" type="qcurve" smooth="yes"/>
      <point x="105" y="482"/>
      <point x="108" y="484" type="qcurve" smooth="yes"/>
      <point x="113" y="486" type="line"/>
      <point x="105" y="697"/>
      <point x="87" y="756" type="qcurve" smooth="yes"/>
      <point x="86" y="758"/>
      <point x="86" y="764" type="qcurve" smooth="yes"/>
      <point x="86" y="778"/>
      <point x="110" y="803"/>
    </contour>
  </outline>
</glyph>
<glyph name="L" format="1">
  <advance width="660"/>
  <unicode hex="004C"/>
  <outline>
    <contour>
      <point x="634" y="32" type="line" smooth="yes"/>
      <point x="632" y="16"/>
      <point x="597" y="-8"/>
      <point x="575" y="-9" type="qcurve" smooth="yes"/>
      <point x="536" y="-11"/>
      <point x="349" y="-23"/>
      <point x="307" y="-23" type="qcurve" smooth="yes"/>
      <point x="217" y="-23"/>
      <point x="126" y="23"/>
      <point x="126" y="84" type="qcurve" smooth="yes"/>
      <point x="126" y="96" type="line"/>
      <point x="144" y="372"/>
      <point x="144" y="514" type="qcurve" smooth="yes"/>
      <point x="144" y="655"/>
      <point x="131" y="756" type="qcurve"/>
      <point x="131" y="760" type="line" smooth="yes"/>
      <point x="131" y="775"/>
      <point x="159" y="799"/>
      <point x="180" y="803" type="qcurve" smooth="yes"/>
      <point x="184" y="804"/>
      <point x="192" y="804" type="qcurve" smooth="yes"/>
      <point x="210" y="804"/>
      <point x="237" y="787"/>
      <point x="239" y="774" type="qcurve" smooth="yes"/>
      <point x="252" y="679"/>
      <point x="252" y="525" type="qcurve" smooth="yes"/>
      <point x="252" y="383"/>
      <point x="234" y="104" type="qcurve"/>
      <point x="234" y="94" type="line" smooth="yes"/>
      <point x="234" y="71"/>
      <point x="261" y="55"/>
      <point x="302" y="55" type="qcurve" smooth="yes"/>
      <point x="324" y="55"/>
      <point x="400" y="59"/>
      <point x="526" y="67"/>
      <point x="585" y="69" type="qcurve" smooth="yes"/>
      <point x="588" y="69" type="line" smooth="yes"/>
      <point x="608" y="69"/>
      <point x="634" y="50"/>
      <point x="634" y="36" type="qcurve" smooth="yes"/>
    </contour>
  </outline>
</glyph>
<glyph name="M" format="1">
  <advance width="900"/>
  <unicode hex="004D"/>
  <outline>
    <contour>
      <point x="115" y="-19" type="qcurve" smooth="yes"/>
      <point x="112" y="-19" type="line" smooth="yes"/>
      <point x="92" y="-19"/>
      <point x="66" y="0"/>
      <point x="66" y="14" type="qcurve" smooth="yes"/>
      <point x="66" y="18" type="line"/>
      <point x="87" y="192"/>
      <point x="102" y="650" type="qcurve" smooth="yes"/>
      <point x="103" y="670"/>
      <point x="106" y="741"/>
      <point x="106" y="755" type="qcurve"/>
      <point x="153" y="793"/>
      <point x="186" y="793" type="qcurve" smooth="yes"/>
      <point x="203" y="793"/>
      <point x="211" y="779" type="qcurve" smooth="yes"/>
      <point x="224" y="757"/>
      <point x="262" y="687" type="qcurve" smooth="yes"/>
      <point x="295" y="627"/>
      <point x="361" y="490"/>
      <point x="400" y="404"/>
      <point x="452" y="283"/>
      <point x="458" y="270" type="qcurve"/>
      <point x="464" y="284"/>
      <point x="554" y="492"/>
      <point x="645" y="687"/>
      <point x="695" y="784" type="qcurve"/>
      <point x="737" y="805"/>
      <point x="766" y="805" type="qcurve" smooth="yes"/>
      <point x="794" y="805"/>
      <point x="794" y="781" type="qcurve" smooth="yes"/>
      <point x="794" y="776"/>
      <point x="795" y="756"/>
      <point x="795" y="751" type="qcurve" smooth="yes"/>
      <point x="806" y="244"/>
      <point x="834" y="39" type="qcurve"/>
      <point x="834" y="35" type="line" smooth="yes"/>
      <point x="834" y="20"/>
      <point x="806" y="-4"/>
      <point x="785" y="-8" type="qcurve" smooth="yes"/>
      <point x="781" y="-9"/>
      <point x="773" y="-9" type="qcurve" smooth="yes"/>
      <point x="755" y="-9"/>
      <point x="728" y="8"/>
      <point x="726" y="21" type="qcurve" smooth="yes"/>
      <point x="705" y="181"/>
      <point x="691" y="598" type="qcurve"/>
      <point x="642" y="499"/>
      <point x="550" y="280"/>
      <point x="503" y="174"/>
      <point x="485" y="158" type="qcurve" smooth="yes"/>
      <point x="461" y="137"/>
      <point x="442" y="137" type="qcurve" smooth="yes"/>
      <point x="426" y="137"/>
      <point x="410" y="153" type="qcurve" smooth="yes"/>
      <point x="396" y="166"/>
      <point x="353" y="270"/>
      <point x="262" y="482"/>
      <point x="207" y="586" type="qcurve"/>
      <point x="192" y="168"/>
      <point x="174" y="22" type="qcurve" smooth="yes"/>
      <point x="172" y="6"/>
      <point x="137" y="-18"/>
    </contour>
  </outline>
</glyph>
<glyph name="N" format="1">
  <advance width="820"/>
  <unicode hex="004E"/>
  <outline>
    <contour>
      <point x="165" y="-14" type="qcurve" smooth="yes"/>
      <point x="157" y="-14" type="line" smooth="yes"/>
      <point x="137" y="-14"/>
      <point x="111" y="5"/>
      <point x="111" y="19" type="qcurve" smooth="yes"/>
      <point x="111" y="47"/>
      <point x="112" y="166"/>
      <point x="112" y="197" type="qcurve" smooth="yes"/>
      <point x="112" y="559"/>
      <point x="97" y="747" type="qcurve" smooth="yes"/>
      <point x="97" y="750"/>
      <point x="96" y="760"/>
      <point x="96" y="762" type="qcurve" smooth="yes"/>
      <point x="141" y="804"/>
      <point x="175" y="804" type="qcurve" smooth="yes"/>
      <point x="191" y="804"/>
      <point x="199" y="792" type="qcurve" smooth="yes"/>
      <point x="265" y="702"/>
      <point x="584" y="220"/>
      <point x="613" y="177" type="qcurve"/>
      <point x="613" y="249" type="line" smooth="yes"/>
      <point x="613" y="617"/>
      <point x="601" y="757" type="qcurve"/>
      <point x="601" y="760" type="line" smooth="yes"/>
      <point x="601" y="775"/>
      <point x="630" y="801"/>
      <point x="652" y="804" type="qcurve" smooth="yes"/>
      <point x="654" y="804"/>
      <point x="660" y="805"/>
      <point x="662" y="805" type="qcurve" smooth="yes"/>
      <point x="681" y="805"/>
      <point x="708" y="787"/>
      <point x="709" y="773" type="qcurve" smooth="yes"/>
      <point x="721" y="624"/>
      <point x="721" y="258" type="qcurve" smooth="yes"/>
      <point x="721" y="145"/>
      <point x="719" y="35" type="qcurve" smooth="yes"/>
      <point x="718" y="-8"/>
      <point x="673" y="-8" type="qcurve" smooth="yes"/>
      <point x="662" y="-8"/>
      <point x="636" y="-2"/>
      <point x="628" y="0" type="qcurve" smooth="yes"/>
      <point x="621" y="3" type="line"/>
      <point x="611" y="13" type="line" smooth="yes"/>
      <point x="590" y="37"/>
      <point x="464" y="228"/>
      <point x="279" y="510"/>
      <point x="215" y="602" type="qcurve"/>
      <point x="220" y="469"/>
      <point x="220" y="246" type="qcurve" smooth="yes"/>
      <point x="220" y="208"/>
      <point x="219" y="64"/>
      <point x="219" y="31" type="qcurve" smooth="yes"/>
      <point x="219" y="15"/>
      <point x="187" y="-12"/>
    </contour>
  </outline>
</glyph>
<glyph name="O" format="1">
  <advance width="830"/>
  <unicode hex="004F"/>
  <outline>
    <contour>
      <point x="593" y="623" type="qcurve"/>
      <point x="574" y="680"/>
      <point x="478" y="742"/>
      <point x="421" y="742" type="qcurve" smooth="yes"/>
      <point x="393" y="742"/>
      <point x="369" y="735" type="qcurve" smooth="yes"/>
      <point x="334" y="726"/>
      <point x="270" y="681"/>
      <point x="210" y="603"/>
      <point x="174" y="477"/>
      <point x="174" y="397" type="qcurve" smooth="yes"/>
      <point x="174" y="310"/>
      <point x="222" y="174"/>
      <point x="300" y="96"/>
      <point x="385" y="57"/>
      <point x="428" y="57" type="qcurve" smooth="yes"/>
      <point x="441" y="57"/>
      <point x="447" y="58" type="qcurve" smooth="yes"/>
      <point x="483" y="62"/>
      <point x="553" y="101"/>
      <point x="619" y="174"/>
      <point x="659" y="299"/>
      <point x="659" y="378" type="qcurve" smooth="yes"/>
      <point x="659" y="433"/>
      <point x="617" y="550"/>
      <point x="601" y="559" type="qcurve" smooth="yes"/>
      <point x="572" y="568"/>
      <point x="572" y="591" type="qcurve" smooth="yes"/>
      <point x="572" y="600"/>
      <point x="577" y="608" type="qcurve" smooth="yes"/>
      <point x="583" y="617"/>
    </contour>
    <contour>
      <point x="686" y="616" type="qcurve"/>
      <point x="727" y="585"/>
      <point x="767" y="459"/>
      <point x="767" y="390" type="qcurve" smooth="yes"/>
      <point x="767" y="217"/>
      <point x="588" y="-5"/>
      <point x="447" y="-20" type="qcurve" smooth="yes"/>
      <point x="421" y="-22"/>
      <point x="409" y="-22" type="qcurve" smooth="yes"/>
      <point x="262" y="-22"/>
      <point x="66" y="199"/>
      <point x="66" y="385" type="qcurve" smooth="yes"/>
      <point x="66" y="555"/>
      <point x="220" y="775"/>
      <point x="346" y="809" type="qcurve" smooth="yes"/>
      <point x="392" y="821"/>
      <point x="438" y="821" type="qcurve" smooth="yes"/>
      <point x="531" y="821"/>
      <point x="674" y="729"/>
      <point x="699" y="652" type="qcurve" smooth="yes"/>
      <point x="700" y="649"/>
      <point x="700" y="644" type="qcurve" smooth="yes"/>
      <point x="700" y="628"/>
    </contour>
  </outline>
</glyph>
<glyph name="P" format="1">
  <advance width="760"/>
  <unicode hex="0050"/>
  <outline>
    <contour>
      <point x="179" y="-24" type="qcurve" smooth="yes"/>
      <point x="172" y="-24" type="line" smooth="yes"/>
      <point x="152" y="-24"/>
      <point x="126" y="-5"/>
      <point x="126" y="9" type="qcurve" smooth="yes"/>
      <point x="126" y="10" type="line"/>
      <point x="130" y="118"/>
      <point x="130" y="262" type="qcurve" smooth="yes"/>
      <point x="130" y="339" type="line"/>
      <point x="94" y="350"/>
      <point x="58" y="365" type="qcurve" smooth="yes"/>
      <point x="36" y="374"/>
      <point x="36" y="394" type="qcurve" smooth="yes"/>
      <point x="36" y="407"/>
      <point x="46" y="418" type="qcurve" smooth="yes"/>
      <point x="65" y="439"/>
      <point x="99" y="439" type="qcurve" smooth="yes"/>
      <point x="113" y="439"/>
      <point x="122" y="435" type="qcurve" smooth="yes"/>
      <point x="123" y="434"/>
      <point x="126" y="434"/>
      <point x="127" y="433" type="qcurve"/>
      <point x="124" y="528"/>
      <point x="116" y="596" type="qcurve"/>
      <point x="116" y="600" type="line" smooth="yes"/>
      <point x="116" y="615"/>
      <point x="144" y="639"/>
      <point x="165" y="643" type="qcurve" smooth="yes"/>
      <point x="169" y="644"/>
      <point x="177" y="644" type="qcurve" smooth="yes"/>
      <point x="195" y="644"/>
      <point x="222" y="627"/>
      <point x="224" y="614" type="qcurve" smooth="yes"/>
      <point x="235" y="541"/>
      <point x="238" y="397" type="qcurve"/>
      <point x="307" y="379"/>
      <point x="368" y="379" type="qcurve" smooth="yes"/>
      <point x="487" y="379"/>
      <point x="549" y="447" type="qcurve" smooth="yes"/>
      <point x="592" y="494"/>
      <point x="592" y="562" type="qcurve" smooth="yes"/>
      <point x="592" y="615"/>
      <point x="534" y="704"/>
      <point x="480" y="726" type="qcurve" smooth="yes"/>
      <point x="436" y="744"/>
      <point x="379" y="744" type="qcurve" smooth="yes"/>
      <point x="260" y="744"/>
      <point x="105" y="668" type="qcurve" smooth="yes"/>
      <point x="91" y="661"/>
      <point x="73" y="661" type="qcurve" smooth="yes"/>
      <point x="46" y="661"/>
      <point x="32" y="677" type="qcurve" smooth="yes"/>
      <point x="26" y="684"/>
      <point x="26" y="694" type="qcurve" smooth="yes"/>
      <point x="26" y="718"/>
      <point x="55" y="732" type="qcurve" smooth="yes"/>
      <point x="241" y="823"/>
      <point x="396" y="823" type="qcurve" smooth="yes"/>
      <point x="476" y="823"/>
      <point x="543" y="796" type="qcurve" smooth="yes"/>
      <point x="621" y="765"/>
      <point x="703" y="646"/>
      <point x="703" y="576" type="qcurve" smooth="yes"/>
      <point x="703" y="484"/>
      <point x="637" y="412" type="qcurve" smooth="yes"/>
      <point x="537" y="302"/>
      <point x="350" y="302" type="qcurve" smooth="yes"/>
      <point x="295" y="302"/>
      <point x="239" y="312" type="qcurve"/>
      <point x="239" y="177"/>
      <point x="234" y="20" type="qcurve" smooth="yes"/>
      <point x="233" y="4"/>
      <point x="201" y="-22"/>
    </contour>
  </outline>
</glyph>
<glyph name="Q" format="1">
  <advance width="830"/>
  <unicode hex="0051"/>
  <outline>
    <contour>
      <point x="547" y="93" type="qcurve"/>
      <point x="604" y="130"/>
      <point x="675" y="273"/>
      <point x="675" y="380" type="qcurve" smooth="yes"/>
      <point x="675" y="444"/>
      <point x="630" y="514"/>
      <point x="598" y="514" type="qcurve" smooth="yes"/>
      <point x="570" y="514"/>
      <point x="520" y="461"/>
      <point x="508" y="401" type="qcurve" smooth="yes"/>
      <point x="501" y="366"/>
      <point x="501" y="320" type="qcurve" smooth="yes"/>
      <point x="501" y="203"/>
    </contour>
    <contour>
      <point x="460" y="58" type="qcurve"/>
      <point x="407" y="184"/>
      <point x="407" y="312" type="qcurve" smooth="yes"/>
      <point x="407" y="364"/>
      <point x="415" y="401" type="qcurve" smooth="yes"/>
      <point x="431" y="479"/>
      <point x="525" y="586"/>
      <point x="612" y="586" type="qcurve" smooth="yes"/>
      <point x="657" y="586"/>
      <point x="721" y="550"/>
      <point x="755" y="490"/>
      <point x="770" y="426"/>
      <point x="770" y="390" type="qcurve" smooth="yes"/>
      <point x="770" y="267"/>
      <point x="667" y="76"/>
      <point x="580" y="27" type="qcurve"/>
      <point x="652" y="-97"/>
      <point x="759" y="-138" type="qcurve" smooth="yes"/>
      <point x="779" y="-146"/>
      <point x="779" y="-164" type="qcurve" smooth="yes"/>
      <point x="779" y="-176"/>
      <point x="770" y="-186" type="qcurve" smooth="yes"/>
      <point x="752" y="-206"/>
      <point x="721" y="-206" type="qcurve" smooth="yes"/>
      <point x="709" y="-206"/>
      <point x="701" y="-202" type="qcurve" smooth="yes"/>
      <point x="575" y="-149"/>
      <point x="493" y="-7" type="qcurve"/>
      <point x="467" y="-13"/>
      <point x="449" y="-15" type="qcurve" smooth="yes"/>
      <point x="435" y="-17"/>
      <point x="408" y="-17" type="qcurve" smooth="yes"/>
      <point x="261" y="-17"/>
      <point x="66" y="201"/>
      <point x="66" y="385" type="qcurve" smooth="yes"/>
      <point x="66" y="555"/>
      <point x="220" y="775"/>
      <point x="346" y="809" type="qcurve" smooth="yes"/>
      <point x="392" y="821"/>
      <point x="438" y="821" type="qcurve" smooth="yes"/>
      <point x="531" y="821"/>
      <point x="674" y="729"/>
      <point x="699" y="652" type="qcurve" smooth="yes"/>
      <point x="700" y="649"/>
      <point x="700" y="644" type="qcurve" smooth="yes"/>
      <point x="700" y="630"/>
      <point x="677" y="606"/>
      <point x="658" y="601" type="qcurve" smooth="yes"/>
      <point x="649" y="598"/>
      <point x="639" y="598" type="qcurve" smooth="yes"/>
      <point x="601" y="598"/>
      <point x="593" y="624" type="qcurve" smooth="yes"/>
      <point x="574" y="681"/>
      <point x="479" y="742"/>
      <point x="421" y="742" type="qcurve" smooth="yes"/>
      <point x="393" y="742"/>
      <point x="369" y="735" type="qcurve" smooth="yes"/>
      <point x="334" y="726"/>
      <point x="270" y="681"/>
      <point x="210" y="603"/>
      <point x="174" y="477"/>
      <point x="174" y="397" type="qcurve" smooth="yes"/>
      <point x="174" y="310"/>
      <point x="223" y="174"/>
      <point x="301" y="96"/>
      <point x="388" y="56"/>
      <point x="432" y="56" type="qcurve" smooth="yes"/>
      <point x="443" y="56"/>
      <point x="449" y="57" type="qcurve" smooth="yes"/>
      <point x="456" y="57"/>
    </contour>
  </outline>
</glyph>
<glyph name="R" format="1">
  <advance width="780"/>
  <unicode hex="0052"/>
  <outline>
    <contour>
      <point x="179" y="-24" type="qcurve" smooth="yes"/>
      <point x="172" y="-24" type="line" smooth="yes"/>
      <point x="152" y="-24"/>
      <point x="126" y="-5"/>
      <point x="126" y="9" type="qcurve" smooth="yes"/>
      <point x="126" y="10" type="line"/>
      <point x="130" y="114"/>
      <point x="130" y="255" type="qcurve" smooth="yes"/>
      <point x="130" y="488"/>
      <point x="116" y="596" type="qcurve"/>
      <point x="116" y="600" type="line" smooth="yes"/>
      <point x="116" y="615"/>
      <point x="144" y="639"/>
      <point x="165" y="643" type="qcurve" smooth="yes"/>
      <point x="169" y="644"/>
      <point x="177" y="644" type="qcurve" smooth="yes"/>
      <point x="195" y="644"/>
      <point x="222" y="627"/>
      <point x="224" y="614" type="qcurve" smooth="yes"/>
      <point x="234" y="546"/>
      <point x="237" y="426" type="qcurve"/>
      <point x="251" y="440"/>
      <point x="268" y="440" type="qcurve" smooth="yes"/>
      <point x="278" y="440"/>
      <point x="289" y="436" type="qcurve" smooth="yes"/>
      <point x="364" y="411"/>
      <point x="425" y="411" type="qcurve" smooth="yes"/>
      <point x="477" y="411"/>
      <point x="514" y="428" type="qcurve" smooth="yes"/>
      <point x="556" y="447"/>
      <point x="605" y="528"/>
      <point x="605" y="574" type="qcurve" smooth="yes"/>
      <point x="605" y="627"/>
      <point x="574" y="668" type="qcurve" smooth="yes"/>
      <point x="517" y="745"/>
      <point x="393" y="745" type="qcurve" smooth="yes"/>
      <point x="270" y="745"/>
      <point x="104" y="668" type="qcurve" smooth="yes"/>
      <point x="90" y="661"/>
      <point x="72" y="661" type="qcurve" smooth="yes"/>
      <point x="43" y="661"/>
      <point x="31" y="678" type="qcurve" smooth="yes"/>
      <point x="26" y="684"/>
      <point x="26" y="694" type="qcurve" smooth="yes"/>
      <point x="26" y="718"/>
      <point x="56" y="732" type="qcurve" smooth="yes"/>
      <point x="252" y="822"/>
      <point x="409" y="822" type="qcurve" smooth="yes"/>
      <point x="500" y="822"/>
      <point x="635" y="764"/>
      <point x="672" y="713" type="qcurve" smooth="yes"/>
      <point x="715" y="655"/>
      <point x="715" y="582" type="qcurve" smooth="yes"/>
      <point x="715" y="516"/>
      <point x="638" y="399"/>
      <point x="562" y="364" type="qcurve" smooth="yes"/>
      <point x="492" y="332"/>
      <point x="409" y="332" type="qcurve" smooth="yes"/>
      <point x="402" y="332" type="line"/>
      <point x="623" y="121"/>
      <point x="732" y="39" type="qcurve" smooth="yes"/>
      <point x="744" y="30"/>
      <point x="744" y="16" type="qcurve" smooth="yes"/>
      <point x="744" y="-3"/>
      <point x="725" y="-16" type="qcurve" smooth="yes"/>
      <point x="708" y="-29"/>
      <point x="682" y="-29" type="qcurve" smooth="yes"/>
      <point x="661" y="-29"/>
      <point x="648" y="-19" type="qcurve" smooth="yes"/>
      <point x="519" y="76"/>
      <point x="238" y="350" type="qcurve"/>
      <point x="238" y="273" type="line" smooth="yes"/>
      <point x="238" y="128"/>
      <point x="234" y="20" type="qcurve" smooth="yes"/>
      <point x="233" y="4"/>
      <point x="201" y="-22"/>
    </contour>
  </outline>
</glyph>
<glyph name="S" format="1">
  <advance width="700"/>
  <unicode hex="0053"/>
  <outline>
    <contour>
      <point x="108" y="199" type="qcurve" smooth="yes"/>
      <point x="120" y="202"/>
      <point x="131" y="202" type="qcurve" smooth="yes"/>
      <point x="165" y="202"/>
      <point x="174" y="179" type="qcurve" smooth="yes"/>
      <point x="224" y="56"/>
      <point x="375" y="56" type="qcurve" smooth="yes"/>
      <point x="476" y="56"/>
      <point x="527" y="124" type="qcurve" smooth="yes"/>
      <point x="555" y="161"/>
      <point x="555" y="203" type="qcurve" smooth="yes"/>
      <point x="555" y="244"/>
      <point x="498" y="312"/>
      <point x="440" y="330" type="qcurve" smooth="yes"/>
      <point x="343" y="363"/>
      <point x="226" y="404" type="qcurve" smooth="yes"/>
      <point x="144" y="431"/>
      <point x="60" y="531"/>
      <point x="60" y="590" type="qcurve" smooth="yes"/>
      <point x="60" y="606"/>
      <point x="63" y="622" type="qcurve" smooth="yes"/>
      <point x="80" y="704"/>
      <point x="260" y="822"/>
      <point x="390" y="822" type="qcurve" smooth="yes"/>
      <point x="489" y="822"/>
      <point x="604" y="719"/>
      <point x="604" y="648" type="qcurve" smooth="yes"/>
      <point x="604" y="641"/>
      <point x="600" y="609"/>
      <point x="564" y="585"/>
      <point x="542" y="584" type="qcurve" smooth="yes"/>
      <point x="540" y="584" type="line" smooth="yes"/>
      <point x="520" y="584"/>
      <point x="494" y="603"/>
      <point x="494" y="617" type="qcurve" smooth="yes"/>
      <point x="494" y="621" type="line" smooth="yes"/>
      <point x="495" y="626"/>
      <point x="495" y="636" type="qcurve" smooth="yes"/>
      <point x="495" y="681"/>
      <point x="425" y="744"/>
      <point x="374" y="744" type="qcurve" smooth="yes"/>
      <point x="288" y="744"/>
      <point x="181" y="674"/>
      <point x="171" y="622" type="qcurve" smooth="yes"/>
      <point x="169" y="608"/>
      <point x="169" y="602" type="qcurve" smooth="yes"/>
      <point x="169" y="565"/>
      <point x="226" y="501"/>
      <point x="284" y="482" type="qcurve" smooth="yes"/>
      <point x="308" y="474"/>
      <point x="479" y="414"/>
      <point x="496" y="408" type="qcurve" smooth="yes"/>
      <point x="579" y="381"/>
      <point x="664" y="278"/>
      <point x="664" y="216" type="qcurve" smooth="yes"/>
      <point x="664" y="152"/>
      <point x="620" y="94" type="qcurve" smooth="yes"/>
      <point x="580" y="43"/>
      <point x="443" y="-22"/>
      <point x="359" y="-22" type="qcurve" smooth="yes"/>
      <point x="249" y="-22"/>
      <point x="101" y="70"/>
      <point x="70" y="147" type="qcurve" smooth="yes"/>
      <point x="68" y="153"/>
      <point x="68" y="157" type="qcurve" smooth="yes"/>
      <point x="68" y="170"/>
      <point x="90" y="194"/>
    </contour>
  </outline>
</glyph>
<glyph name="T" format="1">
  <advance width="720"/>
  <unicode hex="0054"/>
  <outline>
    <contour>
      <point x="684" y="772" type="line" smooth="yes"/>
      <point x="682" y="756"/>
      <point x="647" y="732"/>
      <point x="625" y="731" type="qcurve" smooth="yes"/>
      <point x="425" y="722"/>
      <point x="402" y="722" type="qcurve"/>
      <point x="408" y="707"/>
      <point x="409" y="688" type="qcurve" smooth="yes"/>
      <point x="417" y="572"/>
      <point x="417" y="341" type="qcurve" smooth="yes"/>
      <point x="417" y="205"/>
      <point x="414" y="25" type="qcurve" smooth="yes"/>
      <point x="414" y="9"/>
      <point x="382" y="-17"/>
      <point x="359" y="-19" type="qcurve" smooth="yes"/>
      <point x="352" y="-19" type="line" smooth="yes"/>
      <point x="333" y="-19"/>
      <point x="306" y="1"/>
      <point x="306" y="15" type="qcurve" smooth="yes"/>
      <point x="309" y="195"/>
      <point x="309" y="330" type="qcurve" smooth="yes"/>
      <point x="309" y="557"/>
      <point x="301" y="672" type="qcurve" smooth="yes"/>
      <point x="300" y="688"/>
      <point x="290" y="704"/>
      <point x="279" y="708"/>
      <point x="268" y="709" type="qcurve" smooth="yes"/>
      <point x="248" y="711"/>
      <point x="141" y="717"/>
      <point x="69" y="728"/>
      <point x="52" y="738" type="qcurve" smooth="yes"/>
      <point x="25" y="754"/>
      <point x="25" y="769" type="qcurve" smooth="yes"/>
      <point x="25" y="781"/>
      <point x="55" y="800"/>
      <point x="70" y="804" type="qcurve" smooth="yes"/>
      <point x="85" y="808" type="line" smooth="yes"/>
      <point x="101" y="810"/>
      <point x="115" y="810" type="qcurve" smooth="yes"/>
      <point x="132" y="810"/>
      <point x="310" y="800"/>
      <point x="382" y="800" type="qcurve" smooth="yes"/>
      <point x="386" y="800"/>
      <point x="635" y="809" type="qcurve"/>
      <point x="637" y="809" type="line" smooth="yes"/>
      <point x="657" y="809"/>
      <point x="684" y="790"/>
      <point x="684" y="776" type="qcurve" smooth="yes"/>
    </contour>
  </outline>
</glyph>
<glyph name="U" format="1">
  <advance width="820"/>
  <unicode hex="0055"/>
  <outline>
    <contour>
      <point x="656" y="799" type="qcurve" smooth="yes"/>
      <point x="664" y="799" type="line" smooth="yes"/>
      <point x="684" y="799"/>
      <point x="711" y="780"/>
      <point x="711" y="766" type="qcurve" smooth="yes"/>
      <point x="712" y="682"/>
      <point x="724" y="376"/>
      <point x="724" y="326" type="qcurve" smooth="yes"/>
      <point x="724" y="264"/>
      <point x="714" y="214" type="qcurve" smooth="yes"/>
      <point x="693" y="109"/>
      <point x="538" y="-24"/>
      <point x="402" y="-24" type="qcurve" smooth="yes"/>
      <point x="244" y="-24"/>
      <point x="96" y="143"/>
      <point x="96" y="314" type="qcurve" smooth="yes"/>
      <point x="96" y="358"/>
      <point x="107" y="680"/>
      <point x="107" y="754" type="qcurve" smooth="yes"/>
      <point x="107" y="770"/>
      <point x="139" y="797"/>
      <point x="161" y="799" type="qcurve" smooth="yes"/>
      <point x="169" y="799" type="line" smooth="yes"/>
      <point x="189" y="799"/>
      <point x="215" y="780"/>
      <point x="215" y="766" type="qcurve" smooth="yes"/>
      <point x="215" y="690"/>
      <point x="204" y="368"/>
      <point x="204" y="326" type="qcurve" smooth="yes"/>
      <point x="204" y="171"/>
      <point x="308" y="54"/>
      <point x="418" y="54" type="qcurve" smooth="yes"/>
      <point x="503" y="54"/>
      <point x="590" y="129"/>
      <point x="607" y="214" type="qcurve" smooth="yes"/>
      <point x="616" y="259"/>
      <point x="616" y="314" type="qcurve" smooth="yes"/>
      <point x="616" y="362"/>
      <point x="604" y="668"/>
      <point x="603" y="754" type="qcurve" smooth="yes"/>
      <point x="603" y="770"/>
      <point x="634" y="797"/>
    </contour>
  </outline>
</glyph>
<glyph name="V" format="1">
  <advance width="810"/>
  <unicode hex="0056"/>
  <outline>
    <contour>
      <point x="727" y="791" type="line" smooth="yes"/>
      <point x="745" y="790"/>
      <point x="769" y="771"/>
      <point x="769" y="757" type="qcurve" smooth="yes"/>
      <point x="769" y="752"/>
      <point x="768" y="749" type="qcurve" smooth="yes"/>
      <point x="735" y="639"/>
      <point x="557" y="200"/>
      <point x="455" y="11" type="qcurve"/>
      <point x="417" y="-21"/>
      <point x="386" y="-21" type="qcurve" smooth="yes"/>
      <point x="361" y="-21"/>
      <point x="352" y="6" type="qcurve" smooth="yes"/>
      <point x="350" y="14"/>
      <point x="348" y="19" type="qcurve" smooth="yes"/>
      <point x="284" y="207"/>
      <point x="114" y="632"/>
      <point x="45" y="745" type="qcurve" smooth="yes"/>
      <point x="41" y="750"/>
      <point x="41" y="759" type="qcurve" smooth="yes"/>
      <point x="41" y="786"/>
      <point x="74" y="799" type="qcurve" smooth="yes"/>
      <point x="85" y="804"/>
      <point x="101" y="804" type="qcurve" smooth="yes"/>
      <point x="134" y="804"/>
      <point x="145" y="785" type="qcurve" smooth="yes"/>
      <point x="248" y="615"/>
      <point x="417" y="142" type="qcurve"/>
      <point x="497" y="307"/>
      <point x="637" y="667"/>
      <point x="662" y="755" type="qcurve" smooth="yes"/>
      <point x="666" y="770"/>
      <point x="703" y="791"/>
      <point x="724" y="791" type="qcurve" smooth="yes"/>
    </contour>
  </outline>
</glyph>
<glyph name="W" format="1">
  <advance width="1100"/>
  <unicode hex="0057"/>
  <outline>
    <contour>
      <point x="1014" y="799" type="line" smooth="yes"/>
      <point x="1032" y="798"/>
      <point x="1055" y="778"/>
      <point x="1055" y="765" type="qcurve" smooth="yes"/>
      <point x="1055" y="761"/>
      <point x="1053" y="755" type="qcurve" smooth="yes"/>
      <point x="1033" y="699"/>
      <point x="996" y="582"/>
      <point x="950" y="417"/>
      <point x="923" y="319"/>
      <point x="860" y="75"/>
      <point x="846" y="23" type="qcurve"/>
      <point x="802" y="-10"/>
      <point x="770" y="-10" type="qcurve" smooth="yes"/>
      <point x="749" y="-10"/>
      <point x="742" y="10" type="qcurve" smooth="yes"/>
      <point x="742" y="12"/>
      <point x="740" y="18"/>
      <point x="739" y="20" type="qcurve" smooth="yes"/>
      <point x="720" y="72"/>
      <point x="574" y="519"/>
      <point x="541" y="608" type="qcurve"/>
      <point x="511" y="518"/>
      <point x="373" y="65"/>
      <point x="356" y="16" type="qcurve"/>
      <point x="311" y="-13"/>
      <point x="280" y="-13" type="qcurve" smooth="yes"/>
      <point x="256" y="-13"/>
      <point x="251" y="8" type="qcurve" smooth="yes"/>
      <point x="132" y="487"/>
      <point x="47" y="746" type="qcurve" smooth="yes"/>
      <point x="46" y="749"/>
      <point x="46" y="754" type="qcurve" smooth="yes"/>
      <point x="46" y="768"/>
      <point x="69" y="792"/>
      <point x="88" y="797" type="qcurve" smooth="yes"/>
      <point x="97" y="800"/>
      <point x="107" y="800" type="qcurve" smooth="yes"/>
      <point x="145" y="800"/>
      <point x="153" y="774" type="qcurve" smooth="yes"/>
      <point x="229" y="541"/>
      <point x="318" y="169" type="qcurve"/>
      <point x="331" y="211"/>
      <point x="383" y="391"/>
      <point x="418" y="508"/>
      <point x="460" y="643"/>
      <point x="488" y="724"/>
      <point x="495" y="736" type="qcurve" smooth="yes"/>
      <point x="516" y="772"/>
      <point x="543" y="772" type="qcurve" smooth="yes"/>
      <point x="555" y="772"/>
      <point x="578" y="759"/>
      <point x="584" y="752" type="qcurve" smooth="yes"/>
      <point x="590" y="746" type="line"/>
      <point x="624" y="694"/>
      <point x="794" y="168" type="qcurve"/>
      <point x="798" y="184"/>
      <point x="834" y="337"/>
      <point x="845" y="382"/>
      <point x="875" y="507"/>
      <point x="891" y="566"/>
      <point x="917" y="661"/>
      <point x="940" y="732"/>
      <point x="952" y="765" type="qcurve" smooth="yes"/>
      <point x="966" y="799"/>
      <point x="1009" y="799" type="qcurve" smooth="yes"/>
    </contour>
  </outline>
</glyph>
<glyph name="X" format="1">
  <advance width="780"/>
  <unicode hex="0058"/>
  <outline>
    <contour>
      <point x="122" y="793" type="qcurve" smooth="yes"/>
      <point x="137" y="799"/>
      <point x="152" y="799" type="qcurve" smooth="yes"/>
      <point x="182" y="799"/>
      <point x="194" y="781" type="qcurve" smooth="yes"/>
      <point x="300" y="624"/>
      <point x="382" y="513" type="qcurve"/>
      <point x="504" y="668"/>
      <point x="598" y="777" type="qcurve" smooth="yes"/>
      <point x="618" y="800"/>
      <point x="652" y="800" type="qcurve" smooth="yes"/>
      <point x="659" y="800"/>
      <point x="673" y="796" type="qcurve" smooth="yes"/>
      <point x="697" y="787"/>
      <point x="697" y="766" type="qcurve" smooth="yes"/>
      <point x="697" y="754"/>
      <point x="688" y="743" type="qcurve" smooth="yes"/>
      <point x="542" y="570"/>
      <point x="439" y="436" type="qcurve"/>
      <point x="573" y="256"/>
      <point x="737" y="67" type="qcurve" smooth="yes"/>
      <point x="744" y="59"/>
      <point x="744" y="48" type="qcurve" smooth="yes"/>
      <point x="744" y="26"/>
      <point x="717" y="12" type="qcurve" smooth="yes"/>
      <point x="699" y="4"/>
      <point x="683" y="4" type="qcurve" smooth="yes"/>
      <point x="656" y="4"/>
      <point x="643" y="19" type="qcurve" smooth="yes"/>
      <point x="503" y="181"/>
      <point x="374" y="350" type="qcurve"/>
      <point x="300" y="252"/>
      <point x="133" y="16" type="qcurve" smooth="yes"/>
      <point x="116" y="-9"/>
      <point x="77" y="-9" type="qcurve" smooth="yes"/>
      <point x="65" y="-9"/>
      <point x="59" y="-7" type="qcurve" smooth="yes"/>
      <point x="31" y="1"/>
      <point x="31" y="25" type="qcurve" smooth="yes"/>
      <point x="31" y="35"/>
      <point x="37" y="44" type="qcurve" smooth="yes"/>
      <point x="197" y="270"/>
      <point x="316" y="427" type="qcurve"/>
      <point x="228" y="546"/>
      <point x="96" y="739" type="qcurve" smooth="yes"/>
      <point x="91" y="747"/>
      <point x="91" y="755" type="qcurve" smooth="yes"/>
      <point x="91" y="779"/>
    </contour>
  </outline>
</glyph>
<glyph name="Y" format="1">
  <advance width="720"/>
  <unicode hex="0059"/>
  <outline>
    <contour>
      <point x="647" y="799" type="line" smooth="yes"/>
      <point x="664" y="798"/>
      <point x="685" y="779"/>
      <point x="685" y="766" type="qcurve" smooth="yes"/>
      <point x="685" y="760"/>
      <point x="682" y="754" type="qcurve" smooth="yes"/>
      <point x="614" y="595"/>
      <point x="536" y="472" type="qcurve" smooth="yes"/>
      <point x="513" y="436"/>
      <point x="458" y="356"/>
      <point x="436" y="323"/>
      <point x="419" y="284"/>
      <point x="419" y="265" type="qcurve" smooth="yes"/>
      <point x="418" y="241"/>
      <point x="418" y="194" type="qcurve" smooth="yes"/>
      <point x="418" y="115"/>
      <point x="424" y="28" type="qcurve"/>
      <point x="424" y="25" type="line" smooth="yes"/>
      <point x="424" y="10"/>
      <point x="395" y="-16"/>
      <point x="373" y="-19" type="qcurve" smooth="yes"/>
      <point x="372" y="-19"/>
      <point x="364" y="-20"/>
      <point x="363" y="-20" type="qcurve" smooth="yes"/>
      <point x="344" y="-20"/>
      <point x="317" y="-2"/>
      <point x="316" y="12" type="qcurve" smooth="yes"/>
      <point x="310" y="100"/>
      <point x="310" y="183" type="qcurve" smooth="yes"/>
      <point x="310" y="231"/>
      <point x="311" y="255" type="qcurve" smooth="yes"/>
      <point x="311" y="279"/>
      <point x="319" y="305" type="qcurve"/>
      <point x="249" y="341"/>
      <point x="182" y="448" type="qcurve" smooth="yes"/>
      <point x="99" y="577"/>
      <point x="37" y="755" type="qcurve" smooth="yes"/>
      <point x="35" y="761"/>
      <point x="35" y="764" type="qcurve" smooth="yes"/>
      <point x="35" y="778"/>
      <point x="58" y="802"/>
      <point x="77" y="807" type="qcurve" smooth="yes"/>
      <point x="88" y="810"/>
      <point x="97" y="810" type="qcurve" smooth="yes"/>
      <point x="135" y="810"/>
      <point x="143" y="785" type="qcurve" smooth="yes"/>
      <point x="201" y="617"/>
      <point x="282" y="490" type="qcurve" smooth="yes"/>
      <point x="341" y="400"/>
      <point x="360" y="382" type="qcurve"/>
      <point x="362" y="385"/>
      <point x="420" y="468"/>
      <point x="438" y="496" type="qcurve" smooth="yes"/>
      <point x="512" y="612"/>
      <point x="578" y="766" type="qcurve" smooth="yes"/>
      <point x="584" y="780"/>
      <point x="620" y="799"/>
      <point x="640" y="799" type="qcurve" smooth="yes"/>
    </contour>
  </outline>
</glyph>
<glyph name="Z" format="1">
  <advance width="750"/>
  <unicode hex="005A"/>
  <outline>
    <contour>
      <point x="709" y="51" type="line" smooth="yes"/>
      <point x="707" y="34"/>
      <point x="667" y="7"/>
      <point x="641" y="5" type="qcurve" smooth="yes"/>
      <point x="449" y="-13"/>
      <point x="316" y="-13" type="qcurve" smooth="yes"/>
      <point x="46" y="-13"/>
      <point x="46" y="58" type="qcurve" smooth="yes"/>
      <point x="46" y="85"/>
      <point x="93" y="175"/>
      <point x="197" y="316"/>
      <point x="293" y="436"/>
      <point x="464" y="647"/>
      <point x="517" y="715" type="qcurve"/>
      <point x="407" y="709"/>
      <point x="318" y="709" type="qcurve" smooth="yes"/>
      <point x="232" y="709"/>
      <point x="111" y="715" type="qcurve" smooth="yes"/>
      <point x="91" y="717"/>
      <point x="66" y="733"/>
      <point x="66" y="746" type="qcurve" smooth="yes"/>
      <point x="66" y="752"/>
      <point x="69" y="758" type="qcurve" smooth="yes"/>
      <point x="76" y="774"/>
      <point x="120" y="795"/>
      <point x="144" y="795" type="qcurve" smooth="yes"/>
      <point x="149" y="795" type="line"/>
      <point x="268" y="789"/>
      <point x="347" y="789" type="qcurve" smooth="yes"/>
      <point x="445" y="789"/>
      <point x="626" y="800" type="qcurve"/>
      <point x="640" y="800" type="line" smooth="yes"/>
      <point x="689" y="800"/>
      <point x="689" y="778" type="qcurve" smooth="yes"/>
      <point x="689" y="772"/>
      <point x="682" y="757"/>
      <point x="678" y="753" type="qcurve" smooth="yes"/>
      <point x="675" y="749" type="line" smooth="yes"/>
      <point x="620" y="679"/>
      <point x="451" y="465"/>
      <point x="350" y="337"/>
      <point x="241" y="195"/>
      <point x="183" y="107"/>
      <point x="176" y="85" type="qcurve"/>
      <point x="219" y="74"/>
      <point x="365" y="74" type="qcurve" smooth="yes"/>
      <point x="536" y="74"/>
      <point x="649" y="85" type="qcurve"/>
      <point x="658" y="85" type="line" smooth="yes"/>
      <point x="680" y="85"/>
      <point x="709" y="67"/>
      <point x="709" y="53" type="qcurve" smooth="yes"/>
    </contour>
  </outline>
</glyph>
<glyph name="bracketleft" format="1">
  <advance width="360"/>
  <unicode hex="005B"/>
  <outline>
    <contour>
      <point x="299" y="-60" type="line" smooth="yes"/>
      <point x="297" y="-72"/>
      <point x="270" y="-89"/>
      <point x="254" y="-89" type="qcurve" smooth="yes"/>
      <point x="251" y="-89"/>
      <point x="167" y="-91"/>
      <point x="135" y="-91" type="qcurve" smooth="yes"/>
      <point x="108" y="-91" type="line" smooth="yes"/>
      <point x="93" y="-91"/>
      <point x="75" y="-76"/>
      <point x="75" y="-66" type="qcurve" smooth="yes"/>
      <point x="75" y="-65" type="line"/>
      <point x="92" y="174"/>
      <point x="92" y="407" type="qcurve" smooth="yes"/>
      <point x="92" y="671"/>
      <point x="71" y="853" type="qcurve"/>
      <point x="71" y="858" type="line" smooth="yes"/>
      <point x="71" y="889"/>
      <point x="114" y="889" type="qcurve" smooth="yes"/>
      <point x="118" y="889" type="line" smooth="yes"/>
      <point x="176" y="887"/>
      <point x="219" y="887" type="qcurve" smooth="yes"/>
      <point x="254" y="887"/>
      <point x="262" y="888" type="qcurve" smooth="yes"/>
      <point x="267" y="888" type="line" smooth="yes"/>
      <point x="281" y="888"/>
      <point x="300" y="874"/>
      <point x="300" y="864" type="qcurve" smooth="yes"/>
      <point x="300" y="863" type="line" smooth="yes"/>
      <point x="299" y="851"/>
      <point x="275" y="834"/>
      <point x="258" y="832" type="qcurve" smooth="yes"/>
      <point x="224" y="830"/>
      <point x="186" y="830" type="qcurve" smooth="yes"/>
      <point x="153" y="830" type="line"/>
      <point x="171" y="657"/>
      <point x="171" y="406" type="qcurve" smooth="yes"/>
      <point x="171" y="181"/>
      <point x="156" y="-34" type="qcurve"/>
      <point x="183" y="-34"/>
      <point x="260" y="-31"/>
      <point x="266" y="-31" type="qcurve" smooth="yes"/>
      <point x="280" y="-31"/>
      <point x="299" y="-45"/>
      <point x="299" y="-56" type="qcurve" smooth="yes"/>
    </contour>
  </outline>
</glyph>
<glyph name="backslash" format="1">
  <advance width="480"/>
  <unicode hex="005C"/>
  <outline>
    <contour>
      <point x="71" y="827" type="qcurve" smooth="yes"/>
      <point x="81" y="829"/>
      <point x="85" y="829" type="qcurve" smooth="yes"/>
      <point x="113" y="829"/>
      <point x="119" y="810" type="qcurve" smooth="yes"/>
      <point x="259" y="386"/>
      <point x="438" y="13" type="qcurve" smooth="yes"/>
      <point x="440" y="7"/>
      <point x="440" y="5" type="qcurve" smooth="yes"/>
      <point x="440" y="-15"/>
      <point x="412" y="-26" type="qcurve" smooth="yes"/>
      <point x="403" y="-29"/>
      <point x="395" y="-29" type="qcurve" smooth="yes"/>
      <point x="370" y="-29"/>
      <point x="362" y="-13" type="qcurve" smooth="yes"/>
      <point x="177" y="376"/>
      <point x="41" y="790" type="qcurve" smooth="yes"/>
      <point x="40" y="792"/>
      <point x="40" y="796" type="qcurve" smooth="yes"/>
      <point x="40" y="818"/>
    </contour>
  </outline>
</glyph>
<glyph name="bracketright" format="1">
  <advance width="360"/>
  <unicode hex="005D"/>
  <outline>
    <contour>
      <point x="61" y="858" type="line" smooth="yes"/>
      <point x="63" y="870"/>
      <point x="90" y="887"/>
      <point x="106" y="887" type="qcurve" smooth="yes"/>
      <point x="109" y="887"/>
      <point x="193" y="889"/>
      <point x="225" y="889" type="qcurve" smooth="yes"/>
      <point x="252" y="889" type="line" smooth="yes"/>
      <point x="267" y="889"/>
      <point x="285" y="874"/>
      <point x="285" y="864" type="qcurve" smooth="yes"/>
      <point x="285" y="863" type="line"/>
      <point x="268" y="624"/>
      <point x="268" y="391" type="qcurve" smooth="yes"/>
      <point x="268" y="127"/>
      <point x="289" y="-55" type="qcurve"/>
      <point x="289" y="-60" type="line" smooth="yes"/>
      <point x="289" y="-91"/>
      <point x="246" y="-91" type="qcurve" smooth="yes"/>
      <point x="242" y="-91" type="line" smooth="yes"/>
      <point x="184" y="-89"/>
      <point x="141" y="-89" type="qcurve" smooth="yes"/>
      <point x="106" y="-89"/>
      <point x="98" y="-90" type="qcurve" smooth="yes"/>
      <point x="93" y="-90" type="line" smooth="yes"/>
      <point x="79" y="-90"/>
      <point x="60" y="-76"/>
      <point x="60" y="-66" type="qcurve" smooth="yes"/>
      <point x="60" y="-65" type="line" smooth="yes"/>
      <point x="61" y="-53"/>
      <point x="85" y="-36"/>
      <point x="102" y="-34" type="qcurve" smooth="yes"/>
      <point x="136" y="-32"/>
      <point x="174" y="-32" type="qcurve" smooth="yes"/>
      <point x="207" y="-32" type="line"/>
      <point x="189" y="141"/>
      <point x="189" y="392" type="qcurve" smooth="yes"/>
      <point x="189" y="617"/>
      <point x="204" y="832" type="qcurve"/>
      <point x="177" y="832"/>
      <point x="100" y="829"/>
      <point x="94" y="829" type="qcurve" smooth="yes"/>
      <point x="80" y="829"/>
      <point x="61" y="843"/>
      <point x="61" y="854" type="qcurve" smooth="yes"/>
    </contour>
  </outline>
</glyph>
<glyph name="asciicircum" format="1">
  <advance width="510"/>
  <unicode hex="005E"/>
  <outline>
    <contour>
      <point x="288" y="834" type="qcurve" smooth="yes"/>
      <point x="345" y="777"/>
      <point x="470" y="600"/>
      <point x="483" y="573" type="qcurve" smooth="yes"/>
      <point x="482" y="568"/>
      <point x="478" y="554"/>
      <point x="459" y="531"/>
      <point x="447" y="531" type="qcurve" smooth="yes"/>
      <point x="437" y="531"/>
      <point x="427" y="537" type="qcurve" smooth="yes"/>
      <point x="415" y="544"/>
      <point x="362" y="602"/>
      <point x="282" y="696"/>
      <point x="256" y="724" type="qcurve"/>
      <point x="250" y="717"/>
      <point x="216" y="679"/>
      <point x="201" y="662"/>
      <point x="171" y="629"/>
      <point x="155" y="611"/>
      <point x="130" y="585"/>
      <point x="114" y="570"/>
      <point x="96" y="552"/>
      <point x="82" y="541"/>
      <point x="76" y="538" type="qcurve" smooth="yes"/>
      <point x="59" y="532"/>
      <point x="44" y="532" type="qcurve" smooth="yes"/>
      <point x="23" y="532"/>
      <point x="23" y="547" type="qcurve" smooth="yes"/>
      <point x="23" y="553"/>
      <point x="28" y="565" type="qcurve" smooth="yes"/>
      <point x="39" y="590"/>
      <point x="221" y="826" type="qcurve" smooth="yes"/>
      <point x="235" y="849"/>
      <point x="257" y="849" type="qcurve" smooth="yes"/>
      <point x="273" y="849"/>
    </contour>
  </outline>
</glyph>
<glyph name="underscore" format="1">
  <advance width="600"/>
  <unicode hex="005F"/>
  <outline>
    <contour>
      <point x="32" y="-21" type="qcurve" smooth="yes"/>
      <point x="37" y="-7"/>
      <point x="69" y="11"/>
      <point x="88" y="11" type="qcurve" smooth="yes"/>
      <point x="93" y="11" type="line"/>
      <point x="169" y="4"/>
      <point x="367" y="4" type="qcurve" smooth="yes"/>
      <point x="479" y="4"/>
      <point x="525" y="6" type="qcurve" smooth="yes"/>
      <point x="527" y="6" type="line" smooth="yes"/>
      <point x="545" y="6"/>
      <point x="569" y="-11"/>
      <point x="569" y="-24" type="qcurve" smooth="yes"/>
      <point x="569" y="-28" type="line" smooth="yes"/>
      <point x="567" y="-42"/>
      <point x="535" y="-65"/>
      <point x="515" y="-66" type="qcurve" smooth="yes"/>
      <point x="431" y="-69"/>
      <point x="327" y="-69" type="qcurve" smooth="yes"/>
      <point x="158" y="-69"/>
      <point x="67" y="-61" type="qcurve" smooth="yes"/>
      <point x="51" y="-60"/>
      <point x="30" y="-42"/>
      <point x="30" y="-30" type="qcurve" smooth="yes"/>
      <point x="30" y="-27"/>
    </contour>
  </outline>
</glyph>
<glyph name="grave" format="1">
  <advance width="360"/>
  <unicode hex="0060"/>
  <outline>
    <contour>
      <point x="27" y="798" type="qcurve" smooth="yes"/>
      <point x="53" y="828" type="line" smooth="yes"/>
      <point x="68" y="848"/>
      <point x="89" y="848" type="qcurve" smooth="yes"/>
      <point x="104" y="848"/>
      <point x="119" y="834" type="qcurve" smooth="yes"/>
      <point x="177" y="779"/>
      <point x="312" y="607"/>
      <point x="323" y="583" type="qcurve"/>
      <point x="321" y="541"/>
      <point x="296" y="541" type="qcurve" smooth="yes"/>
      <point x="287" y="541"/>
      <point x="277" y="547" type="qcurve" smooth="yes"/>
      <point x="265" y="554"/>
      <point x="177" y="633"/>
      <point x="63" y="737"/>
      <point x="29" y="764" type="qcurve" smooth="yes"/>
      <point x="20" y="772"/>
      <point x="20" y="782" type="qcurve" smooth="yes"/>
      <point x="20" y="789"/>
    </contour>
  </outline>
</glyph>
<glyph name="a" format="1">
  <advance width="680"/>
  <unicode hex="0061"/>
  <outline>
    <contour>
      <point x="540" y="360" type="line"/>
      <point x="585" y="70"/>
      <point x="633" y="59" type="qcurve" smooth="yes"/>
      <point x="659" y="53"/>
      <point x="659" y="30" type="qcurve" smooth="yes"/>
      <point x="659" y="19"/>
      <point x="654" y="13" type="qcurve" smooth="yes"/>
      <point x="637" y="-11"/>
      <point x="607" y="-11" type="qcurve" smooth="yes"/>
      <point x="602" y="-11"/>
      <point x="592" y="-9" type="qcurve" smooth="yes"/>
      <point x="557" y="1"/>
      <point x="511" y="72"/>
      <point x="491" y="150" type="qcurve"/>
      <point x="467" y="73"/>
      <point x="371" y="-21"/>
      <point x="283" y="-21" type="qcurve" smooth="yes"/>
      <point x="168" y="-21"/>
      <point x="60" y="125"/>
      <point x="60" y="232" type="qcurve" smooth="yes"/>
      <point x="60" y="278"/>
      <point x="69" y="320" type="qcurve" smooth="yes"/>
      <point x="80" y="374"/>
      <point x="128" y="475"/>
      <point x="203" y="566"/>
      <point x="318" y="621"/>
      <point x="386" y="621" type="qcurve" smooth="yes"/>
      <point x="425" y="621"/>
      <point x="485" y="594"/>
      <point x="516" y="558"/>
      <point x="535" y="511"/>
      <point x="539" y="483"/>
      <point x="539" y="472" type="qcurve" smooth="yes"/>
      <point x="539" y="458"/>
      <point x="510" y="434"/>
      <point x="490" y="432" type="qcurve" smooth="yes"/>
      <point x="483" y="432" type="line" smooth="yes"/>
      <point x="465" y="432"/>
      <point x="441" y="449"/>
      <point x="441" y="462" type="qcurve" smooth="yes"/>
      <point x="441" y="486"/>
      <point x="400" y="549"/>
      <point x="372" y="549" type="qcurve" smooth="yes"/>
      <point x="304" y="549"/>
      <point x="188" y="421"/>
      <point x="167" y="320" type="qcurve" smooth="yes"/>
      <point x="159" y="278"/>
      <point x="159" y="244" type="qcurve" smooth="yes"/>
      <point x="159" y="159"/>
      <point x="236" y="51"/>
      <point x="297" y="51" type="qcurve" smooth="yes"/>
      <point x="342" y="51"/>
      <point x="410" y="141"/>
      <point x="427" y="226" type="qcurve" smooth="yes"/>
      <point x="438" y="284"/>
      <point x="441" y="336" type="qcurve" smooth="yes"/>
      <point x="442" y="348"/>
      <point x="460" y="372"/>
      <point x="473" y="372" type="qcurve" smooth="yes"/>
      <point x="491" y="372"/>
      <point x="525" y="366"/>
      <point x="532" y="363" type="qcurve" smooth="yes"/>
    </contour>
  </outline>
</glyph>
<glyph name="b" format="1">
  <advance width="670"/>
  <unicode hex="0062"/>
  <outline>
    <contour>
      <point x="214" y="542" type="qcurve" smooth="yes"/>
      <point x="211" y="548"/>
      <point x="211" y="554" type="qcurve" smooth="yes"/>
      <point x="211" y="578"/>
      <point x="242" y="591" type="qcurve" smooth="yes"/>
      <point x="311" y="617"/>
      <point x="371" y="617" type="qcurve" smooth="yes"/>
      <point x="373" y="617" type="line" smooth="yes"/>
      <point x="434" y="617"/>
      <point x="525" y="571"/>
      <point x="578" y="494"/>
      <point x="603" y="402"/>
      <point x="603" y="350" type="qcurve" smooth="yes"/>
      <point x="603" y="306"/>
      <point x="594" y="264" type="qcurve" smooth="yes"/>
      <point x="584" y="212"/>
      <point x="536" y="116"/>
      <point x="460" y="30"/>
      <point x="343" y="-21"/>
      <point x="273" y="-21" type="qcurve" smooth="yes"/>
      <point x="198" y="-21"/>
      <point x="91" y="66"/>
      <point x="91" y="125" type="qcurve" smooth="yes"/>
      <point x="91" y="178"/>
      <point x="93" y="412"/>
      <point x="93" y="470" type="qcurve" smooth="yes"/>
      <point x="93" y="734"/>
      <point x="81" y="801" type="qcurve"/>
      <point x="81" y="805" type="line" smooth="yes"/>
      <point x="81" y="819"/>
      <point x="105" y="841"/>
      <point x="124" y="845" type="qcurve" smooth="yes"/>
      <point x="128" y="846"/>
      <point x="136" y="846" type="qcurve" smooth="yes"/>
      <point x="153" y="846"/>
      <point x="177" y="831"/>
      <point x="179" y="819" type="qcurve" smooth="yes"/>
      <point x="192" y="744"/>
      <point x="192" y="507" type="qcurve" smooth="yes"/>
      <point x="192" y="445"/>
      <point x="189" y="192"/>
      <point x="189" y="135" type="qcurve" smooth="yes"/>
      <point x="189" y="102"/>
      <point x="254" y="51"/>
      <point x="287" y="51" type="qcurve" smooth="yes"/>
      <point x="364" y="51"/>
      <point x="477" y="167"/>
      <point x="497" y="264" type="qcurve" smooth="yes"/>
      <point x="504" y="299"/>
      <point x="504" y="336" type="qcurve" smooth="yes"/>
      <point x="504" y="426"/>
      <point x="420" y="546"/>
      <point x="357" y="546" type="qcurve" smooth="yes"/>
      <point x="323" y="546"/>
      <point x="278" y="529" type="qcurve" smooth="yes"/>
      <point x="265" y="524"/>
      <point x="253" y="524" type="qcurve" smooth="yes"/>
      <point x="225" y="524"/>
    </contour>
  </outline>
</glyph>
<glyph name="c" format="1">
  <advance width="600"/>
  <unicode hex="0063"/>
  <outline>
    <contour>
      <point x="532" y="141" type="qcurve" smooth="yes"/>
      <point x="562" y="135"/>
      <point x="562" y="110" type="qcurve" smooth="yes"/>
      <point x="562" y="102"/>
      <point x="557" y="94" type="qcurve" smooth="yes"/>
      <point x="529" y="48"/>
      <point x="421" y="-13"/>
      <point x="357" y="-20" type="qcurve" smooth="yes"/>
      <point x="335" y="-22"/>
      <point x="323" y="-22" type="qcurve" smooth="yes"/>
      <point x="209" y="-22"/>
      <point x="58" y="139"/>
      <point x="58" y="290" type="qcurve" smooth="yes"/>
      <point x="58" y="434"/>
      <point x="209" y="610"/>
      <point x="322" y="622" type="qcurve" smooth="yes"/>
      <point x="342" y="624"/>
      <point x="351" y="624" type="qcurve" smooth="yes"/>
      <point x="430" y="624"/>
      <point x="537" y="541"/>
      <point x="537" y="475" type="qcurve" smooth="yes"/>
      <point x="537" y="460"/>
      <point x="506" y="435"/>
      <point x="485" y="433" type="qcurve" smooth="yes"/>
      <point x="478" y="433" type="line" smooth="yes"/>
      <point x="459" y="433"/>
      <point x="433" y="452"/>
      <point x="433" y="465" type="qcurve" smooth="yes"/>
      <point x="433" y="504"/>
      <point x="376" y="548"/>
      <point x="337" y="548" type="qcurve" smooth="yes"/>
      <point x="327" y="548"/>
      <point x="322" y="547" type="qcurve" smooth="yes"/>
      <point x="297" y="544"/>
      <point x="247" y="518"/>
      <point x="195" y="465"/>
      <point x="162" y="365"/>
      <point x="162" y="300" type="qcurve" smooth="yes"/>
      <point x="162" y="231"/>
      <point x="196" y="129"/>
      <point x="252" y="77"/>
      <point x="310" y="54"/>
      <point x="340" y="54" type="qcurve" smooth="yes"/>
      <point x="352" y="54"/>
      <point x="357" y="55" type="qcurve" smooth="yes"/>
      <point x="430" y="63"/>
      <point x="463" y="116" type="qcurve" smooth="yes"/>
      <point x="480" y="143"/>
      <point x="517" y="143" type="qcurve" smooth="yes"/>
      <point x="522" y="143"/>
    </contour>
  </outline>
</glyph>
<glyph name="d" format="1">
  <advance width="720"/>
  <unicode hex="0064"/>
  <outline>
    <contour>
      <point x="523" y="875" type="qcurve" smooth="yes"/>
      <point x="524" y="875"/>
      <point x="532" y="876"/>
      <point x="533" y="876" type="qcurve" smooth="yes"/>
      <point x="550" y="876"/>
      <point x="573" y="860"/>
      <point x="574" y="847" type="qcurve" smooth="yes"/>
      <point x="577" y="800"/>
      <point x="577" y="702" type="qcurve" smooth="yes"/>
      <point x="577" y="647"/>
      <point x="574" y="419"/>
      <point x="574" y="381" type="qcurve" smooth="yes"/>
      <point x="574" y="336" type="line" smooth="yes"/>
      <point x="577" y="223"/>
      <point x="600" y="144" type="qcurve" smooth="yes"/>
      <point x="609" y="114"/>
      <point x="636" y="68"/>
      <point x="655" y="50"/>
      <point x="660" y="49" type="qcurve" smooth="yes"/>
      <point x="689" y="43"/>
      <point x="689" y="20" type="qcurve" smooth="yes"/>
      <point x="689" y="12"/>
      <point x="685" y="5" type="qcurve" smooth="yes"/>
      <point x="669" y="-21"/>
      <point x="634" y="-21" type="qcurve" smooth="yes"/>
      <point x="628" y="-21"/>
      <point x="620" y="-19" type="qcurve" smooth="yes"/>
      <point x="549" y="-1"/>
      <point x="514" y="120" type="qcurve" smooth="yes"/>
      <point x="514" y="122"/>
      <point x="512" y="126"/>
      <point x="512" y="128" type="qcurve"/>
      <point x="481" y="63"/>
      <point x="390" y="-21"/>
      <point x="313" y="-21" type="qcurve" smooth="yes"/>
      <point x="260" y="-21"/>
      <point x="172" y="15"/>
      <point x="116" y="73"/>
      <point x="77" y="151"/>
      <point x="61" y="232"/>
      <point x="61" y="275" type="qcurve" smooth="yes"/>
      <point x="61" y="314"/>
      <point x="69" y="357" type="qcurve" smooth="yes"/>
      <point x="79" y="405"/>
      <point x="122" y="493"/>
      <point x="193" y="570"/>
      <point x="301" y="616"/>
      <point x="367" y="616" type="qcurve" smooth="yes"/>
      <point x="434" y="616"/>
      <point x="479" y="586" type="qcurve"/>
      <point x="479" y="692" type="line" smooth="yes"/>
      <point x="479" y="788"/>
      <point x="476" y="833" type="qcurve" smooth="yes"/>
      <point x="476" y="834" type="line" smooth="yes"/>
      <point x="476" y="848"/>
      <point x="503" y="872"/>
    </contour>
    <contour>
      <point x="476" y="422" type="line"/>
      <point x="450" y="544"/>
      <point x="353" y="544" type="qcurve" smooth="yes"/>
      <point x="284" y="544"/>
      <point x="183" y="444"/>
      <point x="166" y="357" type="qcurve" smooth="yes"/>
      <point x="159" y="325"/>
      <point x="159" y="285" type="qcurve" smooth="yes"/>
      <point x="159" y="185"/>
      <point x="256" y="51"/>
      <point x="327" y="51" type="qcurve" smooth="yes"/>
      <point x="354" y="51"/>
      <point x="413" y="100"/>
      <point x="437" y="151" type="qcurve" smooth="yes"/>
      <point x="463" y="206"/>
      <point x="478" y="285" type="qcurve"/>
      <point x="476" y="311"/>
      <point x="476" y="324" type="qcurve" smooth="yes"/>
      <point x="476" y="371" type="line"/>
    </contour>
  </outline>
</glyph>
<glyph name="e" format="1">
  <advance width="630"/>
  <unicode hex="0065"/>
  <outline>
    <contour>
      <point x="177" y="229" type="line"/>
      <point x="192" y="154"/>
      <point x="266" y="71"/>
      <point x="312" y="58" type="qcurve" smooth="yes"/>
      <point x="333" y="52"/>
      <point x="355" y="52" type="qcurve" smooth="yes"/>
      <point x="395" y="52"/>
      <point x="466" y="87"/>
      <point x="486" y="117" type="qcurve" smooth="yes"/>
      <point x="503" y="141"/>
      <point x="537" y="141" type="qcurve" smooth="yes"/>
      <point x="543" y="141"/>
      <point x="553" y="139" type="qcurve" smooth="yes"/>
      <point x="580" y="131"/>
      <point x="580" y="110" type="qcurve" smooth="yes"/>
      <point x="580" y="100"/>
      <point x="574" y="93" type="qcurve" smooth="yes"/>
      <point x="539" y="42"/>
      <point x="410" y="-20"/>
      <point x="339" y="-20" type="qcurve" smooth="yes"/>
      <point x="299" y="-20"/>
      <point x="265" y="-10" type="qcurve" smooth="yes"/>
      <point x="190" y="10"/>
      <point x="91" y="128"/>
      <point x="76" y="225" type="qcurve"/>
      <point x="45" y="232"/>
      <point x="45" y="253" type="qcurve" smooth="yes"/>
      <point x="45" y="256" type="line" smooth="yes"/>
      <point x="47" y="276"/>
      <point x="71" y="288" type="qcurve"/>
      <point x="71" y="302" type="line" smooth="yes"/>
      <point x="71" y="437"/>
      <point x="223" y="607"/>
      <point x="337" y="621" type="qcurve" smooth="yes"/>
      <point x="361" y="623"/>
      <point x="372" y="623" type="qcurve" smooth="yes"/>
      <point x="456" y="623"/>
      <point x="569" y="531"/>
      <point x="569" y="455" type="qcurve" smooth="yes"/>
      <point x="569" y="269"/>
      <point x="249" y="235" type="qcurve"/>
    </contour>
    <contour>
      <point x="169" y="299" type="line"/>
      <point x="223" y="303"/>
      <point x="249" y="306" type="qcurve" smooth="yes"/>
      <point x="368" y="319"/>
      <point x="471" y="377"/>
      <point x="471" y="445" type="qcurve" smooth="yes"/>
      <point x="471" y="498"/>
      <point x="403" y="552"/>
      <point x="356" y="552" type="qcurve" smooth="yes"/>
      <point x="345" y="552"/>
      <point x="339" y="551" type="qcurve" smooth="yes"/>
      <point x="311" y="548"/>
      <point x="256" y="519"/>
      <point x="202" y="467"/>
      <point x="169" y="373"/>
      <point x="169" y="313" type="qcurve" smooth="yes"/>
      <point x="169" y="301" type="line"/>
    </contour>
  </outline>
</glyph>
<glyph name="g" format="1">
  <advance width="650"/>
  <unicode hex="0067"/>
  <outline>
    <contour>
      <point x="539" y="356" type="line"/>
      <point x="582" y="189"/>
      <point x="582" y="57" type="qcurve" smooth="yes"/>
      <point x="582" y="-7"/>
      <point x="572" y="-57" type="qcurve" smooth="yes"/>
      <point x="554" y="-149"/>
      <point x="435" y="-266"/>
      <point x="333" y="-266" type="qcurve" smooth="yes"/>
      <point x="277" y="-266"/>
      <point x="180" y="-225"/>
      <point x="155" y="-190" type="qcurve" smooth="yes"/>
      <point x="150" y="-183"/>
      <point x="150" y="-176" type="qcurve" smooth="yes"/>
      <point x="150" y="-153"/>
      <point x="179" y="-140" type="qcurve" smooth="yes"/>
      <point x="192" y="-134"/>
      <point x="206" y="-134" type="qcurve" smooth="yes"/>
      <point x="232" y="-134"/>
      <point x="245" y="-150" type="qcurve" smooth="yes"/>
      <point x="276" y="-194"/>
      <point x="347" y="-194" type="qcurve" smooth="yes"/>
      <point x="398" y="-194"/>
      <point x="465" y="-132"/>
      <point x="480" y="-57" type="qcurve" smooth="yes"/>
      <point x="493" y="6"/>
      <point x="493" y="78" type="qcurve" smooth="yes"/>
      <point x="493" y="127"/>
      <point x="488" y="166" type="qcurve"/>
      <point x="430" y="-21"/>
      <point x="283" y="-21" type="qcurve" smooth="yes"/>
      <point x="168" y="-21"/>
      <point x="60" y="125"/>
      <point x="60" y="232" type="qcurve" smooth="yes"/>
      <point x="60" y="278"/>
      <point x="69" y="320" type="qcurve" smooth="yes"/>
      <point x="80" y="374"/>
      <point x="128" y="475"/>
      <point x="203" y="566"/>
      <point x="318" y="621"/>
      <point x="386" y="621" type="qcurve" smooth="yes"/>
      <point x="425" y="621"/>
      <point x="485" y="594"/>
      <point x="516" y="558"/>
      <point x="535" y="511"/>
      <point x="539" y="483"/>
      <point x="539" y="472" type="qcurve" smooth="yes"/>
      <point x="539" y="458"/>
      <point x="510" y="434"/>
      <point x="490" y="432" type="qcurve" smooth="yes"/>
      <point x="483" y="432" type="line" smooth="yes"/>
      <point x="465" y="432"/>
      <point x="441" y="449"/>
      <point x="441" y="462" type="qcurve" smooth="yes"/>
      <point x="441" y="486"/>
      <point x="400" y="549"/>
      <point x="372" y="549" type="qcurve" smooth="yes"/>
      <point x="304" y="549"/>
      <point x="188" y="421"/>
      <point x="167" y="320" type="qcurve" smooth="yes"/>
      <point x="159" y="278"/>
      <point x="159" y="244" type="qcurve" smooth="yes"/>
      <point x="159" y="159"/>
      <point x="236" y="51"/>
      <point x="297" y="51" type="qcurve" smooth="yes"/>
      <point x="342" y="51"/>
      <point x="410" y="141"/>
      <point x="427" y="226" type="qcurve" smooth="yes"/>
      <point x="438" y="284"/>
      <point x="441" y="336" type="qcurve" smooth="yes"/>
      <point x="442" y="352"/>
      <point x="460" y="376"/>
      <point x="477" y="376" type="qcurve" smooth="yes"/>
      <point x="488" y="376"/>
      <point x="519" y="366"/>
      <point x="529" y="361" type="qcurve" smooth="yes"/>
    </contour>
  </outline>
</glyph>
<glyph name="h" format="1">
  <advance width="670"/>
  <unicode hex="0068"/>
  <outline>
    <contour>
      <point x="133" y="-14" type="qcurve" smooth="yes"/>
      <point x="122" y="-14"/>
      <point x="106" y="4"/>
      <point x="106" y="15" type="qcurve" smooth="yes"/>
      <point x="105" y="248"/>
      <point x="81" y="775"/>
      <point x="67" y="811" type="qcurve" smooth="yes"/>
      <point x="65" y="817"/>
      <point x="65" y="820" type="qcurve" smooth="yes"/>
      <point x="65" y="846"/>
      <point x="102" y="858" type="qcurve" smooth="yes"/>
      <point x="111" y="861"/>
      <point x="122" y="861" type="qcurve" smooth="yes"/>
      <point x="155" y="861"/>
      <point x="163" y="839" type="qcurve" smooth="yes"/>
      <point x="186" y="783"/>
      <point x="197" y="425" type="qcurve"/>
      <point x="263" y="621"/>
      <point x="432" y="621" type="qcurve" smooth="yes"/>
      <point x="482" y="621"/>
      <point x="547" y="582"/>
      <point x="578" y="506"/>
      <point x="589" y="427"/>
      <point x="589" y="370" type="qcurve" smooth="yes"/>
      <point x="589" y="293"/>
      <point x="594" y="31" type="qcurve" smooth="yes"/>
      <point x="594" y="17"/>
      <point x="566" y="-8"/>
      <point x="546" y="-10" type="qcurve" smooth="yes"/>
      <point x="538" y="-10" type="line" smooth="yes"/>
      <point x="520" y="-10"/>
      <point x="496" y="6"/>
      <point x="496" y="19" type="qcurve" smooth="yes"/>
      <point x="491" y="282"/>
      <point x="491" y="360" type="qcurve" smooth="yes"/>
      <point x="491" y="461"/>
      <point x="449" y="549"/>
      <point x="418" y="549" type="qcurve" smooth="yes"/>
      <point x="298" y="549"/>
      <point x="249" y="324" type="qcurve" smooth="yes"/>
      <point x="238" y="275"/>
      <point x="223" y="200"/>
      <point x="214" y="130"/>
      <point x="211" y="101"/>
      <point x="205" y="23"/>
      <point x="204" y="12" type="qcurve"/>
      <point x="164" y="-14"/>
    </contour>
  </outline>
</glyph>
<glyph name="i" format="1">
  <advance width="340"/>
  <unicode hex="0069"/>
  <outline>
    <contour>
      <point x="236" y="842" type="qcurve" smooth="yes"/>
      <point x="254" y="824"/>
      <point x="254" y="801" type="qcurve" smooth="yes"/>
      <point x="254" y="792"/>
      <point x="253" y="788" type="qcurve" smooth="yes"/>
      <point x="249" y="765"/>
      <point x="198" y="725"/>
      <point x="160" y="725" type="qcurve" smooth="yes"/>
      <point x="125" y="725"/>
      <point x="86" y="761"/>
      <point x="86" y="786" type="qcurve" smooth="yes"/>
      <point x="86" y="810"/>
      <point x="132" y="862"/>
      <point x="180" y="862" type="qcurve" smooth="yes"/>
      <point x="188" y="862"/>
      <point x="196" y="860" type="qcurve" smooth="yes"/>
      <point x="212" y="856" type="line" smooth="yes"/>
      <point x="228" y="851"/>
    </contour>
    <contour>
      <point x="228" y="-8" type="qcurve" smooth="yes"/>
      <point x="210" y="-21"/>
      <point x="187" y="-21" type="qcurve" smooth="yes"/>
      <point x="171" y="-21"/>
      <point x="158" y="-13" type="qcurve" smooth="yes"/>
      <point x="114" y="18"/>
      <point x="114" y="98" type="qcurve" smooth="yes"/>
      <point x="114" y="116"/>
      <point x="116" y="158" type="qcurve" smooth="yes"/>
      <point x="118" y="227"/>
      <point x="118" y="333" type="qcurve" smooth="yes"/>
      <point x="118" y="374"/>
      <point x="116" y="564" type="qcurve" smooth="yes"/>
      <point x="116" y="578"/>
      <point x="145" y="603"/>
      <point x="165" y="605" type="qcurve" smooth="yes"/>
      <point x="173" y="605" type="line" smooth="yes"/>
      <point x="190" y="605"/>
      <point x="214" y="589"/>
      <point x="214" y="576" type="qcurve" smooth="yes"/>
      <point x="216" y="386"/>
      <point x="216" y="344" type="qcurve" smooth="yes"/>
      <point x="216" y="238"/>
      <point x="214" y="168" type="qcurve" smooth="yes"/>
      <point x="214" y="145" type="line" smooth="yes"/>
      <point x="214" y="54"/>
      <point x="232" y="43" type="qcurve" smooth="yes"/>
      <point x="244" y="34"/>
      <point x="244" y="21" type="qcurve" smooth="yes"/>
      <point x="244" y="4"/>
    </contour>
  </outline>
</glyph>
<glyph name="j" format="1">
  <advance width="340"/>
  <unicode hex="006A"/>
  <outline>
    <contour>
      <point x="236" y="842" type="qcurve" smooth="yes"/>
      <point x="254" y="824"/>
      <point x="254" y="801" type="qcurve" smooth="yes"/>
      <point x="254" y="792"/>
      <point x="253" y="788" type="qcurve" smooth="yes"/>
      <point x="249" y="765"/>
      <point x="198" y="725"/>
      <point x="160" y="725" type="qcurve" smooth="yes"/>
      <point x="125" y="725"/>
      <point x="86" y="761"/>
      <point x="86" y="786" type="qcurve" smooth="yes"/>
      <point x="86" y="810"/>
      <point x="132" y="862"/>
      <point x="180" y="862" type="qcurve" smooth="yes"/>
      <point x="188" y="862"/>
      <point x="196" y="860" type="qcurve" smooth="yes"/>
      <point x="212" y="856" type="line" smooth="yes"/>
      <point x="228" y="851"/>
    </contour>
    <contour>
      <point x="172" y="605" type="qcurve" smooth="yes"/>
      <point x="174" y="605"/>
      <point x="180" y="606"/>
      <point x="182" y="606" type="qcurve" smooth="yes"/>
      <point x="199" y="606"/>
      <point x="222" y="590"/>
      <point x="224" y="577" type="qcurve" smooth="yes"/>
      <point x="244" y="350"/>
      <point x="244" y="15" type="qcurve" smooth="yes"/>
      <point x="244" y="-90"/>
      <point x="174" y="-212"/>
      <point x="98" y="-241" type="qcurve" smooth="yes"/>
      <point x="85" y="-246"/>
      <point x="73" y="-246" type="qcurve" smooth="yes"/>
      <point x="45" y="-246"/>
      <point x="34" y="-228" type="qcurve" smooth="yes"/>
      <point x="31" y="-222"/>
      <point x="31" y="-216" type="qcurve" smooth="yes"/>
      <point x="31" y="-192"/>
      <point x="62" y="-179" type="qcurve" smooth="yes"/>
      <point x="102" y="-164"/>
      <point x="146" y="-87"/>
      <point x="146" y="5" type="qcurve" smooth="yes"/>
      <point x="146" y="339"/>
      <point x="126" y="563" type="qcurve"/>
      <point x="126" y="566" type="line" smooth="yes"/>
      <point x="126" y="580"/>
      <point x="153" y="602"/>
    </contour>
  </outline>
</glyph>
<glyph name="k" format="1">
  <advance width="620"/>
  <unicode hex="006B"/>
  <outline>
    <contour>
      <point x="112" y="843" type="qcurve" smooth="yes"/>
      <point x="121" y="846"/>
      <point x="132" y="846" type="qcurve" smooth="yes"/>
      <point x="165" y="846"/>
      <point x="173" y="824" type="qcurve" smooth="yes"/>
      <point x="195" y="768"/>
      <point x="204" y="414" type="qcurve"/>
      <point x="369" y="505"/>
      <point x="464" y="590" type="qcurve" smooth="yes"/>
      <point x="482" y="606"/>
      <point x="509" y="606" type="qcurve" smooth="yes"/>
      <point x="524" y="606"/>
      <point x="534" y="600" type="qcurve" smooth="yes"/>
      <point x="549" y="591"/>
      <point x="549" y="576" type="qcurve" smooth="yes"/>
      <point x="549" y="562"/>
      <point x="536" y="550" type="qcurve" smooth="yes"/>
      <point x="440" y="466"/>
      <point x="217" y="347" type="qcurve"/>
      <point x="278" y="317"/>
      <point x="409" y="222"/>
      <point x="509" y="127"/>
      <point x="569" y="64"/>
      <point x="584" y="46" type="qcurve" smooth="yes"/>
      <point x="590" y="38"/>
      <point x="590" y="30" type="qcurve" smooth="yes"/>
      <point x="590" y="9"/>
      <point x="563" y="-4" type="qcurve" smooth="yes"/>
      <point x="550" y="-11"/>
      <point x="533" y="-11" type="qcurve" smooth="yes"/>
      <point x="508" y="-11"/>
      <point x="496" y="4" type="qcurve" smooth="yes"/>
      <point x="349" y="179"/>
      <point x="207" y="265" type="qcurve"/>
      <point x="209" y="99"/>
      <point x="209" y="25" type="qcurve" smooth="yes"/>
      <point x="209" y="11"/>
      <point x="180" y="-13"/>
      <point x="160" y="-15" type="qcurve" smooth="yes"/>
      <point x="153" y="-15" type="line" smooth="yes"/>
      <point x="135" y="-15"/>
      <point x="111" y="2"/>
      <point x="111" y="15" type="qcurve" smooth="yes"/>
      <point x="111" y="105"/>
      <point x="107" y="311" type="qcurve" smooth="yes"/>
      <point x="106" y="311"/>
      <point x="106" y="312"/>
      <point x="105" y="312" type="qcurve" smooth="yes"/>
      <point x="69" y="318"/>
      <point x="69" y="333" type="qcurve" smooth="yes"/>
      <point x="69" y="347"/>
      <point x="105" y="364" type="qcurve"/>
      <point x="94" y="755"/>
      <point x="77" y="796" type="qcurve" smooth="yes"/>
      <point x="75" y="802"/>
      <point x="75" y="805" type="qcurve" smooth="yes"/>
      <point x="75" y="831"/>
    </contour>
  </outline>
</glyph>
<glyph name="l" format="1">
  <advance width="360"/>
  <unicode hex="006C"/>
  <outline>
    <contour>
      <point x="320" y="3" type="qcurve" smooth="yes"/>
      <point x="303" y="-23"/>
      <point x="268" y="-23" type="qcurve" smooth="yes"/>
      <point x="262" y="-23"/>
      <point x="254" y="-21" type="qcurve" smooth="yes"/>
      <point x="117" y="12"/>
      <point x="111" y="145" type="qcurve" smooth="yes"/>
      <point x="106" y="271"/>
      <point x="106" y="415" type="qcurve" smooth="yes"/>
      <point x="106" y="428"/>
      <point x="111" y="800" type="qcurve" smooth="yes"/>
      <point x="111" y="814"/>
      <point x="140" y="838"/>
      <point x="160" y="840" type="qcurve" smooth="yes"/>
      <point x="167" y="840" type="line" smooth="yes"/>
      <point x="185" y="840"/>
      <point x="209" y="823"/>
      <point x="209" y="810" type="qcurve" smooth="yes"/>
      <point x="204" y="437"/>
      <point x="204" y="425" type="qcurve" smooth="yes"/>
      <point x="204" y="283"/>
      <point x="209" y="157" type="qcurve" smooth="yes"/>
      <point x="210" y="126"/>
      <point x="226" y="83"/>
      <point x="256" y="61"/>
      <point x="279" y="51"/>
      <point x="296" y="47" type="qcurve" smooth="yes"/>
      <point x="325" y="41"/>
      <point x="325" y="18" type="qcurve" smooth="yes"/>
      <point x="325" y="11"/>
    </contour>
  </outline>
</glyph>
<glyph name="m" format="1">
  <advance width="965"/>
  <unicode hex="006D"/>
  <outline>
    <contour>
      <point x="463" y="-10" type="qcurve" smooth="yes"/>
      <point x="452" y="-10"/>
      <point x="436" y="8"/>
      <point x="436" y="19" type="qcurve" smooth="yes"/>
      <point x="436" y="78"/>
      <point x="441" y="259"/>
      <point x="441" y="290" type="qcurve" smooth="yes"/>
      <point x="441" y="395"/>
      <point x="417" y="513"/>
      <point x="381" y="549"/>
      <point x="353" y="549" type="qcurve" smooth="yes"/>
      <point x="309" y="549"/>
      <point x="238" y="461"/>
      <point x="224" y="366" type="qcurve" smooth="yes"/>
      <point x="212" y="289"/>
      <point x="201" y="166"/>
      <point x="195" y="21"/>
      <point x="194" y="7" type="qcurve"/>
      <point x="159" y="-19"/>
      <point x="123" y="-19" type="qcurve" smooth="yes"/>
      <point x="112" y="-19"/>
      <point x="96" y="-1"/>
      <point x="96" y="10" type="qcurve" smooth="yes"/>
      <point x="93" y="421"/>
      <point x="76" y="572" type="qcurve"/>
      <point x="76" y="575" type="line" smooth="yes"/>
      <point x="76" y="589"/>
      <point x="102" y="612"/>
      <point x="121" y="615" type="qcurve" smooth="yes"/>
      <point x="125" y="616"/>
      <point x="131" y="616" type="qcurve" smooth="yes"/>
      <point x="166" y="616"/>
      <point x="169" y="588" type="qcurve" smooth="yes"/>
      <point x="174" y="537"/>
      <point x="177" y="461" type="qcurve"/>
      <point x="229" y="621"/>
      <point x="367" y="621" type="qcurve" smooth="yes"/>
      <point x="434" y="621"/>
      <point x="506" y="547"/>
      <point x="521" y="474" type="qcurve"/>
      <point x="574" y="621"/>
      <point x="707" y="621" type="qcurve" smooth="yes"/>
      <point x="750" y="621"/>
      <point x="812" y="590"/>
      <point x="850" y="537"/>
      <point x="872" y="452"/>
      <point x="879" y="362"/>
      <point x="879" y="300" type="qcurve" smooth="yes"/>
      <point x="879" y="267"/>
      <point x="874" y="86"/>
      <point x="874" y="30" type="qcurve" smooth="yes"/>
      <point x="874" y="16"/>
      <point x="845" y="-8"/>
      <point x="825" y="-10" type="qcurve" smooth="yes"/>
      <point x="818" y="-10" type="line" smooth="yes"/>
      <point x="800" y="-10"/>
      <point x="776" y="7"/>
      <point x="776" y="20" type="qcurve" smooth="yes"/>
      <point x="776" y="77"/>
      <point x="781" y="258"/>
      <point x="781" y="290" type="qcurve" smooth="yes"/>
      <point x="781" y="395"/>
      <point x="757" y="513"/>
      <point x="721" y="549"/>
      <point x="693" y="549" type="qcurve" smooth="yes"/>
      <point x="649" y="549"/>
      <point x="578" y="461"/>
      <point x="564" y="366" type="qcurve" smooth="yes"/>
      <point x="552" y="288"/>
      <point x="541" y="173"/>
      <point x="535" y="27"/>
      <point x="534" y="16" type="qcurve"/>
      <point x="499" y="-10"/>
    </contour>
  </outline>
</glyph>
<glyph name="n" format="1">
  <advance width="660"/>
  <unicode hex="006E"/>
  <outline>
    <contour>
      <point x="130" y="-15" type="qcurve" smooth="yes"/>
      <point x="116" y="-15"/>
      <point x="96" y="3"/>
      <point x="96" y="15" type="qcurve" smooth="yes"/>
      <point x="94" y="468"/>
      <point x="57" y="566" type="qcurve" smooth="yes"/>
      <point x="55" y="572"/>
      <point x="55" y="575" type="qcurve" smooth="yes"/>
      <point x="55" y="601"/>
      <point x="92" y="613" type="qcurve" smooth="yes"/>
      <point x="101" y="616"/>
      <point x="112" y="616" type="qcurve" smooth="yes"/>
      <point x="145" y="616"/>
      <point x="153" y="594" type="qcurve" smooth="yes"/>
      <point x="172" y="545"/>
      <point x="183" y="399" type="qcurve"/>
      <point x="196" y="444"/>
      <point x="229" y="514"/>
      <point x="283" y="583"/>
      <point x="368" y="621"/>
      <point x="422" y="621" type="qcurve" smooth="yes"/>
      <point x="472" y="621"/>
      <point x="537" y="582"/>
      <point x="568" y="506"/>
      <point x="579" y="427"/>
      <point x="579" y="370" type="qcurve" smooth="yes"/>
      <point x="579" y="293"/>
      <point x="584" y="31" type="qcurve" smooth="yes"/>
      <point x="584" y="17"/>
      <point x="556" y="-8"/>
      <point x="536" y="-10" type="qcurve" smooth="yes"/>
      <point x="528" y="-10" type="line" smooth="yes"/>
      <point x="510" y="-10"/>
      <point x="486" y="6"/>
      <point x="486" y="19" type="qcurve" smooth="yes"/>
      <point x="481" y="282"/>
      <point x="481" y="360" type="qcurve" smooth="yes"/>
      <point x="481" y="461"/>
      <point x="439" y="549"/>
      <point x="408" y="549" type="qcurve" smooth="yes"/>
      <point x="293" y="549"/>
      <point x="244" y="324" type="qcurve" smooth="yes"/>
      <point x="218" y="206"/>
      <point x="201" y="93"/>
      <point x="194" y="10" type="qcurve"/>
      <point x="161" y="-15"/>
    </contour>
  </outline>
</glyph>
<glyph name="o" format="1">
  <advance width="660"/>
  <unicode hex="006F"/>
  <outline>
    <contour>
      <point x="456" y="471" type="qcurve"/>
      <point x="442" y="511"/>
      <point x="374" y="552"/>
      <point x="334" y="552" type="qcurve" smooth="yes"/>
      <point x="317" y="552"/>
      <point x="297" y="547" type="qcurve" smooth="yes"/>
      <point x="244" y="532"/>
      <point x="159" y="411"/>
      <point x="159" y="300" type="qcurve" smooth="yes"/>
      <point x="159" y="235"/>
      <point x="195" y="135"/>
      <point x="252" y="79"/>
      <point x="313" y="51"/>
      <point x="343" y="51" type="qcurve" smooth="yes"/>
      <point x="345" y="51"/>
      <point x="353" y="52"/>
      <point x="355" y="52" type="qcurve" smooth="yes"/>
      <point x="411" y="58"/>
      <point x="506" y="173"/>
      <point x="506" y="285" type="qcurve" smooth="yes"/>
      <point x="506" y="324"/>
      <point x="478" y="408"/>
      <point x="466" y="416" type="qcurve" smooth="yes"/>
      <point x="441" y="424"/>
      <point x="441" y="444" type="qcurve" smooth="yes"/>
      <point x="441" y="454"/>
      <point x="446" y="460" type="qcurve" smooth="yes"/>
      <point x="449" y="466"/>
    </contour>
    <contour>
      <point x="546" y="465" type="qcurve"/>
      <point x="604" y="414"/>
      <point x="604" y="295" type="qcurve" smooth="yes"/>
      <point x="604" y="164"/>
      <point x="467" y="-7"/>
      <point x="356" y="-19" type="qcurve" smooth="yes"/>
      <point x="336" y="-21"/>
      <point x="325" y="-21" type="qcurve" smooth="yes"/>
      <point x="211" y="-21"/>
      <point x="61" y="149"/>
      <point x="61" y="290" type="qcurve" smooth="yes"/>
      <point x="61" y="420"/>
      <point x="178" y="588"/>
      <point x="277" y="614" type="qcurve" smooth="yes"/>
      <point x="313" y="624"/>
      <point x="350" y="624" type="qcurve" smooth="yes"/>
      <point x="422" y="624"/>
      <point x="534" y="552"/>
      <point x="553" y="493" type="qcurve" smooth="yes"/>
      <point x="554" y="491"/>
      <point x="554" y="486" type="qcurve" smooth="yes"/>
      <point x="554" y="476"/>
    </contour>
  </outline>
</glyph>
<glyph name="p" format="1">
  <advance width="680"/>
  <unicode hex="0070"/>
  <outline>
    <contour>
      <point x="147" y="-246" type="qcurve" smooth="yes"/>
      <point x="142" y="-246" type="line" smooth="yes"/>
      <point x="124" y="-246"/>
      <point x="101" y="-227"/>
      <point x="101" y="-214" type="qcurve" smooth="yes"/>
      <point x="101" y="-213" type="line"/>
      <point x="108" y="-121"/>
      <point x="108" y="89" type="qcurve" smooth="yes"/>
      <point x="108" y="174"/>
      <point x="106" y="264" type="qcurve" smooth="yes"/>
      <point x="103" y="367"/>
      <point x="71" y="532"/>
      <point x="46" y="565" type="qcurve" smooth="yes"/>
      <point x="41" y="573"/>
      <point x="41" y="580" type="qcurve" smooth="yes"/>
      <point x="41" y="601"/>
      <point x="68" y="614" type="qcurve" smooth="yes"/>
      <point x="81" y="620"/>
      <point x="96" y="620" type="qcurve" smooth="yes"/>
      <point x="118" y="620"/>
      <point x="129" y="605" type="qcurve" smooth="yes"/>
      <point x="158" y="560"/>
      <point x="172" y="476" type="qcurve"/>
      <point x="227" y="621"/>
      <point x="367" y="621" type="qcurve" smooth="yes"/>
      <point x="434" y="621"/>
      <point x="535" y="569"/>
      <point x="593" y="480"/>
      <point x="622" y="377"/>
      <point x="622" y="320" type="qcurve" smooth="yes"/>
      <point x="622" y="278"/>
      <point x="614" y="235" type="qcurve" smooth="yes"/>
      <point x="604" y="188"/>
      <point x="563" y="104"/>
      <point x="497" y="29"/>
      <point x="395" y="-16"/>
      <point x="333" y="-16" type="qcurve" smooth="yes"/>
      <point x="255" y="-16"/>
      <point x="203" y="33" type="qcurve"/>
      <point x="203" y="-32" type="line" smooth="yes"/>
      <point x="203" y="-151"/>
      <point x="199" y="-207" type="qcurve" smooth="yes"/>
      <point x="198" y="-221"/>
      <point x="167" y="-244"/>
    </contour>
    <contour>
      <point x="202" y="174" type="line"/>
      <point x="217" y="124"/>
      <point x="290" y="56"/>
      <point x="347" y="56" type="qcurve" smooth="yes"/>
      <point x="407" y="56"/>
      <point x="499" y="151"/>
      <point x="516" y="235" type="qcurve" smooth="yes"/>
      <point x="523" y="269"/>
      <point x="523" y="307" type="qcurve" smooth="yes"/>
      <point x="523" y="407"/>
      <point x="426" y="549"/>
      <point x="353" y="549" type="qcurve" smooth="yes"/>
      <point x="248" y="549"/>
      <point x="208" y="348" type="qcurve" smooth="yes"/>
      <point x="202" y="316"/>
      <point x="199" y="301" type="qcurve" smooth="yes"/>
    </contour>
  </outline>
</glyph>
<glyph name="q" format="1">
  <advance width="670"/>
  <unicode hex="0071"/>
  <outline>
    <contour>
      <point x="451" y="58" type="qcurve" smooth="yes"/>
      <point x="454" y="52"/>
      <point x="454" y="46" type="qcurve" smooth="yes"/>
      <point x="454" y="22"/>
      <point x="423" y="9" type="qcurve" smooth="yes"/>
      <point x="354" y="-17"/>
      <point x="293" y="-17" type="qcurve" smooth="yes"/>
      <point x="231" y="-17"/>
      <point x="138" y="29"/>
      <point x="85" y="107"/>
      <point x="59" y="200"/>
      <point x="59" y="253" type="qcurve" smooth="yes"/>
      <point x="59" y="298"/>
      <point x="68" y="339" type="qcurve" smooth="yes"/>
      <point x="78" y="391"/>
      <point x="126" y="486"/>
      <point x="201" y="570"/>
      <point x="317" y="621"/>
      <point x="387" y="621" type="qcurve" smooth="yes"/>
      <point x="462" y="621"/>
      <point x="569" y="534"/>
      <point x="569" y="475" type="qcurve" smooth="yes"/>
      <point x="569" y="396"/>
      <point x="557" y="82"/>
      <point x="557" y="17" type="qcurve" smooth="yes"/>
      <point x="557" y="-160"/>
      <point x="578" y="-186" type="qcurve"/>
      <point x="579" y="-185" type="line" smooth="yes"/>
      <point x="580" y="-184"/>
      <point x="581" y="-184" type="qcurve" smooth="yes"/>
      <point x="597" y="-174"/>
      <point x="616" y="-174" type="qcurve" smooth="yes"/>
      <point x="637" y="-174"/>
      <point x="650" y="-185" type="qcurve" smooth="yes"/>
      <point x="659" y="-194"/>
      <point x="659" y="-205" type="qcurve" smooth="yes"/>
      <point x="659" y="-224"/>
      <point x="639" y="-236" type="qcurve" smooth="yes"/>
      <point x="599" y="-261"/>
      <point x="560" y="-261" type="qcurve" smooth="yes"/>
      <point x="550" y="-261"/>
      <point x="545" y="-260" type="qcurve" smooth="yes"/>
      <point x="513" y="-255"/>
      <point x="502" y="-241" type="qcurve" smooth="yes"/>
      <point x="476" y="-211"/>
      <point x="459" y="-91"/>
      <point x="459" y="7" type="qcurve" smooth="yes"/>
      <point x="459" y="73"/>
      <point x="471" y="388"/>
      <point x="471" y="465" type="qcurve" smooth="yes"/>
      <point x="471" y="498"/>
      <point x="406" y="549"/>
      <point x="373" y="549" type="qcurve" smooth="yes"/>
      <point x="297" y="549"/>
      <point x="185" y="434"/>
      <point x="166" y="339" type="qcurve" smooth="yes"/>
      <point x="159" y="304"/>
      <point x="159" y="266" type="qcurve" smooth="yes"/>
      <point x="159" y="175"/>
      <point x="243" y="54"/>
      <point x="307" y="54" type="qcurve" smooth="yes"/>
      <point x="342" y="54"/>
      <point x="387" y="71" type="qcurve" smooth="yes"/>
      <point x="400" y="76"/>
      <point x="412" y="76" type="qcurve" smooth="yes"/>
      <point x="440" y="76"/>
    </contour>
  </outline>
</glyph>
<glyph name="r" format="1">
  <advance width="510"/>
  <unicode hex="0072"/>
  <outline>
    <contour>
      <point x="196" y="-13" type="qcurve" smooth="yes"/>
      <point x="186" y="-13"/>
      <point x="172" y="4"/>
      <point x="171" y="14" type="qcurve" smooth="yes"/>
      <point x="170" y="39"/>
      <point x="165" y="165"/>
      <point x="162" y="216"/>
      <point x="153" y="308"/>
      <point x="146" y="351" type="qcurve" smooth="yes"/>
      <point x="134" y="427"/>
      <point x="77" y="529"/>
      <point x="47" y="536" type="qcurve" smooth="yes"/>
      <point x="20" y="542"/>
      <point x="20" y="565" type="qcurve" smooth="yes"/>
      <point x="20" y="574"/>
      <point x="26" y="582" type="qcurve" smooth="yes"/>
      <point x="43" y="606"/>
      <point x="78" y="606" type="qcurve" smooth="yes"/>
      <point x="83" y="606"/>
      <point x="93" y="604" type="qcurve" smooth="yes"/>
      <point x="176" y="581"/>
      <point x="209" y="453" type="qcurve"/>
      <point x="243" y="614"/>
      <point x="361" y="621" type="qcurve"/>
      <point x="373" y="621" type="line" smooth="yes"/>
      <point x="424" y="621"/>
      <point x="475" y="589" type="qcurve" smooth="yes"/>
      <point x="489" y="581"/>
      <point x="489" y="566" type="qcurve" smooth="yes"/>
      <point x="489" y="550"/>
      <point x="475" y="539" type="qcurve" smooth="yes"/>
      <point x="457" y="524"/>
      <point x="432" y="524" type="qcurve" smooth="yes"/>
      <point x="415" y="524"/>
      <point x="405" y="531" type="qcurve" smooth="yes"/>
      <point x="376" y="549"/>
      <point x="355" y="549" type="qcurve" smooth="yes"/>
      <point x="344" y="549"/>
      <point x="313" y="514"/>
      <point x="283" y="434"/>
      <point x="279" y="382" type="qcurve" smooth="yes"/>
      <point x="271" y="270"/>
      <point x="271" y="175" type="qcurve" smooth="yes"/>
      <point x="271" y="147" type="line" smooth="yes"/>
      <point x="271" y="80"/>
      <point x="269" y="15" type="qcurve"/>
      <point x="238" y="-13"/>
    </contour>
  </outline>
</glyph>
<glyph name="s" format="1">
  <advance width="570"/>
  <unicode hex="0073"/>
  <outline>
    <contour>
      <point x="97" y="158" type="qcurve" smooth="yes"/>
      <point x="106" y="161"/>
      <point x="117" y="161" type="qcurve" smooth="yes"/>
      <point x="150" y="161"/>
      <point x="158" y="139" type="qcurve" smooth="yes"/>
      <point x="192" y="52"/>
      <point x="301" y="52" type="qcurve" smooth="yes"/>
      <point x="377" y="52"/>
      <point x="412" y="98" type="qcurve" smooth="yes"/>
      <point x="431" y="123"/>
      <point x="431" y="150" type="qcurve" smooth="yes"/>
      <point x="431" y="180"/>
      <point x="387" y="231"/>
      <point x="344" y="245" type="qcurve" smooth="yes"/>
      <point x="331" y="249"/>
      <point x="268" y="271"/>
      <point x="192" y="297"/>
      <point x="184" y="300" type="qcurve" smooth="yes"/>
      <point x="121" y="321"/>
      <point x="56" y="399"/>
      <point x="56" y="445" type="qcurve" smooth="yes"/>
      <point x="56" y="461"/>
      <point x="58" y="469" type="qcurve" smooth="yes"/>
      <point x="71" y="533"/>
      <point x="211" y="626"/>
      <point x="312" y="626" type="qcurve" smooth="yes"/>
      <point x="390" y="626"/>
      <point x="480" y="545"/>
      <point x="480" y="489" type="qcurve" smooth="yes"/>
      <point x="480" y="477"/>
      <point x="479" y="471" type="qcurve" smooth="yes"/>
      <point x="477" y="457"/>
      <point x="445" y="435"/>
      <point x="425" y="434" type="qcurve" smooth="yes"/>
      <point x="423" y="434" type="line" smooth="yes"/>
      <point x="405" y="434"/>
      <point x="381" y="452"/>
      <point x="381" y="465" type="qcurve" smooth="yes"/>
      <point x="381" y="469" type="line" smooth="yes"/>
      <point x="382" y="473"/>
      <point x="382" y="480" type="qcurve" smooth="yes"/>
      <point x="382" y="511"/>
      <point x="333" y="554"/>
      <point x="298" y="554" type="qcurve" smooth="yes"/>
      <point x="233" y="554"/>
      <point x="157" y="505"/>
      <point x="150" y="469" type="qcurve" smooth="yes"/>
      <point x="149" y="465"/>
      <point x="149" y="457" type="qcurve" smooth="yes"/>
      <point x="149" y="431"/>
      <point x="193" y="384"/>
      <point x="236" y="370" type="qcurve" smooth="yes"/>
      <point x="255" y="364"/>
      <point x="386" y="318"/>
      <point x="396" y="315" type="qcurve" smooth="yes"/>
      <point x="460" y="295"/>
      <point x="526" y="215"/>
      <point x="526" y="167" type="qcurve" smooth="yes"/>
      <point x="526" y="115"/>
      <point x="491" y="71" type="qcurve" smooth="yes"/>
      <point x="460" y="31"/>
      <point x="353" y="-20"/>
      <point x="287" y="-20" type="qcurve" smooth="yes"/>
      <point x="202" y="-20"/>
      <point x="86" y="52"/>
      <point x="62" y="111" type="qcurve" smooth="yes"/>
      <point x="60" y="117"/>
      <point x="60" y="120" type="qcurve" smooth="yes"/>
      <point x="60" y="146"/>
    </contour>
  </outline>
</glyph>
